<svg xmlns="http://www.w3.org/2000/svg" xmlns:xlink="http://www.w3.org/1999/xlink" width="1366" zoomAndPan="magnify" viewBox="0 0 1024.5 576" height="768" preserveAspectRatio="xMidYMid meet" version="1.0"><defs><clipPath id="cdfba1c2b0"><path d="M 217.75 60.324219 L 252 60.324219 L 252 94 L 217.75 94 Z M 217.75 60.324219 " clip-rule="nonzero"/></clipPath><clipPath id="6e918452ee"><path d="M 223 491 L 248 491 L 248 515.351562 L 223 515.351562 Z M 223 491 " clip-rule="nonzero"/></clipPath><clipPath id="a1d8cece15"><path d="M 780 392 L 806.210938 392 L 806.210938 394 L 780 394 Z M 780 392 " clip-rule="nonzero"/></clipPath></defs><path fill="#ff5757" d="M 740.632812 477.363281 L 272.179688 477.363281 C 271.570312 477.363281 270.960938 477.332031 270.355469 477.273438 C 269.75 477.214844 269.148438 477.125 268.550781 477.003906 C 267.953125 476.882812 267.359375 476.734375 266.777344 476.558594 C 266.195312 476.382812 265.621094 476.175781 265.058594 475.941406 C 264.496094 475.707031 263.945312 475.449219 263.410156 475.160156 C 262.871094 474.875 262.351562 474.558594 261.84375 474.222656 C 261.335938 473.882812 260.847656 473.519531 260.375 473.132812 C 259.90625 472.746094 259.453125 472.339844 259.023438 471.90625 C 258.59375 471.476562 258.183594 471.023438 257.796875 470.554688 C 257.410156 470.082031 257.046875 469.59375 256.710938 469.089844 C 256.371094 468.582031 256.058594 468.058594 255.769531 467.523438 C 255.484375 466.984375 255.222656 466.433594 254.988281 465.871094 C 254.753906 465.308594 254.550781 464.734375 254.371094 464.152344 C 254.195312 463.570312 254.046875 462.980469 253.925781 462.382812 C 253.808594 461.785156 253.71875 461.183594 253.65625 460.574219 C 253.597656 459.96875 253.566406 459.363281 253.566406 458.753906 L 253.566406 118.144531 C 253.566406 117.535156 253.597656 116.925781 253.65625 116.320312 C 253.714844 115.710938 253.804688 115.109375 253.925781 114.511719 C 254.042969 113.914062 254.191406 113.324219 254.371094 112.738281 C 254.546875 112.15625 254.753906 111.582031 254.984375 111.019531 C 255.21875 110.457031 255.480469 109.90625 255.765625 109.367188 C 256.054688 108.832031 256.367188 108.308594 256.707031 107.800781 C 257.042969 107.292969 257.40625 106.804688 257.792969 106.335938 C 258.179688 105.863281 258.589844 105.410156 259.019531 104.980469 C 259.449219 104.550781 259.902344 104.140625 260.371094 103.753906 C 260.84375 103.367188 261.332031 103.003906 261.839844 102.664062 C 262.347656 102.324219 262.867188 102.011719 263.40625 101.722656 C 263.941406 101.4375 264.492188 101.175781 265.054688 100.941406 C 265.621094 100.707031 266.191406 100.5 266.777344 100.324219 C 267.359375 100.148438 267.949219 99.996094 268.546875 99.878906 C 269.144531 99.757812 269.746094 99.667969 270.355469 99.609375 C 270.960938 99.546875 271.570312 99.515625 272.179688 99.515625 L 740.632812 99.515625 C 741.242188 99.515625 741.851562 99.546875 742.457031 99.609375 C 743.0625 99.667969 743.664062 99.757812 744.261719 99.878906 C 744.859375 99.996094 745.449219 100.144531 746.035156 100.324219 C 746.617188 100.5 747.191406 100.707031 747.753906 100.9375 C 748.316406 101.171875 748.867188 101.433594 749.402344 101.722656 C 749.941406 102.007812 750.460938 102.320312 750.96875 102.660156 C 751.476562 103 751.964844 103.363281 752.433594 103.75 C 752.90625 104.136719 753.359375 104.542969 753.789062 104.976562 C 754.21875 105.40625 754.628906 105.855469 755.015625 106.328125 C 755.402344 106.800781 755.765625 107.289062 756.101562 107.796875 C 756.441406 108.300781 756.753906 108.824219 757.042969 109.363281 C 757.328125 109.898438 757.589844 110.449219 757.824219 111.011719 C 758.058594 111.574219 758.261719 112.148438 758.4375 112.730469 C 758.617188 113.3125 758.765625 113.90625 758.882812 114.503906 C 759.003906 115.101562 759.09375 115.703125 759.152344 116.308594 C 759.214844 116.914062 759.246094 117.523438 759.246094 118.132812 L 759.246094 458.742188 C 759.246094 459.351562 759.214844 459.960938 759.152344 460.566406 C 759.09375 461.171875 759.003906 461.773438 758.886719 462.371094 C 758.765625 462.972656 758.617188 463.5625 758.441406 464.144531 C 758.265625 464.726562 758.058594 465.300781 757.824219 465.863281 C 757.59375 466.425781 757.332031 466.976562 757.042969 467.515625 C 756.757812 468.054688 756.445312 468.574219 756.105469 469.082031 C 755.765625 469.589844 755.402344 470.078125 755.015625 470.550781 C 754.628906 471.019531 754.222656 471.472656 753.789062 471.902344 C 753.359375 472.335938 752.910156 472.742188 752.4375 473.128906 C 751.964844 473.515625 751.476562 473.878906 750.972656 474.21875 C 750.464844 474.558594 749.941406 474.871094 749.40625 475.160156 C 748.867188 475.445312 748.316406 475.707031 747.753906 475.941406 C 747.191406 476.175781 746.617188 476.378906 746.035156 476.558594 C 745.453125 476.734375 744.859375 476.882812 744.261719 477.003906 C 743.664062 477.121094 743.0625 477.214844 742.457031 477.273438 C 741.851562 477.332031 741.242188 477.363281 740.632812 477.363281 Z M 272.179688 101.300781 C 271.628906 101.300781 271.078125 101.328125 270.53125 101.382812 C 269.980469 101.4375 269.4375 101.519531 268.894531 101.625 C 268.355469 101.734375 267.820312 101.867188 267.296875 102.027344 C 266.769531 102.191406 266.25 102.375 265.742188 102.585938 C 265.230469 102.796875 264.734375 103.035156 264.25 103.292969 C 263.761719 103.554688 263.289062 103.835938 262.832031 104.144531 C 262.375 104.449219 261.933594 104.777344 261.507812 105.128906 C 261.082031 105.476562 260.671875 105.847656 260.285156 106.234375 C 259.894531 106.625 259.523438 107.035156 259.175781 107.460938 C 258.824219 107.886719 258.496094 108.328125 258.191406 108.785156 C 257.882812 109.242188 257.601562 109.714844 257.339844 110.203125 C 257.082031 110.6875 256.847656 111.183594 256.636719 111.695312 C 256.425781 112.203125 256.238281 112.722656 256.078125 113.25 C 255.917969 113.777344 255.785156 114.308594 255.675781 114.851562 C 255.566406 115.390625 255.488281 115.933594 255.433594 116.484375 C 255.378906 117.03125 255.351562 117.582031 255.347656 118.132812 L 255.347656 458.742188 C 255.351562 459.292969 255.378906 459.84375 255.433594 460.390625 C 255.488281 460.9375 255.566406 461.484375 255.675781 462.023438 C 255.785156 462.5625 255.917969 463.097656 256.078125 463.625 C 256.238281 464.152344 256.425781 464.671875 256.636719 465.179688 C 256.847656 465.6875 257.082031 466.1875 257.339844 466.671875 C 257.601562 467.15625 257.882812 467.628906 258.191406 468.085938 C 258.496094 468.546875 258.824219 468.988281 259.175781 469.414062 C 259.523438 469.839844 259.894531 470.246094 260.285156 470.636719 C 260.671875 471.027344 261.082031 471.394531 261.507812 471.746094 C 261.933594 472.09375 262.375 472.421875 262.832031 472.730469 C 263.289062 473.035156 263.761719 473.320312 264.25 473.578125 C 264.734375 473.839844 265.230469 474.074219 265.742188 474.285156 C 266.25 474.496094 266.769531 474.683594 267.296875 474.84375 C 267.824219 475.003906 268.355469 475.136719 268.898438 475.246094 C 269.4375 475.351562 269.980469 475.433594 270.53125 475.488281 C 271.078125 475.542969 271.628906 475.570312 272.179688 475.570312 L 740.632812 475.570312 C 741.183594 475.570312 741.734375 475.542969 742.28125 475.488281 C 742.828125 475.433594 743.375 475.351562 743.914062 475.246094 C 744.453125 475.136719 744.988281 475.003906 745.515625 474.84375 C 746.042969 474.683594 746.5625 474.496094 747.070312 474.285156 C 747.578125 474.074219 748.078125 473.839844 748.5625 473.578125 C 749.046875 473.320312 749.519531 473.035156 749.976562 472.730469 C 750.4375 472.421875 750.878906 472.09375 751.304688 471.746094 C 751.730469 471.394531 752.136719 471.027344 752.527344 470.636719 C 752.917969 470.246094 753.285156 469.839844 753.636719 469.414062 C 753.984375 468.988281 754.3125 468.546875 754.621094 468.085938 C 754.925781 467.628906 755.210938 467.15625 755.46875 466.671875 C 755.730469 466.1875 755.964844 465.6875 756.175781 465.179688 C 756.386719 464.671875 756.574219 464.152344 756.734375 463.625 C 756.894531 463.097656 757.027344 462.5625 757.136719 462.023438 C 757.242188 461.484375 757.324219 460.9375 757.378906 460.390625 C 757.433594 459.84375 757.460938 459.292969 757.460938 458.742188 L 757.460938 118.144531 C 757.460938 117.59375 757.433594 117.042969 757.378906 116.492188 C 757.324219 115.945312 757.246094 115.398438 757.136719 114.859375 C 757.03125 114.320312 756.894531 113.785156 756.734375 113.257812 C 756.574219 112.730469 756.390625 112.210938 756.179688 111.703125 C 755.96875 111.191406 755.734375 110.695312 755.472656 110.207031 C 755.214844 109.722656 754.929688 109.25 754.625 108.792969 C 754.316406 108.332031 753.988281 107.890625 753.640625 107.464844 C 753.289062 107.039062 752.921875 106.628906 752.53125 106.238281 C 752.140625 105.851562 751.734375 105.480469 751.308594 105.128906 C 750.882812 104.78125 750.441406 104.453125 749.980469 104.144531 C 749.523438 103.839844 749.050781 103.554688 748.566406 103.296875 C 748.078125 103.035156 747.582031 102.800781 747.074219 102.585938 C 746.5625 102.375 746.046875 102.191406 745.519531 102.03125 C 744.992188 101.871094 744.457031 101.734375 743.914062 101.625 C 743.375 101.519531 742.832031 101.4375 742.28125 101.382812 C 741.734375 101.328125 741.183594 101.300781 740.632812 101.300781 Z M 272.179688 101.300781 " fill-opacity="1" fill-rule="nonzero"/><path fill="#ff5757" d="M 758.351562 155.230469 L 254.460938 155.230469 C 254.214844 155.230469 254.003906 155.140625 253.832031 154.96875 C 253.65625 154.792969 253.570312 154.582031 253.570312 154.335938 C 253.570312 154.089844 253.65625 153.882812 253.832031 153.707031 C 254.003906 153.53125 254.214844 153.445312 254.460938 153.445312 L 758.351562 153.445312 C 758.597656 153.445312 758.808594 153.53125 758.984375 153.707031 C 759.15625 153.882812 759.246094 154.089844 759.246094 154.335938 C 759.246094 154.582031 759.15625 154.792969 758.984375 154.96875 C 758.808594 155.140625 758.597656 155.230469 758.351562 155.230469 Z M 758.351562 155.230469 " fill-opacity="1" fill-rule="nonzero"/><path fill="#ff5757" d="M 481.367188 346.214844 C 481.132812 346.214844 480.933594 346.136719 480.761719 345.980469 L 456.824219 323.867188 C 456.679688 323.730469 456.589844 323.5625 456.558594 323.363281 C 456.527344 323.164062 456.558594 322.976562 456.652344 322.796875 C 457.65625 320.988281 458.679688 319.199219 459.683594 317.492188 C 462.664062 312.390625 465.832031 307.371094 469.09375 302.558594 C 475.597656 292.957031 482.75 283.867188 490.554688 275.289062 C 503.574219 260.933594 518.28125 248.59375 534.679688 238.265625 C 538.203125 236.0625 546.449219 230.894531 555.832031 226.140625 C 556.328125 225.886719 556.828125 225.632812 557.335938 225.386719 C 577.84375 215.171875 591.527344 213.023438 597.992188 218.996094 C 598.171875 219.160156 598.269531 219.367188 598.277344 219.613281 C 598.289062 219.859375 598.210938 220.074219 598.042969 220.253906 C 597.875 220.433594 597.667969 220.53125 597.421875 220.542969 C 597.175781 220.550781 596.964844 220.472656 596.78125 220.304688 C 590.996094 214.957031 577.628906 217.273438 558.128906 226.984375 L 556.632812 227.730469 C 547.332031 232.46875 539.125 237.601562 535.621094 239.796875 C 519.371094 250.03125 504.789062 262.261719 491.882812 276.484375 C 484.136719 285 477.039062 294.023438 470.585938 303.554688 C 467.34375 308.328125 464.199219 313.324219 461.234375 318.386719 C 460.351562 319.890625 459.453125 321.457031 458.5625 323.046875 L 481.988281 344.671875 C 482.121094 344.796875 482.207031 344.945312 482.25 345.125 C 482.289062 345.304688 482.277344 345.476562 482.210938 345.648438 C 482.144531 345.820312 482.035156 345.957031 481.882812 346.058594 C 481.730469 346.164062 481.5625 346.214844 481.378906 346.214844 Z M 481.367188 346.214844 " fill-opacity="1" fill-rule="nonzero"/><path fill="#ff5757" d="M 412.300781 341.203125 C 412.078125 341.199219 411.867188 341.144531 411.671875 341.035156 C 411.230469 340.808594 410.199219 340.273438 410.703125 334.792969 C 411.457031 326.679688 415.105469 313.09375 421.574219 301.03125 C 427.375 290.214844 437.757812 276.269531 454.289062 271.273438 C 466.078125 267.707031 482.738281 267.90625 491.769531 275.195312 C 491.960938 275.351562 492.070312 275.550781 492.09375 275.792969 C 492.121094 276.039062 492.058594 276.253906 491.902344 276.445312 C 491.75 276.636719 491.550781 276.746094 491.308594 276.773438 C 491.0625 276.800781 490.84375 276.738281 490.652344 276.585938 C 482.09375 269.6875 466.144531 269.554688 454.804688 272.984375 C 432.695312 279.679688 421.636719 302.726562 417.019531 315.871094 C 412.839844 327.785156 411.988281 336.914062 412.464844 339.140625 C 413.179688 338.390625 414.394531 336.410156 415.503906 334.632812 C 420.429688 326.730469 429.597656 312.03125 443.71875 311.066406 C 450.695312 310.582031 455.371094 313.605469 459.894531 316.523438 L 460.929688 317.191406 C 461.140625 317.324219 461.269531 317.511719 461.324219 317.75 C 461.375 317.992188 461.335938 318.214844 461.203125 318.425781 C 461.070312 318.632812 460.886719 318.761719 460.644531 318.816406 C 460.402344 318.867188 460.179688 318.828125 459.972656 318.695312 L 458.921875 318.023438 C 454.644531 315.261719 450.226562 312.40625 443.839844 312.839844 C 430.644531 313.746094 421.773438 327.949219 417.015625 335.578125 C 414.671875 339.324219 413.503906 341.203125 412.300781 341.203125 Z M 412.300781 341.203125 " fill-opacity="1" fill-rule="nonzero"/><path fill="#ff5757" d="M 547.648438 274.417969 C 547.417969 274.417969 547.214844 274.339844 547.042969 274.183594 C 546.5625 273.730469 546.105469 273.257812 545.667969 272.761719 C 545.234375 272.265625 544.824219 271.746094 544.4375 271.210938 C 544.054688 270.675781 543.695312 270.121094 543.367188 269.550781 C 543.035156 268.976562 542.734375 268.390625 542.460938 267.789062 C 542.1875 267.1875 541.945312 266.578125 541.730469 265.953125 C 541.515625 265.328125 541.335938 264.691406 541.183594 264.050781 C 541.03125 263.40625 540.914062 262.757812 540.824219 262.105469 C 540.738281 261.449219 540.679688 260.792969 540.65625 260.132812 C 540.632812 259.472656 540.640625 258.816406 540.683594 258.15625 C 540.722656 257.496094 540.796875 256.839844 540.902344 256.191406 C 541.007812 255.539062 541.140625 254.894531 541.308594 254.253906 C 541.476562 253.617188 541.675781 252.988281 541.90625 252.367188 C 542.136719 251.75 542.394531 251.144531 542.683594 250.550781 C 542.972656 249.957031 543.289062 249.378906 543.632812 248.8125 C 543.980469 248.25 544.351562 247.707031 544.75 247.179688 C 545.148438 246.652344 545.570312 246.148438 546.019531 245.664062 C 546.464844 245.179688 546.9375 244.714844 547.429688 244.277344 C 547.921875 243.835938 548.4375 243.425781 548.96875 243.035156 C 549.503906 242.644531 550.054688 242.285156 550.621094 241.949219 C 551.191406 241.613281 551.773438 241.308594 552.375 241.03125 C 552.972656 240.75 553.582031 240.503906 554.207031 240.285156 C 554.832031 240.066406 555.460938 239.878906 556.105469 239.722656 C 556.746094 239.566406 557.390625 239.441406 558.046875 239.347656 C 558.699219 239.253906 559.355469 239.195312 560.015625 239.164062 C 560.675781 239.136719 561.335938 239.140625 561.992188 239.175781 C 562.652344 239.210938 563.308594 239.277344 563.960938 239.378906 C 564.613281 239.476562 565.261719 239.609375 565.898438 239.773438 C 566.539062 239.933594 567.171875 240.128906 567.792969 240.351562 C 568.414062 240.578125 569.019531 240.832031 569.617188 241.113281 C 570.210938 241.398438 570.792969 241.710938 571.359375 242.050781 C 571.925781 242.390625 572.472656 242.761719 573 243.152344 C 573.53125 243.546875 574.039062 243.96875 574.527344 244.410156 C 574.710938 244.578125 574.804688 244.785156 574.816406 245.03125 C 574.824219 245.277344 574.746094 245.488281 574.578125 245.671875 C 574.414062 245.851562 574.207031 245.949219 573.960938 245.957031 C 573.714844 245.96875 573.5 245.890625 573.320312 245.722656 C 572.875 245.320312 572.410156 244.9375 571.925781 244.578125 C 571.445312 244.214844 570.945312 243.882812 570.429688 243.570312 C 569.914062 243.257812 569.382812 242.976562 568.839844 242.714844 C 568.296875 242.457031 567.742188 242.226562 567.175781 242.019531 C 566.609375 241.816406 566.035156 241.636719 565.449219 241.488281 C 564.867188 241.339844 564.277344 241.222656 563.683594 241.128906 C 563.085938 241.039062 562.488281 240.976562 561.886719 240.945312 C 561.285156 240.914062 560.683594 240.910156 560.082031 240.9375 C 559.480469 240.960938 558.882812 241.019531 558.285156 241.101562 C 557.691406 241.1875 557.101562 241.300781 556.515625 241.445312 C 555.929688 241.585938 555.351562 241.757812 554.785156 241.957031 C 554.214844 242.15625 553.660156 242.382812 553.113281 242.636719 C 552.566406 242.886719 552.035156 243.167969 551.515625 243.472656 C 550.996094 243.777344 550.492188 244.109375 550.007812 244.464844 C 549.519531 244.820312 549.050781 245.195312 548.601562 245.597656 C 548.152344 245.996094 547.722656 246.417969 547.316406 246.859375 C 546.90625 247.304688 546.519531 247.765625 546.15625 248.246094 C 545.792969 248.726562 545.453125 249.222656 545.140625 249.734375 C 544.824219 250.25 544.535156 250.777344 544.273438 251.316406 C 544.007812 251.859375 543.773438 252.414062 543.5625 252.976562 C 543.355469 253.542969 543.171875 254.113281 543.019531 254.699219 C 542.867188 255.28125 542.742188 255.867188 542.648438 256.460938 C 542.550781 257.058594 542.484375 257.65625 542.449219 258.257812 C 542.410156 258.855469 542.402344 259.457031 542.425781 260.058594 C 542.445312 260.664062 542.5 261.261719 542.578125 261.859375 C 542.660156 262.457031 542.769531 263.046875 542.90625 263.632812 C 543.042969 264.21875 543.210938 264.796875 543.40625 265.367188 C 543.601562 265.9375 543.820312 266.496094 544.070312 267.042969 C 544.320312 267.59375 544.59375 268.125 544.898438 268.648438 C 545.199219 269.167969 545.523438 269.675781 545.875 270.164062 C 546.226562 270.652344 546.601562 271.125 546.996094 271.578125 C 547.394531 272.03125 547.8125 272.460938 548.253906 272.875 C 548.386719 273 548.472656 273.148438 548.515625 273.328125 C 548.554688 273.507812 548.542969 273.679688 548.476562 273.851562 C 548.410156 274.019531 548.300781 274.15625 548.148438 274.261719 C 548 274.363281 547.832031 274.417969 547.648438 274.417969 Z M 547.648438 274.417969 " fill-opacity="1" fill-rule="nonzero"/><path fill="#ff5757" d="M 549.773438 272.125 C 549.539062 272.125 549.339844 272.046875 549.167969 271.890625 C 548.757812 271.507812 548.363281 271.109375 547.988281 270.691406 C 547.617188 270.269531 547.265625 269.835938 546.933594 269.382812 C 546.605469 268.929688 546.296875 268.460938 546.011719 267.976562 C 545.726562 267.492188 545.46875 266.996094 545.234375 266.484375 C 544.996094 265.976562 544.785156 265.457031 544.601562 264.925781 C 544.417969 264.398438 544.261719 263.859375 544.128906 263.3125 C 543.996094 262.769531 543.890625 262.21875 543.816406 261.660156 C 543.738281 261.105469 543.6875 260.546875 543.664062 259.988281 C 543.640625 259.425781 543.648438 258.867188 543.679688 258.304688 C 543.710938 257.746094 543.773438 257.1875 543.859375 256.632812 C 543.945312 256.078125 544.0625 255.53125 544.203125 254.988281 C 544.34375 254.445312 544.511719 253.910156 544.703125 253.382812 C 544.898438 252.855469 545.117188 252.339844 545.363281 251.835938 C 545.605469 251.332031 545.875 250.839844 546.167969 250.359375 C 546.460938 249.882812 546.777344 249.417969 547.113281 248.96875 C 547.453125 248.523438 547.8125 248.09375 548.195312 247.679688 C 548.574219 247.269531 548.972656 246.875 549.394531 246.503906 C 549.8125 246.128906 550.25 245.777344 550.703125 245.449219 C 551.15625 245.117188 551.625 244.8125 552.109375 244.527344 C 552.59375 244.242188 553.089844 243.984375 553.601562 243.75 C 554.109375 243.511719 554.628906 243.304688 555.160156 243.121094 C 555.6875 242.933594 556.226562 242.777344 556.773438 242.644531 C 557.320312 242.515625 557.871094 242.410156 558.425781 242.332031 C 558.980469 242.257812 559.539062 242.207031 560.101562 242.183594 C 560.660156 242.164062 561.222656 242.167969 561.78125 242.199219 C 562.339844 242.234375 562.898438 242.292969 563.453125 242.382812 C 564.007812 242.46875 564.554688 242.585938 565.097656 242.726562 C 565.640625 242.867188 566.175781 243.035156 566.703125 243.230469 C 567.230469 243.421875 567.746094 243.644531 568.25 243.886719 C 568.753906 244.132812 569.246094 244.402344 569.726562 244.695312 C 570.203125 244.988281 570.667969 245.304688 571.113281 245.644531 C 571.5625 245.980469 571.992188 246.339844 572.402344 246.722656 C 572.496094 246.800781 572.570312 246.894531 572.621094 247.003906 C 572.675781 247.113281 572.707031 247.226562 572.714844 247.347656 C 572.722656 247.46875 572.703125 247.585938 572.664062 247.699219 C 572.625 247.816406 572.5625 247.917969 572.480469 248.003906 C 572.398438 248.09375 572.300781 248.164062 572.191406 248.214844 C 572.078125 248.261719 571.964844 248.289062 571.84375 248.292969 C 571.722656 248.292969 571.605469 248.273438 571.492188 248.226562 C 571.378906 248.183594 571.28125 248.117188 571.195312 248.03125 C 570.453125 247.347656 569.65625 246.742188 568.796875 246.214844 C 567.9375 245.691406 567.035156 245.253906 566.089844 244.90625 C 565.144531 244.554688 564.171875 244.304688 563.175781 244.144531 C 562.183594 243.988281 561.179688 243.929688 560.175781 243.96875 C 559.167969 244.011719 558.175781 244.148438 557.195312 244.382812 C 556.214844 244.617188 555.269531 244.949219 554.355469 245.371094 C 553.4375 245.792969 552.574219 246.300781 551.757812 246.890625 C 550.945312 247.484375 550.195312 248.152344 549.511719 248.890625 C 548.828125 249.628906 548.222656 250.429688 547.695312 251.289062 C 547.171875 252.148438 546.734375 253.050781 546.386719 253.996094 C 546.035156 254.941406 545.785156 255.910156 545.625 256.90625 C 545.46875 257.902344 545.410156 258.902344 545.449219 259.910156 C 545.488281 260.917969 545.628906 261.910156 545.863281 262.890625 C 546.097656 263.867188 546.429688 264.816406 546.851562 265.730469 C 547.273438 266.644531 547.78125 267.511719 548.371094 268.324219 C 548.964844 269.140625 549.628906 269.890625 550.371094 270.574219 C 550.503906 270.699219 550.59375 270.851562 550.632812 271.027344 C 550.671875 271.207031 550.660156 271.382812 550.59375 271.550781 C 550.527344 271.722656 550.417969 271.859375 550.265625 271.960938 C 550.113281 272.066406 549.949219 272.117188 549.765625 272.117188 Z M 549.773438 272.125 " fill-opacity="1" fill-rule="nonzero"/><path fill="#ff5757" d="M 576.453125 243.214844 C 576.222656 243.21875 576.019531 243.136719 575.847656 242.976562 C 569.65625 237.226562 562.964844 232.125 555.777344 227.679688 C 555.574219 227.546875 555.449219 227.359375 555.398438 227.125 C 555.34375 226.890625 555.382812 226.667969 555.511719 226.464844 C 555.636719 226.257812 555.816406 226.128906 556.050781 226.070312 C 556.285156 226.011719 556.507812 226.042969 556.714844 226.164062 C 563.996094 230.671875 570.769531 235.84375 577.042969 241.671875 C 577.175781 241.796875 577.265625 241.949219 577.304688 242.128906 C 577.34375 242.304688 577.332031 242.480469 577.265625 242.652344 C 577.199219 242.820312 577.089844 242.957031 576.9375 243.0625 C 576.785156 243.164062 576.621094 243.214844 576.4375 243.214844 Z M 576.453125 243.214844 " fill-opacity="1" fill-rule="nonzero"/><path fill="#ff5757" d="M 577.441406 242.148438 C 577.207031 242.148438 577.007812 242.066406 576.835938 241.90625 C 570.789062 236.296875 564.269531 231.300781 557.273438 226.929688 C 557.066406 226.800781 556.929688 226.613281 556.875 226.375 C 556.816406 226.132812 556.855469 225.90625 556.984375 225.695312 C 557.113281 225.488281 557.300781 225.351562 557.539062 225.296875 C 557.78125 225.238281 558.007812 225.277344 558.214844 225.40625 C 565.308594 229.839844 571.917969 234.90625 578.046875 240.597656 C 578.179688 240.722656 578.265625 240.875 578.308594 241.054688 C 578.347656 241.230469 578.335938 241.40625 578.269531 241.578125 C 578.199219 241.746094 578.089844 241.882812 577.941406 241.988281 C 577.789062 242.089844 577.621094 242.144531 577.4375 242.144531 Z M 577.441406 242.148438 " fill-opacity="1" fill-rule="nonzero"/><path fill="#ff5757" d="M 497.125 329.144531 C 496.894531 329.140625 496.695312 329.0625 496.523438 328.90625 L 469.230469 303.710938 C 469.050781 303.542969 468.953125 303.339844 468.945312 303.09375 C 468.933594 302.847656 469.011719 302.632812 469.179688 302.453125 C 469.347656 302.269531 469.550781 302.175781 469.796875 302.164062 C 470.042969 302.152344 470.257812 302.234375 470.4375 302.398438 L 497.730469 327.59375 C 497.867188 327.71875 497.957031 327.871094 497.996094 328.050781 C 498.039062 328.230469 498.027344 328.40625 497.957031 328.578125 C 497.890625 328.746094 497.78125 328.886719 497.628906 328.988281 C 497.476562 329.09375 497.308594 329.144531 497.125 329.144531 Z M 497.125 329.144531 " fill-opacity="1" fill-rule="nonzero"/><path fill="#ff5757" d="M 473.722656 354.507812 C 473.492188 354.507812 473.289062 354.429688 473.117188 354.269531 L 452.078125 334.855469 C 451.972656 334.761719 451.894531 334.648438 451.839844 334.519531 C 451.789062 334.386719 451.769531 334.25 451.78125 334.113281 C 451.792969 333.972656 451.835938 333.839844 451.910156 333.722656 C 451.984375 333.601562 452.082031 333.503906 452.203125 333.429688 L 462.035156 327.171875 C 462.203125 327.066406 462.386719 327.023438 462.585938 327.039062 C 462.78125 327.058594 462.957031 327.132812 463.105469 327.265625 L 481.949219 344.664062 C 482.128906 344.832031 482.222656 345.039062 482.234375 345.285156 C 482.242188 345.53125 482.164062 345.742188 481.996094 345.925781 C 481.828125 346.105469 481.621094 346.199219 481.375 346.210938 C 481.128906 346.21875 480.917969 346.140625 480.734375 345.972656 L 462.398438 329.042969 L 454.125 334.308594 L 474.300781 352.941406 C 474.4375 353.066406 474.523438 353.214844 474.566406 353.394531 C 474.609375 353.574219 474.59375 353.75 474.527344 353.921875 C 474.460938 354.089844 474.351562 354.230469 474.203125 354.332031 C 474.050781 354.4375 473.882812 354.488281 473.699219 354.488281 Z M 473.722656 354.507812 " fill-opacity="1" fill-rule="nonzero"/><path fill="#ff5757" d="M 466.078125 362.777344 C 465.84375 362.777344 465.644531 362.695312 465.476562 362.539062 L 446.855469 345.351562 C 446.648438 345.160156 446.554688 344.921875 446.570312 344.636719 C 446.59375 344.351562 446.722656 344.128906 446.960938 343.96875 L 456.542969 337.476562 C 456.714844 337.359375 456.902344 337.308594 457.109375 337.324219 C 457.316406 337.339844 457.496094 337.417969 457.648438 337.558594 L 474.328125 352.957031 C 474.507812 353.125 474.601562 353.332031 474.613281 353.578125 C 474.621094 353.824219 474.542969 354.039062 474.378906 354.21875 C 474.210938 354.398438 474.003906 354.496094 473.757812 354.503906 C 473.511719 354.515625 473.300781 354.4375 473.117188 354.269531 L 456.957031 339.347656 L 448.890625 344.8125 L 466.683594 361.238281 C 466.820312 361.363281 466.90625 361.515625 466.949219 361.695312 C 466.992188 361.875 466.976562 362.050781 466.910156 362.222656 C 466.84375 362.390625 466.734375 362.53125 466.582031 362.632812 C 466.429688 362.734375 466.261719 362.789062 466.078125 362.789062 Z M 466.078125 362.777344 " fill-opacity="1" fill-rule="nonzero"/><path fill="#ff5757" d="M 505.304688 368.316406 C 505.070312 368.3125 504.867188 368.234375 504.695312 368.074219 L 480.761719 345.964844 C 480.578125 345.796875 480.484375 345.589844 480.476562 345.34375 C 480.464844 345.097656 480.542969 344.886719 480.710938 344.703125 C 480.878906 344.523438 481.085938 344.429688 481.332031 344.417969 C 481.578125 344.410156 481.792969 344.488281 481.972656 344.65625 L 505.394531 366.273438 C 506.894531 365.269531 508.382812 364.253906 509.820312 363.242188 C 514.636719 359.882812 519.363281 356.351562 523.863281 352.738281 C 532.851562 345.546875 541.28125 337.75 549.148438 329.347656 C 562.304688 315.351562 573.335938 299.84375 582.246094 282.824219 C 584.152344 279.152344 588.621094 270.5625 592.589844 260.914062 C 592.800781 260.402344 593.007812 259.890625 593.214844 259.367188 C 601.339844 239.15625 602.578125 225.644531 596.78125 220.304688 C 596.601562 220.136719 596.507812 219.929688 596.496094 219.683594 C 596.484375 219.4375 596.566406 219.222656 596.730469 219.042969 C 596.898438 218.863281 597.105469 218.765625 597.351562 218.757812 C 597.597656 218.746094 597.808594 218.824219 597.992188 218.992188 C 604.460938 224.964844 603.410156 238.773438 594.863281 260.03125 C 594.65625 260.558594 594.441406 261.078125 594.230469 261.59375 C 590.222656 271.316406 585.730469 279.957031 583.8125 283.644531 C 574.828125 300.816406 563.703125 316.46875 550.433594 330.597656 C 542.511719 339.054688 534.027344 346.90625 524.980469 354.148438 C 520.445312 357.785156 515.707031 361.34375 510.84375 364.722656 C 509.203125 365.867188 507.507812 367.027344 505.796875 368.167969 C 505.644531 368.265625 505.480469 368.316406 505.304688 368.316406 Z M 505.304688 368.316406 " fill-opacity="1" fill-rule="nonzero"/><path fill="#ff5757" d="M 493.757812 415.316406 C 491.734375 415.316406 491.378906 414.746094 491.195312 414.457031 C 490.324219 413.058594 492.050781 411.78125 496.222656 408.6875 C 503.445312 403.339844 516.90625 393.378906 516.742188 380.160156 C 516.667969 373.738281 513.46875 369.578125 510.378906 365.535156 L 509.621094 364.550781 C 509.472656 364.351562 509.417969 364.132812 509.453125 363.886719 C 509.488281 363.644531 509.605469 363.449219 509.800781 363.300781 C 509.996094 363.152344 510.21875 363.097656 510.460938 363.132812 C 510.707031 363.167969 510.902344 363.28125 511.046875 363.480469 C 511.292969 363.808594 511.542969 364.132812 511.796875 364.460938 C 515.066406 368.738281 518.449219 373.15625 518.53125 380.152344 C 518.691406 394.300781 504.769531 404.613281 497.285156 410.152344 C 495.601562 411.398438 493.71875 412.785156 493.035156 413.542969 C 495.296875 413.835938 504.328125 412.261719 515.859375 407.144531 C 528.59375 401.5 550.6875 388.652344 555.59375 366.0625 C 558.089844 354.484375 556.703125 338.601562 549.152344 330.617188 C 548.980469 330.4375 548.898438 330.222656 548.90625 329.976562 C 548.914062 329.730469 549.007812 329.523438 549.183594 329.355469 C 549.363281 329.183594 549.574219 329.105469 549.824219 329.109375 C 550.070312 329.117188 550.277344 329.210938 550.445312 329.390625 C 558.421875 337.8125 559.953125 354.402344 557.339844 366.4375 C 553.671875 383.316406 540.601562 394.777344 530.28125 401.421875 C 518.769531 408.832031 505.519531 413.546875 497.496094 414.949219 C 496.261719 415.175781 495.015625 415.296875 493.757812 415.316406 Z M 492.601562 413.394531 Z M 492.601562 413.394531 " fill-opacity="1" fill-rule="nonzero"/><path fill="#ff5757" d="M 560.777344 279.546875 C 558.234375 279.550781 555.773438 279.09375 553.40625 278.171875 C 551.035156 277.246094 548.914062 275.921875 547.042969 274.195312 C 546.875 274.027344 546.785156 273.824219 546.78125 273.585938 C 546.777344 273.34375 546.855469 273.136719 547.019531 272.960938 C 547.179688 272.785156 547.382812 272.691406 547.621094 272.675781 C 547.859375 272.660156 548.070312 272.734375 548.253906 272.886719 C 548.695312 273.296875 549.160156 273.683594 549.644531 274.050781 C 550.125 274.414062 550.625 274.753906 551.140625 275.066406 C 551.660156 275.382812 552.1875 275.671875 552.734375 275.933594 C 553.277344 276.199219 553.832031 276.433594 554.402344 276.640625 C 554.96875 276.851562 555.546875 277.03125 556.132812 277.183594 C 556.714844 277.335938 557.308594 277.457031 557.90625 277.550781 C 558.503906 277.644531 559.101562 277.710938 559.707031 277.746094 C 560.3125 277.78125 560.914062 277.785156 561.519531 277.761719 C 562.125 277.734375 562.726562 277.679688 563.324219 277.597656 C 563.921875 277.515625 564.515625 277.402344 565.105469 277.261719 C 565.691406 277.117188 566.269531 276.949219 566.84375 276.75 C 567.414062 276.550781 567.972656 276.324219 568.523438 276.070312 C 569.070312 275.816406 569.605469 275.535156 570.128906 275.230469 C 570.648438 274.925781 571.15625 274.59375 571.644531 274.238281 C 572.132812 273.882812 572.601562 273.503906 573.054688 273.101562 C 573.507812 272.699219 573.9375 272.277344 574.347656 271.832031 C 574.757812 271.386719 575.144531 270.921875 575.511719 270.441406 C 575.875 269.957031 576.214844 269.460938 576.53125 268.945312 C 576.847656 268.429688 577.136719 267.898438 577.398438 267.355469 C 577.664062 266.808594 577.898438 266.253906 578.109375 265.6875 C 578.320312 265.117188 578.5 264.542969 578.652344 263.957031 C 578.804688 263.371094 578.925781 262.78125 579.023438 262.183594 C 579.117188 261.585938 579.179688 260.984375 579.21875 260.382812 C 579.253906 259.777344 579.257812 259.175781 579.234375 258.570312 C 579.210938 257.964844 579.15625 257.363281 579.074219 256.765625 C 578.992188 256.164062 578.878906 255.574219 578.738281 254.984375 C 578.597656 254.394531 578.429688 253.816406 578.230469 253.246094 C 578.03125 252.675781 577.804688 252.113281 577.554688 251.5625 C 577.300781 251.015625 577.019531 250.480469 576.714844 249.957031 C 576.410156 249.4375 576.078125 248.929688 575.722656 248.441406 C 575.367188 247.953125 574.988281 247.480469 574.589844 247.027344 C 574.1875 246.578125 573.765625 246.144531 573.320312 245.734375 C 573.140625 245.566406 573.042969 245.359375 573.035156 245.113281 C 573.023438 244.867188 573.101562 244.65625 573.269531 244.472656 C 573.433594 244.292969 573.640625 244.199219 573.886719 244.1875 C 574.132812 244.175781 574.347656 244.253906 574.527344 244.421875 C 575.273438 245.109375 575.964844 245.847656 576.597656 246.636719 C 577.230469 247.429688 577.804688 248.261719 578.3125 249.140625 C 578.820312 250.015625 579.261719 250.925781 579.632812 251.867188 C 580.007812 252.808594 580.304688 253.773438 580.535156 254.761719 C 580.761719 255.75 580.914062 256.75 580.992188 257.757812 C 581.070312 258.769531 581.070312 259.78125 580.996094 260.792969 C 580.921875 261.800781 580.773438 262.800781 580.546875 263.789062 C 580.324219 264.777344 580.027344 265.746094 579.65625 266.6875 C 579.289062 267.632812 578.851562 268.542969 578.34375 269.421875 C 577.839844 270.296875 577.269531 271.132812 576.636719 271.925781 C 576.007812 272.71875 575.320312 273.460938 574.574219 274.148438 C 573.832031 274.839844 573.042969 275.46875 572.207031 276.039062 C 571.367188 276.609375 570.492188 277.117188 569.578125 277.554688 C 568.667969 277.996094 567.726562 278.363281 566.757812 278.660156 C 565.789062 278.960938 564.804688 279.183594 563.800781 279.332031 C 562.796875 279.484375 561.789062 279.558594 560.777344 279.558594 Z M 560.777344 279.546875 " fill-opacity="1" fill-rule="nonzero"/><path fill="#ff5757" d="M 560.769531 276.425781 C 558.617188 276.429688 556.542969 276.039062 554.539062 275.253906 C 552.535156 274.472656 550.746094 273.347656 549.167969 271.882812 C 549 271.714844 548.914062 271.507812 548.90625 271.269531 C 548.902344 271.03125 548.980469 270.824219 549.144531 270.648438 C 549.308594 270.472656 549.507812 270.375 549.746094 270.363281 C 549.984375 270.347656 550.195312 270.417969 550.378906 270.574219 C 551.117188 271.257812 551.917969 271.863281 552.777344 272.386719 C 553.636719 272.914062 554.539062 273.351562 555.484375 273.699219 C 556.429688 274.046875 557.402344 274.300781 558.394531 274.457031 C 559.390625 274.613281 560.390625 274.671875 561.398438 274.632812 C 562.40625 274.589844 563.398438 274.453125 564.378906 274.214844 C 565.359375 273.980469 566.304688 273.652344 567.21875 273.230469 C 568.132812 272.808594 569 272.300781 569.8125 271.707031 C 570.628906 271.113281 571.378906 270.445312 572.0625 269.707031 C 572.746094 268.964844 573.347656 268.167969 573.875 267.308594 C 574.402344 266.449219 574.835938 265.546875 575.1875 264.601562 C 575.535156 263.65625 575.785156 262.683594 575.941406 261.6875 C 576.101562 260.695312 576.160156 259.691406 576.117188 258.6875 C 576.078125 257.679688 575.941406 256.6875 575.703125 255.707031 C 575.46875 254.726562 575.140625 253.78125 574.714844 252.863281 C 574.292969 251.949219 573.785156 251.085938 573.195312 250.269531 C 572.601562 249.457031 571.933594 248.707031 571.195312 248.023438 C 571.023438 247.855469 570.9375 247.652344 570.933594 247.410156 C 570.929688 247.171875 571.007812 246.964844 571.167969 246.789062 C 571.332031 246.613281 571.53125 246.515625 571.773438 246.503906 C 572.011719 246.488281 572.222656 246.558594 572.402344 246.714844 C 573.023438 247.285156 573.597656 247.898438 574.125 248.554688 C 574.652344 249.210938 575.132812 249.902344 575.558594 250.628906 C 575.984375 251.355469 576.355469 252.109375 576.671875 252.890625 C 576.988281 253.667969 577.242188 254.46875 577.441406 255.289062 C 577.636719 256.105469 577.773438 256.9375 577.847656 257.773438 C 577.925781 258.613281 577.9375 259.453125 577.886719 260.292969 C 577.839844 261.136719 577.726562 261.96875 577.554688 262.792969 C 577.382812 263.617188 577.152344 264.425781 576.863281 265.214844 C 576.570312 266.003906 576.222656 266.769531 575.820312 267.507812 C 575.414062 268.25 574.960938 268.953125 574.453125 269.625 C 573.941406 270.296875 573.386719 270.929688 572.789062 271.519531 C 572.1875 272.109375 571.542969 272.652344 570.863281 273.144531 C 570.183594 273.640625 569.46875 274.082031 568.722656 274.472656 C 567.976562 274.863281 567.203125 275.195312 566.40625 275.472656 C 565.613281 275.75 564.800781 275.964844 563.972656 276.121094 C 563.144531 276.277344 562.3125 276.371094 561.46875 276.40625 C 561.238281 276.421875 561 276.425781 560.769531 276.425781 Z M 560.769531 276.425781 " fill-opacity="1" fill-rule="nonzero"/><path fill="#ff5757" d="M 593.421875 262.140625 C 593.125 262.140625 592.886719 262.023438 592.710938 261.78125 C 587.699219 254.972656 582.082031 248.714844 575.855469 243 C 575.671875 242.832031 575.578125 242.625 575.566406 242.378906 C 575.554688 242.132812 575.632812 241.921875 575.800781 241.738281 C 575.964844 241.554688 576.171875 241.460938 576.417969 241.449219 C 576.664062 241.4375 576.878906 241.515625 577.0625 241.683594 C 583.375 247.476562 589.066406 253.824219 594.144531 260.726562 C 594.363281 261.019531 594.390625 261.332031 594.226562 261.660156 C 594.0625 261.988281 593.796875 262.152344 593.429688 262.152344 Z M 593.421875 262.140625 " fill-opacity="1" fill-rule="nonzero"/><path fill="#ff5757" d="M 594.054688 260.578125 C 593.757812 260.574219 593.519531 260.457031 593.339844 260.21875 C 588.421875 253.59375 582.925781 247.492188 576.84375 241.914062 C 576.75 241.835938 576.679688 241.742188 576.625 241.632812 C 576.570312 241.527344 576.539062 241.410156 576.53125 241.289062 C 576.523438 241.167969 576.542969 241.050781 576.582031 240.9375 C 576.621094 240.824219 576.683594 240.722656 576.765625 240.632812 C 576.847656 240.542969 576.945312 240.476562 577.054688 240.425781 C 577.164062 240.375 577.28125 240.347656 577.402344 240.34375 C 577.523438 240.34375 577.636719 240.363281 577.75 240.40625 C 577.863281 240.453125 577.960938 240.515625 578.046875 240.601562 C 584.210938 246.253906 589.785156 252.4375 594.773438 259.148438 C 594.996094 259.441406 595.023438 259.753906 594.859375 260.082031 C 594.695312 260.410156 594.429688 260.574219 594.0625 260.574219 Z M 594.054688 260.578125 " fill-opacity="1" fill-rule="nonzero"/><path fill="#ff5757" d="M 524.417969 354.34375 C 524.1875 354.34375 523.984375 354.261719 523.816406 354.101562 L 496.519531 328.90625 C 496.339844 328.742188 496.242188 328.535156 496.234375 328.289062 C 496.222656 328.042969 496.300781 327.828125 496.46875 327.648438 C 496.636719 327.464844 496.84375 327.371094 497.085938 327.359375 C 497.332031 327.351562 497.546875 327.429688 497.730469 327.59375 L 525.023438 352.792969 C 525.15625 352.917969 525.246094 353.070312 525.285156 353.25 C 525.328125 353.429688 525.316406 353.605469 525.25 353.777344 C 525.179688 353.945312 525.070312 354.085938 524.917969 354.1875 C 524.765625 354.292969 524.597656 354.34375 524.414062 354.34375 Z M 524.417969 354.34375 " fill-opacity="1" fill-rule="nonzero"/><path fill="#ff5757" d="M 494.753906 373.910156 C 494.519531 373.910156 494.320312 373.832031 494.148438 373.675781 L 473.105469 354.261719 C 472.925781 354.09375 472.832031 353.886719 472.820312 353.640625 C 472.808594 353.394531 472.886719 353.179688 473.054688 353 C 473.222656 352.816406 473.429688 352.722656 473.675781 352.710938 C 473.921875 352.703125 474.132812 352.78125 474.316406 352.949219 L 494.496094 371.578125 L 499.089844 362.910156 L 480.75 345.980469 C 480.566406 345.8125 480.472656 345.605469 480.460938 345.359375 C 480.453125 345.113281 480.53125 344.898438 480.699219 344.71875 C 480.867188 344.535156 481.074219 344.441406 481.320312 344.429688 C 481.566406 344.421875 481.78125 344.503906 481.960938 344.671875 L 500.800781 362.0625 C 500.949219 362.199219 501.039062 362.367188 501.074219 362.566406 C 501.109375 362.765625 501.078125 362.953125 500.980469 363.132812 L 495.523438 373.433594 C 495.386719 373.691406 495.175781 373.84375 494.890625 373.894531 Z M 494.753906 373.910156 " fill-opacity="1" fill-rule="nonzero"/><path fill="#ff5757" d="M 484.699219 379.960938 C 484.464844 379.964844 484.261719 379.882812 484.089844 379.726562 L 465.476562 362.539062 C 465.382812 362.457031 465.308594 362.363281 465.253906 362.257812 C 465.203125 362.148438 465.171875 362.03125 465.164062 361.914062 C 465.15625 361.792969 465.171875 361.671875 465.214844 361.558594 C 465.253906 361.445312 465.316406 361.34375 465.398438 361.253906 C 465.480469 361.164062 465.578125 361.097656 465.6875 361.046875 C 465.800781 360.996094 465.914062 360.96875 466.035156 360.96875 C 466.15625 360.964844 466.273438 360.988281 466.386719 361.03125 C 466.5 361.078125 466.597656 361.144531 466.683594 361.230469 L 484.476562 377.65625 L 489.28125 369.179688 L 473.117188 354.261719 C 472.9375 354.09375 472.839844 353.886719 472.832031 353.640625 C 472.820312 353.394531 472.898438 353.179688 473.066406 353 C 473.234375 352.816406 473.4375 352.722656 473.6875 352.710938 C 473.933594 352.703125 474.144531 352.78125 474.328125 352.949219 L 491.007812 368.347656 C 491.160156 368.488281 491.253906 368.660156 491.285156 368.863281 C 491.316406 369.070312 491.28125 369.261719 491.175781 369.441406 L 485.472656 379.507812 C 485.332031 379.761719 485.117188 379.910156 484.832031 379.953125 C 484.789062 379.957031 484.742188 379.960938 484.699219 379.960938 Z M 484.699219 379.960938 " fill-opacity="1" fill-rule="nonzero"/><path fill="#ff5757" d="M 481.378906 477.363281 L 272.179688 477.363281 C 271.570312 477.363281 270.960938 477.332031 270.355469 477.273438 C 269.75 477.214844 269.148438 477.125 268.550781 477.003906 C 267.953125 476.882812 267.359375 476.734375 266.777344 476.558594 C 266.195312 476.382812 265.621094 476.175781 265.058594 475.941406 C 264.496094 475.707031 263.945312 475.449219 263.410156 475.160156 C 262.871094 474.875 262.351562 474.558594 261.84375 474.222656 C 261.335938 473.882812 260.847656 473.519531 260.375 473.132812 C 259.90625 472.746094 259.453125 472.339844 259.023438 471.90625 C 258.59375 471.476562 258.183594 471.023438 257.796875 470.554688 C 257.410156 470.082031 257.046875 469.59375 256.710938 469.089844 C 256.371094 468.582031 256.058594 468.058594 255.769531 467.523438 C 255.484375 466.984375 255.222656 466.433594 254.988281 465.871094 C 254.753906 465.308594 254.550781 464.734375 254.371094 464.152344 C 254.195312 463.570312 254.046875 462.980469 253.925781 462.382812 C 253.808594 461.785156 253.71875 461.183594 253.65625 460.574219 C 253.597656 459.96875 253.566406 459.363281 253.566406 458.753906 L 253.566406 334.890625 C 253.566406 334.765625 253.59375 334.640625 253.644531 334.527344 C 253.699219 334.410156 253.773438 334.308594 253.867188 334.226562 C 253.964844 334.140625 254.074219 334.078125 254.195312 334.042969 C 254.316406 334.003906 254.441406 333.992188 254.566406 334.007812 C 263.484375 335.078125 270.863281 338.324219 275.914062 343.351562 C 282.367188 349.769531 283.402344 357.667969 284.515625 366.023438 C 285.738281 375.292969 287.011719 384.890625 295.265625 394.730469 C 304.289062 405.476562 316.015625 409.796875 319.921875 410.371094 C 319.246094 409.84375 318.277344 409.15625 317.332031 408.484375 C 310.640625 403.742188 298.195312 394.914062 296.984375 382.003906 C 296.398438 375.738281 298.464844 368.6875 302.660156 362.65625 C 307.171875 356.167969 313.507812 351.796875 320.492188 350.347656 C 328.058594 348.773438 337.199219 350.644531 343.777344 355.101562 C 347.820312 357.839844 350.375 361.222656 350.980469 364.613281 C 351.644531 368.382812 349.796875 371.25 347.835938 374.285156 C 345.78125 377.472656 343.652344 380.773438 343.953125 385.660156 C 344.335938 391.828125 348.445312 397.453125 352.34375 400.28125 C 359.511719 405.511719 370.988281 404.890625 386.449219 398.441406 C 398.769531 393.308594 409.558594 386.132812 413.105469 383.773438 C 427.320312 374.324219 439.730469 362.019531 449.992188 347.183594 C 450.0625 347.078125 450.15625 346.992188 450.265625 346.925781 C 450.378906 346.859375 450.496094 346.820312 450.625 346.808594 C 450.753906 346.792969 450.878906 346.804688 451 346.847656 C 451.125 346.886719 451.234375 346.949219 451.328125 347.039062 L 481.789062 375.191406 C 481.953125 375.34375 482.050781 375.535156 482.070312 375.761719 C 482.089844 375.988281 482.035156 376.191406 481.898438 376.375 C 464.089844 400.363281 451.941406 418.8125 445.730469 431.171875 C 439.792969 443.023438 440.320312 447.289062 441.804688 448.785156 C 443.617188 450.605469 448.003906 449.453125 453.082031 448.109375 C 460.769531 446.085938 470.339844 443.5625 478.113281 449.125 C 484.40625 453.625 487.976562 462.261719 486.417969 469.210938 C 485.792969 472.003906 484.316406 474.65625 482.03125 477.101562 C 481.851562 477.28125 481.636719 477.371094 481.378906 477.363281 Z M 255.347656 335.921875 L 255.347656 458.753906 C 255.351562 459.304688 255.378906 459.851562 255.433594 460.402344 C 255.488281 460.949219 255.566406 461.496094 255.675781 462.035156 C 255.785156 462.574219 255.917969 463.109375 256.078125 463.636719 C 256.238281 464.164062 256.425781 464.679688 256.636719 465.191406 C 256.847656 465.699219 257.082031 466.195312 257.339844 466.683594 C 257.601562 467.167969 257.882812 467.640625 258.191406 468.097656 C 258.496094 468.554688 258.824219 469 259.175781 469.425781 C 259.523438 469.851562 259.894531 470.257812 260.285156 470.648438 C 260.671875 471.035156 261.082031 471.40625 261.507812 471.757812 C 261.933594 472.105469 262.375 472.433594 262.832031 472.738281 C 263.289062 473.046875 263.761719 473.328125 264.25 473.589844 C 264.734375 473.847656 265.230469 474.085938 265.742188 474.296875 C 266.25 474.507812 266.769531 474.691406 267.296875 474.851562 C 267.824219 475.011719 268.355469 475.148438 268.898438 475.253906 C 269.4375 475.363281 269.980469 475.445312 270.53125 475.5 C 271.078125 475.554688 271.628906 475.582031 272.179688 475.582031 L 480.992188 475.582031 C 482.90625 473.441406 484.148438 471.175781 484.683594 468.804688 C 486.066406 462.613281 482.730469 454.597656 477.078125 450.558594 C 469.988281 445.480469 460.867188 447.886719 453.542969 449.820312 C 447.699219 451.359375 443.082031 452.574219 440.546875 450.027344 C 437.742188 447.207031 438.917969 440.769531 444.136719 430.355469 C 450.320312 418.003906 462.382812 399.683594 479.992188 375.941406 L 450.871094 349.066406 C 440.59375 363.6875 428.226562 375.886719 414.09375 385.285156 C 401.355469 393.753906 380.652344 405.613281 364.550781 405.613281 C 359.554688 405.613281 355.023438 404.480469 351.292969 401.757812 C 347.054688 398.671875 342.59375 392.539062 342.175781 385.792969 C 341.835938 380.320312 344.226562 376.609375 346.339844 373.339844 C 348.175781 370.488281 349.765625 368.027344 349.222656 364.945312 C 348.707031 362.03125 346.417969 359.066406 342.777344 356.597656 C 336.578125 352.398438 327.972656 350.636719 320.851562 352.113281 C 306.878906 355.011719 297.671875 370.207031 298.742188 381.859375 C 299.878906 393.953125 311.890625 402.472656 318.355469 407.050781 C 321.828125 409.511719 323.125 410.4375 322.332031 411.613281 C 321.984375 412.035156 321.535156 412.234375 320.992188 412.21875 C 317.460938 412.394531 303.78125 407.671875 293.886719 395.898438 C 285.292969 385.660156 283.929688 375.363281 282.730469 366.273438 C 281.621094 357.886719 280.667969 350.640625 274.640625 344.636719 C 270.078125 340.066406 263.417969 337.066406 255.347656 335.921875 Z M 485.550781 468.984375 Z M 485.550781 468.984375 " fill-opacity="1" fill-rule="nonzero"/><g clip-path="url(#cdfba1c2b0)"><path fill="#ff5757" d="M 228.9375 93.566406 C 228.691406 93.566406 228.480469 93.476562 228.304688 93.300781 C 228.132812 93.125 228.046875 92.914062 228.046875 92.667969 C 228.046875 92.570312 228.0625 92.472656 228.09375 92.375 L 228.09375 92.332031 C 228.441406 91.359375 228.6875 90.359375 228.835938 89.335938 C 228.984375 88.308594 229.03125 87.28125 228.976562 86.246094 C 228.921875 85.214844 228.769531 84.195312 228.515625 83.195312 C 228.257812 82.191406 227.910156 81.222656 227.464844 80.289062 C 227.019531 79.351562 226.488281 78.472656 225.871094 77.640625 C 225.253906 76.8125 224.558594 76.050781 223.792969 75.355469 C 223.023438 74.664062 222.195312 74.050781 221.308594 73.519531 C 220.417969 72.988281 219.488281 72.550781 218.511719 72.203125 C 218.296875 72.109375 218.140625 71.957031 218.046875 71.738281 C 217.949219 71.523438 217.941406 71.304688 218.023438 71.082031 C 218.101562 70.859375 218.246094 70.695312 218.457031 70.585938 C 218.667969 70.480469 218.886719 70.460938 219.113281 70.527344 C 220.089844 70.871094 221.089844 71.121094 222.113281 71.269531 C 223.140625 71.421875 224.171875 71.46875 225.207031 71.417969 C 226.242188 71.363281 227.261719 71.210938 228.265625 70.957031 C 229.269531 70.703125 230.242188 70.355469 231.175781 69.914062 C 232.113281 69.46875 232.996094 68.9375 233.828125 68.320312 C 234.660156 67.703125 235.425781 67.007812 236.121094 66.238281 C 236.816406 65.472656 237.429688 64.644531 237.964844 63.753906 C 238.496094 62.867188 238.9375 61.933594 239.285156 60.957031 C 239.359375 60.753906 239.492188 60.597656 239.675781 60.492188 C 239.863281 60.382812 240.0625 60.347656 240.277344 60.382812 C 240.488281 60.421875 240.664062 60.519531 240.804688 60.6875 C 240.945312 60.851562 241.015625 61.042969 241.015625 61.257812 C 241.015625 61.359375 241 61.460938 240.964844 61.558594 C 240.621094 62.53125 240.371094 63.535156 240.21875 64.558594 C 240.070312 65.585938 240.019531 66.613281 240.074219 67.648438 C 240.125 68.683594 240.277344 69.703125 240.53125 70.710938 C 240.785156 71.714844 241.132812 72.683594 241.578125 73.621094 C 242.019531 74.558594 242.550781 75.441406 243.171875 76.273438 C 243.789062 77.105469 244.480469 77.871094 245.25 78.566406 C 246.015625 79.261719 246.84375 79.875 247.734375 80.40625 C 248.625 80.941406 249.554688 81.382812 250.53125 81.730469 C 250.761719 81.8125 250.929688 81.96875 251.035156 82.1875 C 251.140625 82.410156 251.152344 82.636719 251.070312 82.871094 C 250.988281 83.101562 250.835938 83.269531 250.613281 83.375 C 250.390625 83.480469 250.164062 83.492188 249.933594 83.410156 C 248.957031 83.0625 247.953125 82.816406 246.929688 82.664062 C 245.90625 82.515625 244.875 82.46875 243.839844 82.519531 C 242.804688 82.570312 241.785156 82.726562 240.78125 82.976562 C 239.777344 83.230469 238.804688 83.578125 237.871094 84.023438 C 236.933594 84.46875 236.050781 85 235.21875 85.617188 C 234.386719 86.234375 233.621094 86.925781 232.925781 87.695312 C 232.230469 88.460938 231.617188 89.289062 231.085938 90.179688 C 230.550781 91.066406 230.109375 92 229.761719 92.976562 C 229.699219 93.152344 229.59375 93.292969 229.441406 93.402344 C 229.292969 93.507812 229.121094 93.566406 228.9375 93.566406 Z M 224.054688 73.222656 C 225.128906 74.066406 226.09375 75.019531 226.949219 76.089844 C 227.800781 77.15625 228.523438 78.308594 229.109375 79.542969 C 229.695312 80.777344 230.128906 82.0625 230.417969 83.402344 C 230.703125 84.738281 230.832031 86.089844 230.804688 87.457031 C 231.652344 86.382812 232.605469 85.417969 233.675781 84.566406 C 234.742188 83.714844 235.894531 83 237.128906 82.414062 C 238.363281 81.828125 239.644531 81.390625 240.980469 81.105469 C 242.316406 80.816406 243.667969 80.6875 245.03125 80.710938 C 243.957031 79.867188 242.992188 78.914062 242.136719 77.84375 C 241.285156 76.777344 240.566406 75.625 239.980469 74.390625 C 239.394531 73.15625 238.957031 71.871094 238.671875 70.53125 C 238.382812 69.195312 238.253906 67.84375 238.28125 66.476562 C 237.4375 67.550781 236.480469 68.515625 235.414062 69.367188 C 234.347656 70.21875 233.195312 70.9375 231.960938 71.523438 C 230.726562 72.109375 229.441406 72.546875 228.105469 72.832031 C 226.769531 73.117188 225.421875 73.25 224.054688 73.222656 Z M 224.054688 73.222656 " fill-opacity="1" fill-rule="nonzero"/></g><path fill="#ff5757" d="M 785.886719 108.34375 L 787.667969 108.34375 L 787.667969 117.328125 L 785.886719 117.328125 Z M 785.886719 108.34375 " fill-opacity="1" fill-rule="nonzero"/><path fill="#ff5757" d="M 778.035156 110.921875 L 779.578125 110.03125 L 784.070312 117.808594 L 782.527344 118.703125 Z M 778.035156 110.921875 " fill-opacity="1" fill-rule="nonzero"/><path fill="#ff5757" d="M 772.542969 117.09375 L 773.433594 115.550781 L 781.214844 120.042969 L 780.324219 121.585938 Z M 772.542969 117.09375 " fill-opacity="1" fill-rule="nonzero"/><path fill="#ff5757" d="M 770.839844 123.390625 L 779.824219 123.390625 L 779.824219 125.171875 L 770.839844 125.171875 Z M 770.839844 123.390625 " fill-opacity="1" fill-rule="nonzero"/><path fill="#ff5757" d="M 772.53125 131.484375 L 780.308594 126.992188 L 781.199219 128.535156 L 773.421875 133.027344 Z M 772.53125 131.484375 " fill-opacity="1" fill-rule="nonzero"/><path fill="#ff5757" d="M 778.035156 137.636719 L 782.527344 129.855469 L 784.070312 130.746094 L 779.578125 138.527344 Z M 778.035156 137.636719 " fill-opacity="1" fill-rule="nonzero"/><path fill="#ff5757" d="M 785.886719 131.234375 L 787.667969 131.234375 L 787.667969 140.21875 L 785.886719 140.21875 Z M 785.886719 131.234375 " fill-opacity="1" fill-rule="nonzero"/><path fill="#ff5757" d="M 789.480469 130.742188 L 791.023438 129.851562 L 795.515625 137.632812 L 793.972656 138.523438 Z M 789.480469 130.742188 " fill-opacity="1" fill-rule="nonzero"/><path fill="#ff5757" d="M 792.351562 128.527344 L 793.242188 126.980469 L 801.023438 131.472656 L 800.132812 133.019531 Z M 792.351562 128.527344 " fill-opacity="1" fill-rule="nonzero"/><path fill="#ff5757" d="M 793.734375 123.390625 L 802.71875 123.390625 L 802.71875 125.171875 L 793.734375 125.171875 Z M 793.734375 123.390625 " fill-opacity="1" fill-rule="nonzero"/><path fill="#ff5757" d="M 792.359375 120.03125 L 800.136719 115.539062 L 801.03125 117.082031 L 793.25 121.574219 Z M 792.359375 120.03125 " fill-opacity="1" fill-rule="nonzero"/><path fill="#ff5757" d="M 789.480469 117.808594 L 793.972656 110.027344 L 795.515625 110.917969 L 791.027344 118.699219 Z M 789.480469 117.808594 " fill-opacity="1" fill-rule="nonzero"/><g clip-path="url(#6e918452ee)"><path fill="#ff5757" d="M 224.574219 515.671875 C 224.328125 515.671875 224.117188 515.585938 223.945312 515.410156 C 223.773438 515.234375 223.683594 515.023438 223.683594 514.777344 C 223.683594 514.53125 223.773438 514.324219 223.945312 514.148438 L 246.367188 491.726562 C 246.539062 491.550781 246.75 491.464844 246.996094 491.464844 C 247.242188 491.464844 247.453125 491.550781 247.628906 491.726562 C 247.800781 491.902344 247.890625 492.109375 247.890625 492.359375 C 247.890625 492.605469 247.800781 492.816406 247.628906 492.988281 L 225.207031 515.410156 C 225.03125 515.585938 224.820312 515.671875 224.574219 515.671875 Z M 224.574219 515.671875 " fill-opacity="1" fill-rule="nonzero"/></g><path fill="#ff5757" d="M 247.269531 509.996094 C 247.023438 509.996094 246.8125 509.910156 246.636719 509.734375 C 246.464844 509.5625 246.375 509.351562 246.375 509.105469 L 246.375 492.992188 L 230.265625 492.992188 C 230.019531 492.992188 229.808594 492.90625 229.632812 492.730469 C 229.460938 492.558594 229.371094 492.347656 229.371094 492.101562 C 229.371094 491.855469 229.460938 491.644531 229.632812 491.46875 C 229.808594 491.296875 230.019531 491.210938 230.265625 491.210938 L 247.269531 491.210938 C 247.515625 491.210938 247.722656 491.296875 247.898438 491.46875 C 248.074219 491.644531 248.160156 491.855469 248.160156 492.101562 L 248.160156 509.105469 C 248.160156 509.351562 248.074219 509.5625 247.898438 509.734375 C 247.722656 509.910156 247.515625 509.996094 247.269531 509.996094 Z M 247.269531 509.996094 " fill-opacity="1" fill-rule="nonzero"/><path fill="#ff5757" d="M 295.671875 130.324219 C 295.671875 130.902344 295.617188 131.472656 295.503906 132.039062 C 295.390625 132.605469 295.226562 133.15625 295.003906 133.691406 C 294.785156 134.222656 294.511719 134.730469 294.191406 135.210938 C 293.871094 135.6875 293.507812 136.132812 293.097656 136.542969 C 292.691406 136.949219 292.246094 137.3125 291.765625 137.636719 C 291.285156 137.957031 290.78125 138.226562 290.246094 138.445312 C 289.714844 138.667969 289.164062 138.835938 288.597656 138.949219 C 288.03125 139.058594 287.460938 139.117188 286.882812 139.117188 C 286.304688 139.117188 285.734375 139.058594 285.167969 138.949219 C 284.601562 138.835938 284.050781 138.667969 283.519531 138.445312 C 282.984375 138.226562 282.476562 137.957031 282 137.636719 C 281.519531 137.3125 281.074219 136.949219 280.667969 136.542969 C 280.257812 136.132812 279.894531 135.6875 279.574219 135.210938 C 279.253906 134.730469 278.980469 134.222656 278.761719 133.691406 C 278.539062 133.15625 278.371094 132.605469 278.261719 132.039062 C 278.148438 131.472656 278.089844 130.902344 278.089844 130.324219 C 278.089844 129.75 278.148438 129.175781 278.261719 128.609375 C 278.371094 128.042969 278.539062 127.496094 278.761719 126.960938 C 278.980469 126.429688 279.253906 125.921875 279.574219 125.441406 C 279.894531 124.960938 280.257812 124.515625 280.667969 124.109375 C 281.074219 123.703125 281.519531 123.335938 282 123.015625 C 282.476562 122.695312 282.984375 122.425781 283.519531 122.203125 C 284.050781 121.984375 284.601562 121.816406 285.167969 121.703125 C 285.734375 121.589844 286.304688 121.535156 286.882812 121.535156 C 287.460938 121.535156 288.03125 121.589844 288.597656 121.703125 C 289.164062 121.816406 289.714844 121.984375 290.246094 122.203125 C 290.78125 122.425781 291.285156 122.695312 291.765625 123.015625 C 292.246094 123.335938 292.691406 123.703125 293.097656 124.109375 C 293.507812 124.515625 293.871094 124.960938 294.191406 125.441406 C 294.511719 125.921875 294.785156 126.429688 295.003906 126.960938 C 295.226562 127.496094 295.390625 128.042969 295.503906 128.609375 C 295.617188 129.175781 295.671875 129.75 295.671875 130.324219 Z M 295.671875 130.324219 " fill-opacity="1" fill-rule="nonzero"/><path fill="#ff5757" d="M 318.421875 130.324219 C 318.421875 130.902344 318.367188 131.472656 318.253906 132.039062 C 318.140625 132.605469 317.972656 133.15625 317.753906 133.691406 C 317.53125 134.222656 317.261719 134.730469 316.941406 135.210938 C 316.621094 135.6875 316.257812 136.132812 315.847656 136.542969 C 315.441406 136.949219 314.996094 137.3125 314.515625 137.636719 C 314.035156 137.957031 313.527344 138.226562 312.996094 138.445312 C 312.460938 138.667969 311.914062 138.835938 311.347656 138.949219 C 310.78125 139.058594 310.207031 139.117188 309.632812 139.117188 C 309.054688 139.117188 308.484375 139.058594 307.917969 138.949219 C 307.351562 138.835938 306.800781 138.667969 306.269531 138.445312 C 305.734375 138.226562 305.226562 137.957031 304.746094 137.636719 C 304.269531 137.3125 303.824219 136.949219 303.414062 136.542969 C 303.007812 136.132812 302.644531 135.6875 302.324219 135.210938 C 302 134.730469 301.730469 134.222656 301.511719 133.691406 C 301.289062 133.15625 301.121094 132.605469 301.007812 132.039062 C 300.898438 131.472656 300.839844 130.902344 300.839844 130.324219 C 300.839844 129.75 300.898438 129.175781 301.007812 128.609375 C 301.121094 128.042969 301.289062 127.496094 301.511719 126.960938 C 301.730469 126.429688 302 125.921875 302.324219 125.441406 C 302.644531 124.960938 303.007812 124.515625 303.414062 124.109375 C 303.824219 123.703125 304.269531 123.335938 304.746094 123.015625 C 305.226562 122.695312 305.734375 122.425781 306.269531 122.203125 C 306.800781 121.984375 307.351562 121.816406 307.917969 121.703125 C 308.484375 121.589844 309.054688 121.535156 309.632812 121.535156 C 310.207031 121.535156 310.78125 121.589844 311.347656 121.703125 C 311.914062 121.816406 312.460938 121.984375 312.996094 122.203125 C 313.527344 122.425781 314.035156 122.695312 314.515625 123.015625 C 314.996094 123.335938 315.441406 123.703125 315.847656 124.109375 C 316.257812 124.515625 316.621094 124.960938 316.941406 125.441406 C 317.261719 125.921875 317.53125 126.429688 317.753906 126.960938 C 317.972656 127.496094 318.140625 128.042969 318.253906 128.609375 C 318.367188 129.175781 318.421875 129.75 318.421875 130.324219 Z M 318.421875 130.324219 " fill-opacity="1" fill-rule="nonzero"/><path fill="#ff5757" d="M 341.171875 130.324219 C 341.171875 130.902344 341.117188 131.472656 341.003906 132.039062 C 340.890625 132.605469 340.722656 133.15625 340.503906 133.691406 C 340.28125 134.222656 340.011719 134.730469 339.691406 135.210938 C 339.371094 135.6875 339.003906 136.132812 338.597656 136.542969 C 338.1875 136.949219 337.746094 137.3125 337.265625 137.636719 C 336.785156 137.957031 336.277344 138.226562 335.746094 138.445312 C 335.210938 138.667969 334.664062 138.835938 334.097656 138.949219 C 333.53125 139.058594 332.957031 139.117188 332.382812 139.117188 C 331.804688 139.117188 331.230469 139.058594 330.667969 138.949219 C 330.101562 138.835938 329.550781 138.667969 329.015625 138.445312 C 328.484375 138.226562 327.976562 137.957031 327.496094 137.636719 C 327.015625 137.3125 326.574219 136.949219 326.164062 136.542969 C 325.757812 136.132812 325.390625 135.6875 325.070312 135.210938 C 324.75 134.730469 324.480469 134.222656 324.257812 133.691406 C 324.039062 133.15625 323.871094 132.605469 323.757812 132.039062 C 323.648438 131.472656 323.589844 130.902344 323.589844 130.324219 C 323.589844 129.75 323.648438 129.175781 323.757812 128.609375 C 323.871094 128.042969 324.039062 127.496094 324.257812 126.960938 C 324.480469 126.429688 324.75 125.921875 325.070312 125.441406 C 325.390625 124.960938 325.757812 124.515625 326.164062 124.109375 C 326.574219 123.703125 327.015625 123.335938 327.496094 123.015625 C 327.976562 122.695312 328.484375 122.425781 329.015625 122.203125 C 329.550781 121.984375 330.101562 121.816406 330.667969 121.703125 C 331.230469 121.589844 331.804688 121.535156 332.382812 121.535156 C 332.957031 121.535156 333.53125 121.589844 334.097656 121.703125 C 334.664062 121.816406 335.210938 121.984375 335.746094 122.203125 C 336.277344 122.425781 336.785156 122.695312 337.265625 123.015625 C 337.746094 123.335938 338.1875 123.703125 338.597656 124.109375 C 339.003906 124.515625 339.371094 124.960938 339.691406 125.441406 C 340.011719 125.921875 340.28125 126.429688 340.503906 126.960938 C 340.722656 127.496094 340.890625 128.042969 341.003906 128.609375 C 341.117188 129.175781 341.171875 129.75 341.171875 130.324219 Z M 341.171875 130.324219 " fill-opacity="1" fill-rule="nonzero"/><path fill="#ff5757" d="M 385.65625 312.273438 L 254.457031 312.273438 C 254.210938 312.273438 254 312.1875 253.828125 312.011719 C 253.652344 311.839844 253.566406 311.628906 253.566406 311.382812 C 253.566406 311.136719 253.652344 310.925781 253.828125 310.753906 C 254 310.578125 254.210938 310.492188 254.457031 310.492188 L 372.894531 310.492188 C 344.296875 306.335938 322.648438 302.179688 308.4375 298.113281 C 293.578125 293.859375 286.660156 289.777344 286.683594 285.273438 C 286.683594 283.824219 287.449219 282.402344 288.25 280.902344 C 289.449219 278.652344 290.8125 276.105469 290.074219 272.800781 C 289.101562 268.457031 284.84375 263.664062 278.863281 263.34375 C 277.609375 263.292969 276.375 263.425781 275.160156 263.746094 C 273.949219 264.066406 272.808594 264.558594 271.746094 265.226562 C 270.683594 265.890625 269.742188 266.699219 268.921875 267.648438 C 268.101562 268.597656 267.441406 269.648438 266.941406 270.796875 C 266.863281 270.972656 266.742188 271.105469 266.582031 271.203125 C 266.417969 271.300781 266.242188 271.339844 266.054688 271.324219 C 265.867188 271.308594 265.699219 271.242188 265.554688 271.121094 C 265.410156 271 265.3125 270.847656 265.261719 270.667969 C 264.957031 269.515625 262.019531 259.210938 253.898438 252.476562 C 253.707031 252.320312 253.597656 252.121094 253.574219 251.875 C 253.550781 251.628906 253.617188 251.410156 253.773438 251.21875 C 253.933594 251.027344 254.136719 250.921875 254.382812 250.898438 C 254.628906 250.878906 254.847656 250.945312 255.035156 251.105469 C 261.695312 256.613281 265.019531 264.398438 266.339844 268.136719 C 267.007812 267.082031 267.800781 266.128906 268.722656 265.285156 C 269.640625 264.4375 270.65625 263.726562 271.761719 263.144531 C 272.871094 262.566406 274.035156 262.144531 275.253906 261.871094 C 276.476562 261.601562 277.710938 261.496094 278.957031 261.550781 C 285.8125 261.90625 290.699219 267.414062 291.796875 272.398438 C 292.679688 276.347656 291.082031 279.328125 289.808594 281.726562 C 289.097656 283.085938 288.457031 284.257812 288.453125 285.265625 C 288.453125 287.664062 291.988281 291.542969 308.921875 296.390625 C 325.074219 301.027344 350.929688 305.757812 385.769531 310.492188 C 386.015625 310.507812 386.21875 310.609375 386.382812 310.796875 C 386.542969 310.980469 386.617188 311.195312 386.597656 311.441406 C 386.582031 311.6875 386.480469 311.894531 386.296875 312.054688 C 386.109375 312.21875 385.894531 312.289062 385.648438 312.273438 Z M 385.65625 312.273438 " fill-opacity="1" fill-rule="nonzero"/><path fill="#ff5757" d="M 524.367188 477.367188 C 524.300781 477.367188 524.230469 477.359375 524.160156 477.34375 C 523.921875 477.285156 523.738281 477.15625 523.609375 476.945312 C 523.480469 476.738281 523.441406 476.511719 523.5 476.273438 C 526.785156 462.410156 529.375 451.6875 531.195312 444.402344 C 532.179688 440.441406 532.960938 437.410156 533.511719 435.386719 C 533.804688 434.316406 534.039062 433.515625 534.226562 432.980469 C 534.464844 432.238281 534.738281 431.394531 535.609375 431.59375 C 535.738281 431.628906 535.855469 431.683594 535.960938 431.765625 C 536.066406 431.84375 536.152344 431.941406 536.21875 432.054688 C 536.289062 432.171875 536.328125 432.292969 536.347656 432.425781 C 536.367188 432.558594 536.355469 432.6875 536.324219 432.816406 C 533.683594 450.328125 531.808594 465.050781 530.75 476.558594 C 530.726562 476.804688 530.621094 477.007812 530.429688 477.164062 C 530.242188 477.324219 530.023438 477.390625 529.777344 477.371094 C 529.53125 477.347656 529.328125 477.242188 529.171875 477.050781 C 529.011719 476.863281 528.945312 476.644531 528.964844 476.398438 C 529.734375 468.03125 530.929688 457.980469 532.53125 446.398438 C 530.890625 453.03125 528.546875 462.710938 525.234375 476.683594 C 525.1875 476.882812 525.082031 477.046875 524.921875 477.175781 C 524.757812 477.304688 524.574219 477.367188 524.367188 477.367188 Z M 534.542969 432.535156 Z M 534.542969 432.535156 " fill-opacity="1" fill-rule="nonzero"/><path fill="#ff5757" d="M 739.109375 162.085938 L 748.429688 162.085938 C 748.578125 162.085938 748.722656 162.117188 748.863281 162.171875 C 749.003906 162.230469 749.125 162.3125 749.234375 162.421875 C 749.339844 162.527344 749.421875 162.648438 749.480469 162.789062 C 749.535156 162.929688 749.566406 163.074219 749.566406 163.222656 L 749.566406 172.542969 C 749.566406 172.695312 749.535156 172.839844 749.480469 172.980469 C 749.421875 173.117188 749.339844 173.242188 749.234375 173.347656 C 749.125 173.453125 749.003906 173.535156 748.863281 173.59375 C 748.722656 173.652344 748.578125 173.679688 748.429688 173.679688 L 739.109375 173.679688 C 738.957031 173.679688 738.8125 173.652344 738.675781 173.59375 C 738.535156 173.535156 738.410156 173.453125 738.304688 173.347656 C 738.199219 173.242188 738.117188 173.117188 738.058594 172.980469 C 738 172.839844 737.972656 172.695312 737.972656 172.542969 L 737.972656 163.222656 C 737.972656 163.074219 738 162.929688 738.058594 162.789062 C 738.117188 162.648438 738.199219 162.527344 738.304688 162.421875 C 738.410156 162.3125 738.535156 162.230469 738.675781 162.171875 C 738.8125 162.117188 738.957031 162.085938 739.109375 162.085938 Z M 739.109375 162.085938 " fill-opacity="1" fill-rule="nonzero"/><path fill="#ff5757" d="M 732.535156 174.574219 L 723.222656 174.574219 C 722.953125 174.574219 722.691406 174.523438 722.445312 174.421875 C 722.195312 174.316406 721.976562 174.171875 721.785156 173.980469 C 721.59375 173.789062 721.449219 173.570312 721.34375 173.320312 C 721.242188 173.070312 721.191406 172.8125 721.1875 172.542969 L 721.1875 163.226562 C 721.191406 162.957031 721.242188 162.699219 721.34375 162.449219 C 721.449219 162.203125 721.59375 161.980469 721.785156 161.792969 C 721.976562 161.601562 722.195312 161.453125 722.445312 161.351562 C 722.691406 161.246094 722.953125 161.195312 723.222656 161.195312 L 732.535156 161.195312 C 732.804688 161.195312 733.066406 161.246094 733.3125 161.351562 C 733.5625 161.453125 733.78125 161.601562 733.972656 161.792969 C 734.164062 161.980469 734.3125 162.203125 734.414062 162.449219 C 734.515625 162.699219 734.570312 162.957031 734.570312 163.226562 L 734.570312 172.542969 C 734.570312 172.8125 734.515625 173.070312 734.414062 173.320312 C 734.3125 173.570312 734.164062 173.789062 733.972656 173.980469 C 733.78125 174.171875 733.5625 174.316406 733.3125 174.421875 C 733.066406 174.523438 732.804688 174.574219 732.535156 174.574219 Z M 723.222656 162.996094 C 723.058594 163 722.972656 163.082031 722.972656 163.246094 L 722.972656 172.5625 C 722.972656 172.726562 723.058594 172.808594 723.222656 172.8125 L 732.535156 172.8125 C 732.699219 172.808594 732.785156 172.726562 732.785156 172.5625 L 732.785156 163.226562 C 732.785156 163.0625 732.699219 162.980469 732.535156 162.976562 Z M 723.222656 162.996094 " fill-opacity="1" fill-rule="nonzero"/><path fill="#ff5757" d="M 716.648438 174.574219 L 707.332031 174.574219 C 707.066406 174.574219 706.804688 174.523438 706.554688 174.421875 C 706.308594 174.316406 706.089844 174.171875 705.898438 173.980469 C 705.707031 173.789062 705.558594 173.570312 705.457031 173.320312 C 705.351562 173.070312 705.300781 172.8125 705.300781 172.542969 L 705.300781 163.226562 C 705.300781 162.957031 705.351562 162.699219 705.457031 162.449219 C 705.558594 162.203125 705.707031 161.980469 705.898438 161.792969 C 706.089844 161.601562 706.308594 161.453125 706.554688 161.351562 C 706.804688 161.246094 707.066406 161.195312 707.332031 161.195312 L 716.648438 161.195312 C 716.917969 161.195312 717.175781 161.246094 717.425781 161.351562 C 717.675781 161.453125 717.894531 161.601562 718.085938 161.792969 C 718.277344 161.980469 718.421875 162.203125 718.527344 162.449219 C 718.628906 162.699219 718.679688 162.957031 718.683594 163.226562 L 718.683594 172.542969 C 718.679688 172.8125 718.628906 173.070312 718.527344 173.320312 C 718.421875 173.570312 718.277344 173.789062 718.085938 173.980469 C 717.894531 174.171875 717.675781 174.316406 717.425781 174.421875 C 717.175781 174.523438 716.917969 174.574219 716.648438 174.574219 Z M 707.332031 162.996094 C 707.167969 163 707.085938 163.082031 707.085938 163.246094 L 707.085938 172.5625 C 707.085938 172.726562 707.167969 172.808594 707.332031 172.8125 L 716.648438 172.8125 C 716.8125 172.808594 716.894531 172.726562 716.898438 172.5625 L 716.898438 163.226562 C 716.894531 163.0625 716.8125 162.980469 716.648438 162.976562 Z M 707.332031 162.996094 " fill-opacity="1" fill-rule="nonzero"/><path fill="#ff5757" d="M 700.761719 174.574219 L 691.445312 174.574219 C 691.175781 174.574219 690.917969 174.523438 690.667969 174.421875 C 690.417969 174.316406 690.199219 174.171875 690.007812 173.980469 C 689.820312 173.789062 689.671875 173.570312 689.570312 173.320312 C 689.464844 173.070312 689.414062 172.8125 689.414062 172.542969 L 689.414062 163.226562 C 689.414062 162.957031 689.464844 162.699219 689.570312 162.449219 C 689.671875 162.203125 689.820312 161.980469 690.007812 161.792969 C 690.199219 161.601562 690.417969 161.453125 690.667969 161.351562 C 690.917969 161.246094 691.175781 161.195312 691.445312 161.195312 L 700.761719 161.195312 C 701.03125 161.195312 701.289062 161.246094 701.539062 161.351562 C 701.789062 161.453125 702.007812 161.601562 702.199219 161.792969 C 702.386719 161.980469 702.535156 162.203125 702.636719 162.449219 C 702.742188 162.699219 702.792969 162.957031 702.792969 163.226562 L 702.792969 172.542969 C 702.792969 172.8125 702.742188 173.070312 702.636719 173.320312 C 702.535156 173.570312 702.386719 173.789062 702.199219 173.980469 C 702.007812 174.171875 701.789062 174.316406 701.539062 174.421875 C 701.289062 174.523438 701.03125 174.574219 700.761719 174.574219 Z M 691.445312 162.996094 C 691.28125 163 691.199219 163.082031 691.195312 163.246094 L 691.195312 172.5625 C 691.199219 172.726562 691.28125 172.808594 691.445312 172.8125 L 700.761719 172.8125 C 700.925781 172.808594 701.007812 172.726562 701.011719 172.5625 L 701.011719 163.226562 C 701.007812 163.0625 700.925781 162.980469 700.761719 162.976562 Z M 691.445312 162.996094 " fill-opacity="1" fill-rule="nonzero"/><path fill="#ff5757" d="M 289.6875 189.820312 L 386.574219 189.820312 L 386.574219 197.132812 L 289.6875 197.132812 Z M 289.6875 189.820312 " fill-opacity="1" fill-rule="nonzero"/><path fill="#ff5757" d="M 289.6875 209.660156 L 464.25 209.660156 L 464.25 211.6875 L 289.6875 211.6875 Z M 289.6875 209.660156 " fill-opacity="1" fill-rule="nonzero"/><path fill="#ff5757" d="M 289.6875 220.402344 L 464.25 220.402344 L 464.25 222.429688 L 289.6875 222.429688 Z M 289.6875 220.402344 " fill-opacity="1" fill-rule="nonzero"/><path fill="#ff5757" d="M 614.042969 290.390625 L 722.253906 290.390625 L 722.253906 297.707031 L 614.042969 297.707031 Z M 614.042969 290.390625 " fill-opacity="1" fill-rule="nonzero"/><path fill="#ff5757" d="M 614.042969 310.238281 L 722.253906 310.238281 L 722.253906 312.261719 L 614.042969 312.261719 Z M 614.042969 310.238281 " fill-opacity="1" fill-rule="nonzero"/><path fill="#ff5757" d="M 614.042969 320.976562 L 722.253906 320.976562 L 722.253906 323 L 614.042969 323 Z M 614.042969 320.976562 " fill-opacity="1" fill-rule="nonzero"/><path fill="#ff5757" d="M 614.042969 371.054688 L 722.253906 371.054688 L 722.253906 378.367188 L 614.042969 378.367188 Z M 614.042969 371.054688 " fill-opacity="1" fill-rule="nonzero"/><path fill="#ff5757" d="M 614.042969 390.898438 L 722.253906 390.898438 L 722.253906 392.921875 L 614.042969 392.921875 Z M 614.042969 390.898438 " fill-opacity="1" fill-rule="nonzero"/><path fill="#ff5757" d="M 614.042969 401.636719 L 722.253906 401.636719 L 722.253906 403.664062 L 614.042969 403.664062 Z M 614.042969 401.636719 " fill-opacity="1" fill-rule="nonzero"/><path fill="#ff5757" d="M 793.375 405.707031 C 793.128906 405.707031 792.917969 405.621094 792.742188 405.449219 C 792.566406 405.273438 792.480469 405.0625 792.484375 404.816406 L 792.484375 381.023438 C 792.484375 380.777344 792.570312 380.570312 792.742188 380.394531 C 792.917969 380.21875 793.128906 380.132812 793.375 380.132812 C 793.621094 380.132812 793.832031 380.21875 794.003906 380.394531 C 794.179688 380.570312 794.265625 380.777344 794.265625 381.023438 L 794.265625 404.816406 C 794.265625 405.0625 794.179688 405.273438 794.003906 405.449219 C 793.832031 405.621094 793.621094 405.707031 793.375 405.707031 Z M 793.375 405.707031 " fill-opacity="1" fill-rule="nonzero"/><g clip-path="url(#a1d8cece15)"><path fill="#ff5757" d="M 805.269531 393.8125 L 781.464844 393.8125 C 781.21875 393.8125 781.011719 393.726562 780.835938 393.550781 C 780.660156 393.378906 780.574219 393.167969 780.574219 392.921875 C 780.574219 392.675781 780.660156 392.464844 780.835938 392.292969 C 781.011719 392.117188 781.21875 392.03125 781.464844 392.03125 L 805.261719 392.03125 C 805.507812 392.03125 805.71875 392.117188 805.890625 392.292969 C 806.066406 392.464844 806.152344 392.675781 806.152344 392.921875 C 806.152344 393.167969 806.066406 393.378906 805.890625 393.550781 C 805.71875 393.726562 805.507812 393.8125 805.261719 393.8125 Z M 805.269531 393.8125 " fill-opacity="1" fill-rule="nonzero"/></g></svg>