<svg xmlns="http://www.w3.org/2000/svg" xmlns:xlink="http://www.w3.org/1999/xlink" width="1920" zoomAndPan="magnify" viewBox="0 0 1440 809.999993" height="1080" preserveAspectRatio="xMidYMid meet" version="1.0"><defs><clipPath id="609fa8edab"><path d="M 2 713.832031 L 462 713.832031 L 462 810 L 2 810 Z M 2 713.832031 " clip-rule="nonzero"/></clipPath><clipPath id="f7407975b0"><path d="M 490 713.832031 L 950 713.832031 L 950 810 L 490 810 Z M 490 713.832031 " clip-rule="nonzero"/></clipPath><clipPath id="d516b9811e"><path d="M 992 713.832031 L 1440 713.832031 L 1440 810 L 992 810 Z M 992 713.832031 " clip-rule="nonzero"/></clipPath></defs><path fill="#f2f2f2" d="M 75.335938 174.835938 C 70.546875 174.835938 70.542969 167.398438 75.335938 167.398438 C 80.132812 167.398438 80.125 174.835938 75.335938 174.835938 Z M 105.1875 140.46875 C 104.839844 140.261719 104.46875 140.160156 104.0625 140.160156 C 103.660156 140.160156 103.285156 140.261719 102.9375 140.46875 L 102.226562 140.945312 C 101.867188 141.15625 101.578125 141.445312 101.367188 141.804688 C 101.144531 142.179688 101.039062 142.582031 101.039062 143.015625 C 101.046875 143.675781 101.28125 144.242188 101.734375 144.714844 C 102.214844 145.152344 102.78125 145.386719 103.433594 145.410156 C 103.859375 145.410156 104.257812 145.304688 104.628906 145.09375 C 104.996094 144.878906 105.289062 144.589844 105.503906 144.222656 L 105.980469 143.507812 C 106.1875 143.164062 106.292969 142.789062 106.292969 142.386719 C 106.292969 141.980469 106.1875 141.609375 105.980469 141.261719 C 105.785156 140.929688 105.519531 140.667969 105.191406 140.46875 Z M 80.257812 125.957031 C 75.464844 125.957031 75.464844 133.390625 80.257812 133.390625 C 85.050781 133.390625 85.050781 125.957031 80.257812 125.957031 Z M 98.523438 187.761719 C 93.730469 187.761719 93.730469 195.195312 98.523438 195.195312 C 103.316406 195.195312 103.324219 187.761719 98.523438 187.761719 Z M 231.292969 153.121094 C 226.5 153.121094 226.5 160.554688 231.292969 160.554688 C 236.085938 160.554688 236.085938 153.121094 231.292969 153.121094 Z M 220.753906 138.363281 C 215.960938 138.363281 215.960938 145.800781 220.753906 145.800781 C 225.546875 145.800781 225.550781 138.363281 220.753906 138.363281 Z M 255.882812 124.316406 C 251.089844 124.316406 251.089844 131.753906 255.882812 131.753906 C 260.675781 131.753906 260.675781 124.316406 255.882812 124.316406 Z M 291.195312 0 C 286.402344 0 286.402344 7.433594 291.195312 7.433594 C 295.988281 7.433594 295.988281 0 291.195312 0 Z M 293.304688 25.988281 C 288.511719 25.988281 288.511719 33.421875 293.304688 33.421875 C 298.097656 33.421875 298.097656 25.988281 293.304688 25.988281 Z M 401.210938 11.855469 C 401.011719 11.738281 400.796875 11.671875 400.570312 11.652344 C 400.492188 11.5625 400.402344 11.488281 400.304688 11.421875 C 400.019531 11.25 399.707031 11.179688 399.375 11.199219 C 399.042969 11.21875 398.742188 11.332031 398.480469 11.535156 C 398.214844 11.738281 398.027344 12 397.921875 12.316406 C 397.816406 12.632812 397.808594 12.949219 397.898438 13.269531 L 397.914062 13.269531 C 398.011719 13.628906 398.191406 13.941406 398.449219 14.207031 C 398.710938 14.472656 399.015625 14.660156 399.371094 14.769531 C 399.859375 14.925781 400.34375 14.917969 400.824219 14.75 C 401.226562 14.621094 401.542969 14.378906 401.769531 14.023438 C 401.878906 13.839844 401.945312 13.644531 401.972656 13.4375 C 402.003906 13.230469 401.992188 13.023438 401.9375 12.820312 C 401.882812 12.617188 401.792969 12.433594 401.667969 12.265625 C 401.539062 12.097656 401.386719 11.960938 401.207031 11.855469 Z M 319.691406 106.570312 C 314.898438 106.570312 314.898438 114.003906 319.691406 114.003906 C 324.484375 114.003906 324.480469 106.570312 319.691406 106.570312 Z M 409.21875 70.648438 C 414.003906 70.648438 414.011719 63.210938 409.21875 63.210938 C 404.425781 63.210938 404.429688 70.648438 409.21875 70.648438 Z M 249.703125 672.835938 C 244.914062 672.835938 244.910156 680.269531 249.703125 680.269531 C 254.5 680.269531 254.496094 672.835938 249.703125 672.835938 Z M 247.082031 644.65625 C 242.289062 644.65625 242.289062 652.09375 247.082031 652.09375 C 251.875 652.09375 251.875 644.65625 247.082031 644.65625 Z M 262.816406 648.589844 C 258.023438 648.589844 258.023438 656.023438 262.816406 656.023438 C 267.609375 656.023438 267.605469 648.589844 262.8125 648.589844 Z M 387.359375 685.289062 C 382.566406 685.289062 382.566406 692.722656 387.359375 692.722656 C 392.152344 692.722656 392.148438 685.289062 387.359375 685.289062 Z M 382.113281 652.523438 C 377.324219 652.523438 377.320312 659.957031 382.113281 659.957031 C 386.910156 659.957031 386.90625 652.523438 382.113281 652.523438 Z M 413.582031 688.566406 C 408.789062 688.566406 408.789062 696 413.582031 696 C 418.375 696 418.367188 688.566406 413.574219 688.566406 Z M 383.84375 283.660156 C 388.628906 283.660156 388.636719 276.222656 383.84375 276.222656 C 379.050781 276.222656 379.042969 283.660156 383.835938 283.660156 Z M 370.289062 222.808594 C 365.496094 222.808594 365.496094 230.246094 370.289062 230.246094 C 375.082031 230.246094 375.074219 222.808594 370.28125 222.808594 Z M 408.558594 229.1875 C 403.765625 229.1875 403.765625 236.625 408.558594 236.625 C 413.351562 236.625 413.347656 229.1875 408.550781 229.1875 Z M 127.105469 86 C 127.308594 85.65625 127.4375 85.285156 127.492188 84.890625 C 127.546875 84.496094 127.523438 84.105469 127.421875 83.71875 C 127.320312 83.335938 127.148438 82.980469 126.90625 82.664062 C 126.667969 82.347656 126.375 82.085938 126.03125 81.886719 L 125.3125 81.582031 C 124.917969 81.457031 124.515625 81.4375 124.109375 81.53125 C 124.007812 81.539062 123.90625 81.558594 123.804688 81.582031 L 123.78125 81.582031 L 123.152344 81.667969 L 122.585938 81.90625 C 122.308594 82.054688 122.089844 82.257812 121.917969 82.519531 C 121.773438 82.667969 121.671875 82.839844 121.613281 83.042969 C 121.503906 83.226562 121.453125 83.425781 121.453125 83.640625 C 121.394531 83.851562 121.394531 84.058594 121.453125 84.269531 C 121.460938 84.433594 121.488281 84.589844 121.539062 84.742188 L 121.613281 85.300781 C 121.703125 85.6875 121.882812 86.023438 122.152344 86.316406 C 122.367188 86.648438 122.648438 86.90625 122.996094 87.089844 C 123.335938 87.308594 123.707031 87.429688 124.109375 87.445312 C 124.707031 87.519531 125.277344 87.421875 125.820312 87.160156 C 126.363281 86.898438 126.792969 86.511719 127.105469 86 Z M 101.421875 68.089844 C 101.460938 68.089844 101.503906 68.089844 101.542969 68.089844 C 102.125 68.101562 102.714844 68.144531 103.292969 68.113281 C 103.902344 68.09375 104.480469 67.941406 105.019531 67.652344 C 105.199219 67.550781 105.363281 67.429688 105.511719 67.289062 C 105.660156 67.144531 105.789062 66.988281 105.902344 66.8125 C 106.011719 66.636719 106.097656 66.453125 106.160156 66.257812 C 106.222656 66.058594 106.261719 65.859375 106.273438 65.652344 C 106.285156 65.449219 106.273438 65.242188 106.234375 65.039062 C 106.195312 64.839844 106.132812 64.644531 106.042969 64.457031 C 105.957031 64.269531 105.847656 64.097656 105.71875 63.9375 C 105.585938 63.78125 105.4375 63.640625 105.269531 63.515625 C 104.707031 63.113281 104.078125 62.894531 103.382812 62.867188 C 102.769531 62.839844 102.15625 62.84375 101.542969 62.878906 C 101.199219 62.871094 100.863281 62.929688 100.542969 63.054688 C 100.21875 63.179688 99.933594 63.363281 99.683594 63.601562 C 99.433594 63.839844 99.238281 64.117188 99.097656 64.433594 C 98.960938 64.75 98.886719 65.078125 98.878906 65.425781 C 98.871094 65.769531 98.929688 66.105469 99.054688 66.425781 C 99.175781 66.75 99.359375 67.035156 99.597656 67.285156 C 99.835938 67.535156 100.113281 67.730469 100.429688 67.871094 C 100.746094 68.007812 101.078125 68.082031 101.421875 68.089844 Z M 162.152344 84.089844 C 157.359375 84.089844 157.359375 91.527344 162.152344 91.527344 C 166.949219 91.527344 166.953125 84.089844 162.152344 84.089844 Z M 129.875 124.066406 L 130.589844 124.949219 C 130.84375 125.203125 131.148438 125.367188 131.503906 125.4375 C 131.855469 125.507812 132.199219 125.472656 132.535156 125.335938 C 132.867188 125.195312 133.136719 124.976562 133.335938 124.675781 C 133.535156 124.375 133.636719 124.046875 133.636719 123.683594 C 133.644531 123.1875 133.46875 122.769531 133.113281 122.421875 L 132.234375 121.707031 C 131.898438 121.402344 131.507812 121.238281 131.054688 121.21875 C 130.832031 121.21875 130.621094 121.261719 130.414062 121.34375 C 130.210938 121.429688 130.03125 121.550781 129.875 121.707031 C 129.714844 121.863281 129.59375 122.042969 129.511719 122.25 C 129.425781 122.453125 129.382812 122.667969 129.382812 122.886719 L 129.445312 123.332031 C 129.523438 123.617188 129.664062 123.859375 129.875 124.066406 Z M 230.730469 11.003906 C 235.515625 11.003906 235.523438 3.570312 230.730469 3.570312 C 225.9375 3.570312 225.9375 11.003906 230.730469 11.003906 Z M 457.199219 77.710938 C 452.40625 77.710938 452.40625 85.148438 457.199219 85.148438 C 461.996094 85.148438 461.988281 77.710938 457.199219 77.710938 Z M 421.316406 43.617188 C 421.59375 43.628906 421.859375 43.585938 422.117188 43.488281 C 422.375 43.390625 422.605469 43.246094 422.804688 43.054688 C 423.003906 42.863281 423.160156 42.640625 423.269531 42.386719 C 423.382812 42.136719 423.4375 41.871094 423.441406 41.59375 C 423.445312 41.316406 423.394531 41.050781 423.289062 40.796875 C 423.1875 40.539062 423.035156 40.316406 422.839844 40.121094 C 422.644531 39.925781 422.421875 39.773438 422.164062 39.671875 C 421.910156 39.566406 421.640625 39.515625 421.367188 39.519531 C 421.089844 39.523438 420.824219 39.578125 420.570312 39.691406 C 420.320312 39.800781 420.097656 39.957031 419.90625 40.15625 C 419.714844 40.355469 419.570312 40.585938 419.472656 40.84375 C 419.375 41.101562 419.332031 41.367188 419.339844 41.644531 C 419.351562 41.902344 419.40625 42.152344 419.511719 42.386719 C 419.613281 42.625 419.757812 42.835938 419.941406 43.019531 C 420.125 43.203125 420.335938 43.34375 420.570312 43.449219 C 420.808594 43.550781 421.058594 43.609375 421.316406 43.617188 Z M 143.886719 307.566406 L 143.441406 307.398438 C 136.078125 304.667969 136.027344 319.007812 143.441406 316.261719 L 143.886719 316.097656 C 144.34375 315.953125 144.765625 315.746094 145.152344 315.46875 C 145.539062 315.191406 145.875 314.863281 146.15625 314.480469 C 146.441406 314.09375 146.65625 313.675781 146.804688 313.222656 C 146.953125 312.773438 147.027344 312.308594 147.027344 311.832031 C 147.027344 311.355469 146.953125 310.890625 146.804688 310.4375 C 146.65625 309.984375 146.441406 309.566406 146.15625 309.183594 C 145.875 308.800781 145.539062 308.46875 145.152344 308.191406 C 144.765625 307.917969 144.34375 307.707031 143.886719 307.566406 Z M 127.859375 276.222656 C 123.066406 276.222656 123.066406 283.660156 127.859375 283.660156 C 132.652344 283.660156 132.652344 276.222656 127.859375 276.222656 Z M 133.726562 585.601562 C 133.507812 584.878906 133.078125 584.320312 132.4375 583.921875 C 131.75 583.539062 131.03125 583.449219 130.273438 583.644531 C 129.683594 583.800781 129.148438 584.0625 128.664062 584.425781 C 128.246094 584.738281 127.90625 585.113281 127.640625 585.554688 C 127.550781 585.695312 127.464844 585.84375 127.375 585.988281 C 126.898438 586.824219 126.78125 587.703125 127.027344 588.632812 C 127.097656 588.867188 127.1875 589.089844 127.300781 589.300781 C 127.417969 589.515625 127.550781 589.714844 127.707031 589.898438 C 127.867188 590.085938 128.039062 590.25 128.230469 590.398438 C 128.421875 590.546875 128.628906 590.671875 128.847656 590.777344 C 129.066406 590.882812 129.292969 590.964844 129.527344 591.019531 C 129.761719 591.078125 130 591.109375 130.242188 591.117188 C 130.484375 591.121094 130.726562 591.101562 130.964844 591.058594 C 131.203125 591.015625 131.433594 590.945312 131.65625 590.851562 C 132.085938 590.714844 132.453125 590.476562 132.761719 590.144531 C 133.1875 589.71875 133.480469 589.214844 133.640625 588.632812 L 133.640625 588.625 C 133.878906 588.121094 134 587.589844 134.003906 587.03125 C 133.984375 586.539062 133.890625 586.0625 133.726562 585.601562 Z M 210.007812 513.003906 C 205.214844 513.003906 205.210938 520.441406 210.007812 520.441406 C 214.800781 520.441406 214.800781 513.003906 210.007812 513.003906 Z M 237.109375 544.894531 C 232.316406 544.894531 232.320312 552.328125 237.109375 552.328125 C 241.902344 552.328125 241.90625 544.894531 237.109375 544.894531 Z M 245.085938 509.015625 C 240.289062 509.015625 240.292969 516.453125 245.085938 516.453125 C 249.878906 516.453125 249.878906 509.015625 245.085938 509.015625 Z M 100.753906 646 C 95.960938 646 95.960938 653.433594 100.753906 653.433594 C 105.546875 653.433594 105.550781 646 100.753906 646 Z M 27.386719 468.367188 C 27.105469 468.359375 26.828125 468.402344 26.5625 468.503906 C 26.296875 468.605469 26.0625 468.753906 25.855469 468.949219 C 25.652344 469.144531 25.492188 469.375 25.378906 469.632812 C 25.265625 469.894531 25.207031 470.167969 25.203125 470.449219 C 25.199219 470.734375 25.25 471.007812 25.359375 471.273438 C 25.464844 471.535156 25.621094 471.765625 25.820312 471.96875 C 26.019531 472.167969 26.253906 472.324219 26.515625 472.429688 C 26.78125 472.535156 27.054688 472.589844 27.335938 472.585938 C 27.621094 472.582031 27.894531 472.523438 28.15625 472.410156 C 28.414062 472.296875 28.644531 472.136719 28.839844 471.929688 C 29.035156 471.726562 29.183594 471.488281 29.285156 471.222656 C 29.386719 470.957031 29.429688 470.683594 29.421875 470.398438 C 29.410156 470.132812 29.351562 469.878906 29.246094 469.632812 C 29.140625 469.390625 28.992188 469.171875 28.804688 468.984375 C 28.613281 468.796875 28.398438 468.648438 28.15625 468.542969 C 27.910156 468.4375 27.65625 468.378906 27.386719 468.367188 Z M 420.519531 418.132812 C 415.722656 418.132812 415.726562 425.566406 420.519531 425.566406 C 425.3125 425.566406 425.3125 418.132812 420.519531 418.132812 Z M 420.519531 390.230469 C 415.722656 390.230469 415.726562 397.664062 420.519531 397.664062 C 425.3125 397.664062 425.3125 390.230469 420.519531 390.230469 Z M 312.78125 312.285156 C 307.988281 312.285156 307.988281 319.722656 312.78125 319.722656 C 317.574219 319.722656 317.578125 312.285156 312.78125 312.285156 Z M 309.453125 154.59375 C 304.660156 154.59375 304.660156 162.027344 309.453125 162.027344 C 314.246094 162.027344 314.246094 154.59375 309.453125 154.59375 Z M 42.410156 422.554688 C 37.617188 422.554688 37.621094 429.988281 42.410156 429.988281 C 47.203125 429.988281 47.207031 422.554688 42.410156 422.554688 Z M 4.859375 355.558594 C 0.0664062 355.558594 0.0703125 362.992188 4.859375 362.992188 C 9.652344 362.992188 9.65625 355.558594 4.859375 355.558594 Z M 33 11.304688 C 28.207031 11.304688 28.207031 18.738281 33 18.738281 C 37.792969 18.738281 37.792969 11.304688 33 11.304688 Z M 13.359375 38.652344 C 8.566406 38.652344 8.566406 46.089844 13.359375 46.089844 C 18.152344 46.089844 18.152344 38.652344 13.359375 38.652344 Z M 37.207031 336.699219 C 32.414062 336.699219 32.417969 344.136719 37.207031 344.136719 C 42 344.136719 42.003906 336.699219 37.207031 336.699219 Z M 424.921875 302.542969 C 420.128906 302.542969 420.128906 309.980469 424.921875 309.980469 C 429.71875 309.980469 429.71875 302.542969 424.921875 302.542969 Z M 424.921875 302.542969 " fill-opacity="1" fill-rule="nonzero"/><path fill="#f2f2f2" d="M 537.296875 174.835938 C 532.503906 174.835938 532.5 167.398438 537.296875 167.398438 C 542.089844 167.398438 542.082031 174.835938 537.296875 174.835938 Z M 567.144531 140.46875 C 566.800781 140.261719 566.425781 140.160156 566.019531 140.160156 C 565.617188 140.160156 565.242188 140.261719 564.898438 140.46875 L 564.183594 140.945312 C 563.824219 141.15625 563.535156 141.445312 563.324219 141.804688 C 563.105469 142.179688 562.996094 142.582031 562.996094 143.015625 C 563.003906 143.675781 563.238281 144.242188 563.691406 144.714844 C 564.171875 145.152344 564.738281 145.386719 565.390625 145.410156 C 565.816406 145.410156 566.214844 145.304688 566.585938 145.09375 C 566.953125 144.878906 567.246094 144.589844 567.460938 144.222656 L 567.9375 143.507812 C 568.144531 143.164062 568.25 142.789062 568.25 142.386719 C 568.25 141.980469 568.144531 141.609375 567.9375 141.261719 C 567.742188 140.929688 567.480469 140.667969 567.148438 140.46875 Z M 542.214844 125.957031 C 537.421875 125.957031 537.421875 133.390625 542.214844 133.390625 C 547.007812 133.390625 547.007812 125.957031 542.214844 125.957031 Z M 560.480469 187.761719 C 555.6875 187.761719 555.6875 195.195312 560.480469 195.195312 C 565.273438 195.195312 565.28125 187.761719 560.480469 187.761719 Z M 693.25 153.121094 C 688.457031 153.121094 688.457031 160.554688 693.25 160.554688 C 698.046875 160.554688 698.046875 153.121094 693.25 153.121094 Z M 682.710938 138.363281 C 677.917969 138.363281 677.921875 145.800781 682.710938 145.800781 C 687.503906 145.800781 687.507812 138.363281 682.710938 138.363281 Z M 717.839844 124.316406 C 713.046875 124.316406 713.046875 131.753906 717.839844 131.753906 C 722.632812 131.753906 722.632812 124.316406 717.839844 124.316406 Z M 753.152344 0 C 748.359375 0 748.359375 7.433594 753.152344 7.433594 C 757.945312 7.433594 757.949219 0 753.152344 0 Z M 755.261719 25.988281 C 750.46875 25.988281 750.46875 33.421875 755.261719 33.421875 C 760.054688 33.421875 760.054688 25.988281 755.261719 25.988281 Z M 863.167969 11.855469 C 862.96875 11.738281 862.753906 11.671875 862.527344 11.652344 C 862.449219 11.5625 862.359375 11.488281 862.261719 11.421875 C 861.976562 11.25 861.664062 11.179688 861.332031 11.199219 C 861 11.21875 860.699219 11.332031 860.4375 11.535156 C 860.171875 11.738281 859.988281 12 859.878906 12.316406 C 859.773438 12.632812 859.765625 12.949219 859.855469 13.269531 L 859.871094 13.269531 C 859.96875 13.628906 860.148438 13.941406 860.40625 14.207031 C 860.667969 14.472656 860.976562 14.660156 861.332031 14.769531 C 861.816406 14.925781 862.300781 14.917969 862.78125 14.75 C 863.183594 14.621094 863.5 14.378906 863.726562 14.023438 C 863.835938 13.839844 863.902344 13.644531 863.929688 13.4375 C 863.960938 13.230469 863.949219 13.023438 863.894531 12.820312 C 863.84375 12.617188 863.753906 12.433594 863.625 12.265625 C 863.5 12.097656 863.34375 11.960938 863.164062 11.855469 Z M 781.648438 106.570312 C 776.855469 106.570312 776.855469 114.003906 781.648438 114.003906 C 786.441406 114.003906 786.4375 106.570312 781.648438 106.570312 Z M 871.175781 70.648438 C 875.960938 70.648438 875.96875 63.210938 871.175781 63.210938 C 866.382812 63.210938 866.386719 70.648438 871.175781 70.648438 Z M 711.664062 672.835938 C 706.871094 672.835938 706.867188 680.269531 711.664062 680.269531 C 716.457031 680.269531 716.453125 672.835938 711.664062 672.835938 Z M 709.039062 644.65625 C 704.246094 644.65625 704.246094 652.09375 709.039062 652.09375 C 713.835938 652.09375 713.832031 644.65625 709.039062 644.65625 Z M 724.773438 648.589844 C 719.980469 648.589844 719.980469 656.023438 724.773438 656.023438 C 729.566406 656.023438 729.566406 648.589844 724.769531 648.589844 Z M 849.316406 685.289062 C 844.523438 685.289062 844.523438 692.722656 849.316406 692.722656 C 854.109375 692.722656 854.105469 685.289062 849.316406 685.289062 Z M 844.074219 652.523438 C 839.28125 652.523438 839.277344 659.957031 844.074219 659.957031 C 848.867188 659.957031 848.863281 652.523438 844.070312 652.523438 Z M 875.539062 688.566406 C 870.746094 688.566406 870.746094 696 875.539062 696 C 880.332031 696 880.324219 688.566406 875.53125 688.566406 Z M 845.800781 283.660156 C 850.585938 283.660156 850.59375 276.222656 845.800781 276.222656 C 841.007812 276.222656 841 283.660156 845.792969 283.660156 Z M 832.246094 222.808594 C 827.453125 222.808594 827.453125 230.246094 832.246094 230.246094 C 837.039062 230.246094 837.03125 222.808594 832.238281 222.808594 Z M 870.515625 229.1875 C 865.722656 229.1875 865.726562 236.625 870.515625 236.625 C 875.308594 236.625 875.304688 229.1875 870.511719 229.1875 Z M 589.066406 86 C 589.265625 85.65625 589.394531 85.285156 589.449219 84.890625 C 589.503906 84.496094 589.480469 84.105469 589.378906 83.71875 C 589.277344 83.335938 589.105469 82.980469 588.867188 82.664062 C 588.625 82.347656 588.332031 82.085938 587.988281 81.886719 L 587.269531 81.582031 C 586.875 81.457031 586.472656 81.4375 586.070312 81.53125 C 585.964844 81.539062 585.863281 81.558594 585.761719 81.582031 L 585.738281 81.582031 L 585.109375 81.667969 L 584.542969 81.90625 C 584.265625 82.054688 584.046875 82.257812 583.878906 82.519531 C 583.730469 82.667969 583.628906 82.839844 583.570312 83.042969 C 583.464844 83.226562 583.410156 83.425781 583.410156 83.640625 C 583.351562 83.851562 583.351562 84.058594 583.410156 84.269531 C 583.417969 84.433594 583.445312 84.589844 583.496094 84.742188 L 583.570312 85.300781 C 583.660156 85.6875 583.839844 86.023438 584.109375 86.316406 C 584.324219 86.648438 584.605469 86.90625 584.953125 87.089844 C 585.292969 87.308594 585.664062 87.429688 586.070312 87.445312 C 586.667969 87.519531 587.234375 87.421875 587.777344 87.160156 C 588.320312 86.898438 588.75 86.511719 589.066406 86 Z M 563.378906 68.089844 C 563.421875 68.089844 563.460938 68.089844 563.5 68.089844 C 564.082031 68.101562 564.671875 68.144531 565.25 68.113281 C 565.859375 68.09375 566.4375 67.941406 566.976562 67.652344 C 567.15625 67.550781 567.320312 67.429688 567.46875 67.289062 C 567.617188 67.144531 567.75 66.988281 567.859375 66.8125 C 567.96875 66.636719 568.054688 66.453125 568.117188 66.257812 C 568.179688 66.058594 568.21875 65.859375 568.230469 65.652344 C 568.242188 65.449219 568.230469 65.242188 568.191406 65.039062 C 568.152344 64.839844 568.089844 64.644531 568.003906 64.457031 C 567.914062 64.269531 567.804688 64.097656 567.675781 63.9375 C 567.542969 63.78125 567.394531 63.640625 567.230469 63.515625 C 566.664062 63.113281 566.035156 62.894531 565.339844 62.867188 C 564.726562 62.839844 564.113281 62.84375 563.5 62.878906 C 563.15625 62.871094 562.820312 62.929688 562.5 63.054688 C 562.175781 63.179688 561.890625 63.363281 561.640625 63.601562 C 561.390625 63.839844 561.195312 64.117188 561.058594 64.433594 C 560.917969 64.75 560.84375 65.078125 560.835938 65.425781 C 560.828125 65.769531 560.886719 66.105469 561.011719 66.425781 C 561.136719 66.75 561.316406 67.035156 561.554688 67.285156 C 561.792969 67.535156 562.070312 67.730469 562.386719 67.871094 C 562.703125 68.007812 563.035156 68.082031 563.378906 68.089844 Z M 624.109375 84.089844 C 619.316406 84.089844 619.316406 91.527344 624.109375 91.527344 C 628.90625 91.527344 628.910156 84.089844 624.109375 84.089844 Z M 591.832031 124.066406 L 592.546875 124.949219 C 592.800781 125.203125 593.105469 125.367188 593.460938 125.4375 C 593.8125 125.507812 594.160156 125.472656 594.492188 125.335938 C 594.824219 125.195312 595.09375 124.976562 595.292969 124.675781 C 595.496094 124.375 595.59375 124.046875 595.59375 123.683594 C 595.601562 123.1875 595.425781 122.769531 595.070312 122.421875 L 594.191406 121.707031 C 593.855469 121.402344 593.464844 121.238281 593.011719 121.21875 C 592.789062 121.21875 592.578125 121.261719 592.371094 121.34375 C 592.167969 121.429688 591.988281 121.550781 591.832031 121.707031 C 591.675781 121.863281 591.554688 122.042969 591.46875 122.25 C 591.382812 122.453125 591.339844 122.667969 591.339844 122.886719 L 591.402344 123.332031 C 591.480469 123.617188 591.625 123.859375 591.832031 124.066406 Z M 692.6875 11.003906 C 697.472656 11.003906 697.484375 3.570312 692.6875 3.570312 C 687.894531 3.570312 687.894531 11.003906 692.6875 11.003906 Z M 919.15625 77.710938 C 914.367188 77.710938 914.363281 85.148438 919.15625 85.148438 C 923.953125 85.148438 923.945312 77.710938 919.15625 77.710938 Z M 883.273438 43.617188 C 883.550781 43.628906 883.816406 43.585938 884.074219 43.488281 C 884.332031 43.390625 884.5625 43.246094 884.761719 43.054688 C 884.964844 42.863281 885.117188 42.640625 885.230469 42.386719 C 885.339844 42.136719 885.394531 41.871094 885.398438 41.59375 C 885.402344 41.316406 885.351562 41.050781 885.25 40.796875 C 885.144531 40.539062 884.996094 40.316406 884.800781 40.121094 C 884.605469 39.925781 884.378906 39.773438 884.121094 39.671875 C 883.867188 39.566406 883.601562 39.515625 883.324219 39.519531 C 883.046875 39.523438 882.78125 39.578125 882.53125 39.691406 C 882.277344 39.800781 882.054688 39.957031 881.863281 40.15625 C 881.671875 40.355469 881.527344 40.585938 881.429688 40.84375 C 881.332031 41.101562 881.289062 41.367188 881.300781 41.644531 C 881.308594 41.902344 881.367188 42.152344 881.46875 42.386719 C 881.570312 42.625 881.714844 42.835938 881.898438 43.019531 C 882.082031 43.203125 882.292969 43.34375 882.527344 43.449219 C 882.765625 43.550781 883.015625 43.609375 883.273438 43.617188 Z M 605.84375 307.566406 L 605.398438 307.398438 C 598.035156 304.667969 597.988281 319.007812 605.398438 316.261719 L 605.84375 316.097656 C 606.300781 315.953125 606.722656 315.746094 607.109375 315.46875 C 607.496094 315.191406 607.832031 314.863281 608.113281 314.480469 C 608.398438 314.09375 608.613281 313.675781 608.761719 313.222656 C 608.910156 312.773438 608.984375 312.308594 608.984375 311.832031 C 608.984375 311.355469 608.910156 310.890625 608.761719 310.4375 C 608.613281 309.984375 608.398438 309.566406 608.113281 309.183594 C 607.832031 308.800781 607.496094 308.46875 607.109375 308.191406 C 606.722656 307.917969 606.300781 307.707031 605.84375 307.566406 Z M 589.816406 276.222656 C 585.023438 276.222656 585.023438 283.660156 589.816406 283.660156 C 594.609375 283.660156 594.609375 276.222656 589.816406 276.222656 Z M 595.683594 585.601562 C 595.464844 584.878906 595.035156 584.320312 594.394531 583.921875 C 593.710938 583.539062 592.988281 583.449219 592.230469 583.644531 C 591.644531 583.800781 591.105469 584.0625 590.621094 584.425781 C 590.207031 584.738281 589.863281 585.113281 589.597656 585.554688 C 589.507812 585.695312 589.421875 585.84375 589.332031 585.988281 C 588.855469 586.824219 588.742188 587.703125 588.988281 588.632812 C 589.054688 588.867188 589.144531 589.089844 589.261719 589.300781 C 589.375 589.515625 589.511719 589.714844 589.667969 589.898438 C 589.824219 590.085938 589.996094 590.25 590.1875 590.398438 C 590.378906 590.546875 590.585938 590.671875 590.804688 590.777344 C 591.023438 590.882812 591.25 590.964844 591.484375 591.019531 C 591.71875 591.078125 591.960938 591.109375 592.203125 591.117188 C 592.445312 591.121094 592.683594 591.101562 592.921875 591.058594 C 593.160156 591.015625 593.390625 590.945312 593.613281 590.851562 C 594.042969 590.714844 594.410156 590.476562 594.71875 590.144531 C 595.144531 589.71875 595.4375 589.214844 595.597656 588.632812 L 595.597656 588.625 C 595.835938 588.121094 595.957031 587.589844 595.960938 587.03125 C 595.941406 586.539062 595.851562 586.0625 595.683594 585.601562 Z M 671.964844 513.003906 C 667.171875 513.003906 667.171875 520.441406 671.964844 520.441406 C 676.757812 520.441406 676.757812 513.003906 671.964844 513.003906 Z M 699.070312 544.894531 C 694.273438 544.894531 694.277344 552.328125 699.070312 552.328125 C 703.859375 552.328125 703.863281 544.894531 699.070312 544.894531 Z M 707.042969 509.015625 C 702.25 509.015625 702.25 516.453125 707.042969 516.453125 C 711.835938 516.453125 711.835938 509.015625 707.042969 509.015625 Z M 562.710938 646 C 557.917969 646 557.917969 653.433594 562.710938 653.433594 C 567.503906 653.433594 567.507812 646 562.710938 646 Z M 489.347656 468.367188 C 489.0625 468.359375 488.789062 468.402344 488.523438 468.503906 C 488.257812 468.605469 488.019531 468.753906 487.816406 468.949219 C 487.609375 469.144531 487.449219 469.375 487.335938 469.632812 C 487.222656 469.894531 487.164062 470.167969 487.160156 470.449219 C 487.15625 470.734375 487.207031 471.007812 487.316406 471.273438 C 487.421875 471.535156 487.578125 471.765625 487.777344 471.96875 C 487.980469 472.167969 488.210938 472.324219 488.472656 472.429688 C 488.738281 472.535156 489.011719 472.589844 489.296875 472.585938 C 489.578125 472.582031 489.851562 472.523438 490.113281 472.410156 C 490.371094 472.296875 490.601562 472.136719 490.796875 471.929688 C 490.992188 471.726562 491.140625 471.488281 491.242188 471.222656 C 491.34375 470.957031 491.386719 470.683594 491.378906 470.398438 C 491.367188 470.132812 491.308594 469.878906 491.203125 469.632812 C 491.097656 469.390625 490.949219 469.171875 490.761719 468.984375 C 490.574219 468.796875 490.355469 468.648438 490.113281 468.542969 C 489.867188 468.4375 489.613281 468.378906 489.347656 468.367188 Z M 882.476562 418.132812 C 877.683594 418.132812 877.683594 425.566406 882.476562 425.566406 C 887.269531 425.566406 887.269531 418.132812 882.476562 418.132812 Z M 882.476562 390.230469 C 877.683594 390.230469 877.683594 397.664062 882.476562 397.664062 C 887.269531 397.664062 887.269531 390.230469 882.476562 390.230469 Z M 774.738281 312.285156 C 769.945312 312.285156 769.949219 319.722656 774.738281 319.722656 C 779.53125 319.722656 779.535156 312.285156 774.738281 312.285156 Z M 771.410156 154.59375 C 766.617188 154.59375 766.617188 162.027344 771.410156 162.027344 C 776.203125 162.027344 776.203125 154.59375 771.410156 154.59375 Z M 504.371094 422.554688 C 499.574219 422.554688 499.578125 429.988281 504.371094 429.988281 C 509.160156 429.988281 509.164062 422.554688 504.371094 422.554688 Z M 466.816406 355.558594 C 462.023438 355.558594 462.027344 362.992188 466.816406 362.992188 C 471.609375 362.992188 471.613281 355.558594 466.816406 355.558594 Z M 494.957031 11.304688 C 490.167969 11.304688 490.164062 18.738281 494.957031 18.738281 C 499.753906 18.738281 499.75 11.304688 494.957031 11.304688 Z M 475.316406 38.652344 C 470.523438 38.652344 470.523438 46.089844 475.316406 46.089844 C 480.109375 46.089844 480.109375 38.652344 475.316406 38.652344 Z M 499.167969 336.699219 C 494.371094 336.699219 494.375 344.136719 499.167969 344.136719 C 503.957031 344.136719 503.960938 336.699219 499.167969 336.699219 Z M 886.882812 302.542969 C 882.085938 302.542969 882.085938 309.980469 886.882812 309.980469 C 891.675781 309.980469 891.675781 302.542969 886.882812 302.542969 Z M 886.882812 302.542969 " fill-opacity="1" fill-rule="nonzero"/><path fill="#f2f2f2" d="M 1053.378906 174.835938 C 1048.585938 174.835938 1048.585938 167.398438 1053.378906 167.398438 C 1058.175781 167.398438 1058.167969 174.835938 1053.378906 174.835938 Z M 1083.230469 140.46875 C 1082.882812 140.261719 1082.507812 140.160156 1082.105469 140.160156 C 1081.703125 140.160156 1081.328125 140.261719 1080.980469 140.46875 L 1080.269531 140.945312 C 1079.910156 141.15625 1079.621094 141.445312 1079.410156 141.804688 C 1079.1875 142.179688 1079.078125 142.582031 1079.082031 143.015625 C 1079.089844 143.675781 1079.324219 144.242188 1079.777344 144.714844 C 1080.257812 145.152344 1080.824219 145.386719 1081.472656 145.410156 C 1081.902344 145.410156 1082.300781 145.304688 1082.667969 145.09375 C 1083.039062 144.878906 1083.332031 144.589844 1083.546875 144.222656 L 1084.023438 143.507812 C 1084.230469 143.164062 1084.332031 142.789062 1084.332031 142.386719 C 1084.332031 141.980469 1084.230469 141.609375 1084.023438 141.261719 C 1083.828125 140.929688 1083.5625 140.667969 1083.234375 140.46875 Z M 1058.300781 125.957031 C 1053.507812 125.957031 1053.507812 133.390625 1058.300781 133.390625 C 1063.09375 133.390625 1063.09375 125.957031 1058.300781 125.957031 Z M 1076.566406 187.761719 C 1071.773438 187.761719 1071.773438 195.195312 1076.566406 195.195312 C 1081.359375 195.195312 1081.367188 187.761719 1076.566406 187.761719 Z M 1209.335938 153.121094 C 1204.542969 153.121094 1204.542969 160.554688 1209.335938 160.554688 C 1214.128906 160.554688 1214.128906 153.121094 1209.335938 153.121094 Z M 1198.796875 138.363281 C 1194.003906 138.363281 1194.003906 145.800781 1198.796875 145.800781 C 1203.589844 145.800781 1203.589844 138.363281 1198.796875 138.363281 Z M 1233.925781 124.316406 C 1229.132812 124.316406 1229.132812 131.753906 1233.925781 131.753906 C 1238.71875 131.753906 1238.71875 124.316406 1233.925781 124.316406 Z M 1269.238281 0 C 1264.445312 0 1264.445312 7.433594 1269.238281 7.433594 C 1274.03125 7.433594 1274.03125 0 1269.238281 0 Z M 1271.347656 25.988281 C 1266.550781 25.988281 1266.550781 33.421875 1271.347656 33.421875 C 1276.140625 33.421875 1276.140625 25.988281 1271.347656 25.988281 Z M 1379.25 11.855469 C 1379.054688 11.738281 1378.839844 11.671875 1378.613281 11.652344 C 1378.53125 11.5625 1378.445312 11.488281 1378.347656 11.421875 C 1378.058594 11.25 1377.75 11.179688 1377.417969 11.199219 C 1377.085938 11.21875 1376.785156 11.332031 1376.519531 11.535156 C 1376.257812 11.738281 1376.070312 12 1375.964844 12.316406 C 1375.859375 12.632812 1375.851562 12.949219 1375.9375 13.269531 L 1375.957031 13.269531 C 1376.054688 13.628906 1376.234375 13.941406 1376.492188 14.207031 C 1376.753906 14.472656 1377.058594 14.660156 1377.414062 14.769531 C 1377.902344 14.925781 1378.386719 14.917969 1378.867188 14.75 C 1379.269531 14.621094 1379.585938 14.378906 1379.8125 14.023438 C 1379.917969 13.839844 1379.988281 13.644531 1380.015625 13.4375 C 1380.046875 13.230469 1380.035156 13.023438 1379.980469 12.820312 C 1379.925781 12.617188 1379.835938 12.433594 1379.710938 12.265625 C 1379.582031 12.097656 1379.429688 11.960938 1379.246094 11.855469 Z M 1297.734375 106.570312 C 1292.941406 106.570312 1292.941406 114.003906 1297.734375 114.003906 C 1302.527344 114.003906 1302.523438 106.570312 1297.734375 106.570312 Z M 1387.261719 70.648438 C 1392.046875 70.648438 1392.054688 63.210938 1387.261719 63.210938 C 1382.464844 63.210938 1382.472656 70.648438 1387.261719 70.648438 Z M 1227.746094 672.835938 C 1222.953125 672.835938 1222.953125 680.269531 1227.746094 680.269531 C 1232.539062 680.269531 1232.539062 672.835938 1227.746094 672.835938 Z M 1225.125 644.65625 C 1220.332031 644.65625 1220.332031 652.09375 1225.125 652.09375 C 1229.917969 652.09375 1229.917969 644.65625 1225.125 644.65625 Z M 1240.859375 648.589844 C 1236.066406 648.589844 1236.066406 656.023438 1240.859375 656.023438 C 1245.652344 656.023438 1245.648438 648.589844 1240.855469 648.589844 Z M 1365.402344 685.289062 C 1360.605469 685.289062 1360.605469 692.722656 1365.402344 692.722656 C 1370.195312 692.722656 1370.191406 685.289062 1365.402344 685.289062 Z M 1360.15625 652.523438 C 1355.363281 652.523438 1355.363281 659.957031 1360.15625 659.957031 C 1364.953125 659.957031 1364.945312 652.523438 1360.15625 652.523438 Z M 1391.625 688.566406 C 1386.832031 688.566406 1386.832031 696 1391.625 696 C 1396.417969 696 1396.410156 688.566406 1391.617188 688.566406 Z M 1361.886719 283.660156 C 1366.671875 283.660156 1366.679688 276.222656 1361.886719 276.222656 C 1357.09375 276.222656 1357.085938 283.660156 1361.878906 283.660156 Z M 1348.332031 222.808594 C 1343.539062 222.808594 1343.539062 230.246094 1348.332031 230.246094 C 1353.125 230.246094 1353.117188 222.808594 1348.324219 222.808594 Z M 1386.601562 229.1875 C 1381.808594 229.1875 1381.808594 236.625 1386.601562 236.625 C 1391.394531 236.625 1391.390625 229.1875 1386.59375 229.1875 Z M 1105.148438 86 C 1105.351562 85.65625 1105.480469 85.285156 1105.535156 84.890625 C 1105.589844 84.496094 1105.566406 84.105469 1105.464844 83.71875 C 1105.363281 83.335938 1105.191406 82.980469 1104.949219 82.664062 C 1104.710938 82.347656 1104.417969 82.085938 1104.070312 81.886719 L 1103.355469 81.582031 C 1102.957031 81.457031 1102.558594 81.4375 1102.152344 81.53125 C 1102.050781 81.539062 1101.949219 81.558594 1101.847656 81.582031 L 1101.824219 81.582031 L 1101.195312 81.667969 L 1100.628906 81.90625 C 1100.351562 82.054688 1100.128906 82.257812 1099.960938 82.519531 C 1099.8125 82.667969 1099.710938 82.839844 1099.65625 83.042969 C 1099.546875 83.226562 1099.492188 83.425781 1099.496094 83.640625 C 1099.4375 83.851562 1099.4375 84.058594 1099.496094 84.269531 C 1099.503906 84.433594 1099.53125 84.589844 1099.582031 84.742188 L 1099.65625 85.300781 C 1099.746094 85.6875 1099.925781 86.023438 1100.195312 86.316406 C 1100.410156 86.648438 1100.691406 86.90625 1101.039062 87.089844 C 1101.378906 87.308594 1101.75 87.429688 1102.152344 87.445312 C 1102.75 87.519531 1103.320312 87.421875 1103.863281 87.160156 C 1104.40625 86.898438 1104.832031 86.511719 1105.148438 86 Z M 1079.464844 68.089844 C 1079.503906 68.089844 1079.546875 68.089844 1079.585938 68.089844 C 1080.164062 68.101562 1080.757812 68.144531 1081.332031 68.113281 C 1081.945312 68.09375 1082.519531 67.941406 1083.058594 67.652344 C 1083.238281 67.550781 1083.40625 67.429688 1083.554688 67.289062 C 1083.703125 67.144531 1083.832031 66.988281 1083.941406 66.8125 C 1084.050781 66.636719 1084.140625 66.453125 1084.203125 66.257812 C 1084.265625 66.058594 1084.304688 65.859375 1084.316406 65.652344 C 1084.328125 65.449219 1084.316406 65.242188 1084.277344 65.039062 C 1084.238281 64.839844 1084.175781 64.644531 1084.085938 64.457031 C 1084 64.269531 1083.890625 64.097656 1083.757812 63.9375 C 1083.628906 63.78125 1083.480469 63.640625 1083.3125 63.515625 C 1082.75 63.113281 1082.121094 62.894531 1081.425781 62.867188 C 1080.8125 62.839844 1080.199219 62.84375 1079.585938 62.878906 C 1079.242188 62.871094 1078.90625 62.929688 1078.585938 63.054688 C 1078.261719 63.179688 1077.976562 63.363281 1077.726562 63.601562 C 1077.476562 63.839844 1077.28125 64.117188 1077.140625 64.433594 C 1077.003906 64.75 1076.929688 65.078125 1076.921875 65.425781 C 1076.910156 65.769531 1076.96875 66.105469 1077.09375 66.425781 C 1077.21875 66.75 1077.402344 67.035156 1077.640625 67.285156 C 1077.878906 67.535156 1078.15625 67.730469 1078.472656 67.871094 C 1078.789062 68.007812 1079.121094 68.082031 1079.464844 68.089844 Z M 1140.195312 84.089844 C 1135.402344 84.089844 1135.402344 91.527344 1140.195312 91.527344 C 1144.988281 91.527344 1144.996094 84.089844 1140.195312 84.089844 Z M 1107.917969 124.066406 L 1108.628906 124.949219 C 1108.886719 125.203125 1109.191406 125.367188 1109.546875 125.4375 C 1109.898438 125.507812 1110.242188 125.472656 1110.578125 125.335938 C 1110.910156 125.195312 1111.175781 124.976562 1111.378906 124.675781 C 1111.578125 124.375 1111.679688 124.046875 1111.679688 123.683594 C 1111.683594 123.1875 1111.511719 122.769531 1111.15625 122.421875 L 1110.277344 121.707031 C 1109.941406 121.402344 1109.550781 121.238281 1109.097656 121.21875 C 1108.875 121.21875 1108.664062 121.261719 1108.457031 121.34375 C 1108.253906 121.429688 1108.070312 121.550781 1107.914062 121.707031 C 1107.757812 121.863281 1107.636719 122.042969 1107.554688 122.25 C 1107.46875 122.453125 1107.425781 122.667969 1107.425781 122.886719 L 1107.484375 123.332031 C 1107.566406 123.617188 1107.707031 123.859375 1107.917969 124.066406 Z M 1208.773438 11.003906 C 1213.558594 11.003906 1213.566406 3.570312 1208.773438 3.570312 C 1203.980469 3.570312 1203.980469 11.003906 1208.773438 11.003906 Z M 1435.242188 77.710938 C 1430.449219 77.710938 1430.449219 85.148438 1435.242188 85.148438 C 1440.035156 85.148438 1440.03125 77.710938 1435.242188 77.710938 Z M 1399.359375 43.617188 C 1399.632812 43.628906 1399.902344 43.585938 1400.160156 43.488281 C 1400.417969 43.390625 1400.648438 43.246094 1400.847656 43.054688 C 1401.046875 42.863281 1401.203125 42.640625 1401.3125 42.386719 C 1401.425781 42.136719 1401.480469 41.871094 1401.484375 41.59375 C 1401.488281 41.316406 1401.4375 41.050781 1401.332031 40.796875 C 1401.230469 40.539062 1401.078125 40.316406 1400.882812 40.121094 C 1400.6875 39.925781 1400.460938 39.773438 1400.207031 39.671875 C 1399.949219 39.566406 1399.683594 39.515625 1399.410156 39.519531 C 1399.132812 39.523438 1398.867188 39.578125 1398.613281 39.691406 C 1398.359375 39.800781 1398.140625 39.957031 1397.949219 40.15625 C 1397.757812 40.355469 1397.613281 40.585938 1397.515625 40.84375 C 1397.417969 41.101562 1397.375 41.367188 1397.382812 41.644531 C 1397.394531 41.902344 1397.449219 42.152344 1397.554688 42.386719 C 1397.65625 42.625 1397.800781 42.835938 1397.984375 43.019531 C 1398.167969 43.203125 1398.375 43.34375 1398.613281 43.449219 C 1398.851562 43.550781 1399.097656 43.609375 1399.359375 43.617188 Z M 1121.929688 307.566406 L 1121.484375 307.398438 C 1114.121094 304.667969 1114.070312 319.007812 1121.484375 316.261719 L 1121.929688 316.097656 C 1122.386719 315.953125 1122.804688 315.746094 1123.195312 315.46875 C 1123.582031 315.191406 1123.917969 314.863281 1124.199219 314.480469 C 1124.480469 314.09375 1124.699219 313.675781 1124.847656 313.222656 C 1124.996094 312.773438 1125.070312 312.308594 1125.070312 311.832031 C 1125.070312 311.355469 1124.996094 310.890625 1124.847656 310.4375 C 1124.699219 309.984375 1124.480469 309.566406 1124.199219 309.183594 C 1123.917969 308.800781 1123.582031 308.46875 1123.195312 308.191406 C 1122.804688 307.917969 1122.386719 307.707031 1121.929688 307.566406 Z M 1105.902344 276.222656 C 1101.109375 276.222656 1101.109375 283.660156 1105.902344 283.660156 C 1110.695312 283.660156 1110.695312 276.222656 1105.902344 276.222656 Z M 1111.769531 585.601562 C 1111.550781 584.878906 1111.121094 584.320312 1110.476562 583.921875 C 1109.792969 583.539062 1109.074219 583.449219 1108.3125 583.644531 C 1107.726562 583.800781 1107.191406 584.0625 1106.703125 584.425781 C 1106.289062 584.738281 1105.949219 585.113281 1105.683594 585.554688 C 1105.59375 585.695312 1105.507812 585.84375 1105.417969 585.988281 C 1104.941406 586.824219 1104.824219 587.703125 1105.070312 588.632812 C 1105.140625 588.867188 1105.230469 589.089844 1105.34375 589.300781 C 1105.460938 589.515625 1105.59375 589.714844 1105.75 589.898438 C 1105.90625 590.085938 1106.082031 590.25 1106.273438 590.398438 C 1106.464844 590.546875 1106.671875 590.671875 1106.890625 590.777344 C 1107.109375 590.882812 1107.335938 590.964844 1107.570312 591.019531 C 1107.804688 591.078125 1108.042969 591.109375 1108.285156 591.117188 C 1108.527344 591.121094 1108.769531 591.101562 1109.007812 591.058594 C 1109.246094 591.015625 1109.476562 590.945312 1109.699219 590.851562 C 1110.128906 590.714844 1110.496094 590.476562 1110.800781 590.144531 C 1111.230469 589.71875 1111.523438 589.214844 1111.683594 588.632812 L 1111.683594 588.625 C 1111.921875 588.121094 1112.042969 587.589844 1112.046875 587.03125 C 1112.027344 586.539062 1111.933594 586.0625 1111.769531 585.601562 Z M 1188.050781 513.003906 C 1183.257812 513.003906 1183.253906 520.441406 1188.050781 520.441406 C 1192.84375 520.441406 1192.839844 513.003906 1188.050781 513.003906 Z M 1215.152344 544.894531 C 1210.359375 544.894531 1210.359375 552.328125 1215.152344 552.328125 C 1219.945312 552.328125 1219.945312 544.894531 1215.152344 544.894531 Z M 1223.128906 509.015625 C 1218.332031 509.015625 1218.335938 516.453125 1223.128906 516.453125 C 1227.917969 516.453125 1227.921875 509.015625 1223.128906 509.015625 Z M 1078.796875 646 C 1074.003906 646 1074 653.433594 1078.796875 653.433594 C 1083.589844 653.433594 1083.59375 646 1078.796875 646 Z M 1005.429688 468.367188 C 1005.148438 468.359375 1004.871094 468.402344 1004.605469 468.503906 C 1004.339844 468.605469 1004.105469 468.753906 1003.898438 468.949219 C 1003.695312 469.144531 1003.535156 469.375 1003.421875 469.632812 C 1003.308594 469.894531 1003.25 470.167969 1003.246094 470.449219 C 1003.242188 470.734375 1003.292969 471.007812 1003.402344 471.273438 C 1003.507812 471.535156 1003.660156 471.765625 1003.863281 471.96875 C 1004.0625 472.167969 1004.296875 472.324219 1004.558594 472.429688 C 1004.820312 472.535156 1005.097656 472.589844 1005.378906 472.585938 C 1005.664062 472.582031 1005.9375 472.523438 1006.195312 472.410156 C 1006.457031 472.296875 1006.6875 472.136719 1006.882812 471.929688 C 1007.078125 471.726562 1007.226562 471.488281 1007.328125 471.222656 C 1007.425781 470.957031 1007.472656 470.683594 1007.460938 470.398438 C 1007.453125 470.132812 1007.394531 469.878906 1007.289062 469.632812 C 1007.183594 469.390625 1007.035156 469.171875 1006.847656 468.984375 C 1006.65625 468.796875 1006.441406 468.648438 1006.195312 468.542969 C 1005.953125 468.4375 1005.699219 468.378906 1005.429688 468.367188 Z M 1398.5625 418.132812 C 1393.765625 418.132812 1393.769531 425.566406 1398.5625 425.566406 C 1403.351562 425.566406 1403.355469 418.132812 1398.5625 418.132812 Z M 1398.5625 390.230469 C 1393.765625 390.230469 1393.769531 397.664062 1398.5625 397.664062 C 1403.351562 397.664062 1403.355469 390.230469 1398.5625 390.230469 Z M 1290.824219 312.285156 C 1286.03125 312.285156 1286.03125 319.722656 1290.824219 319.722656 C 1295.617188 319.722656 1295.617188 312.285156 1290.824219 312.285156 Z M 1287.496094 154.59375 C 1282.703125 154.59375 1282.699219 162.027344 1287.496094 162.027344 C 1292.289062 162.027344 1292.285156 154.59375 1287.496094 154.59375 Z M 1020.453125 422.554688 C 1015.660156 422.554688 1015.660156 429.988281 1020.453125 429.988281 C 1025.246094 429.988281 1025.25 422.554688 1020.453125 422.554688 Z M 982.902344 355.558594 C 978.109375 355.558594 978.109375 362.992188 982.902344 362.992188 C 987.695312 362.992188 987.695312 355.558594 982.902344 355.558594 Z M 1011.042969 11.304688 C 1006.25 11.304688 1006.25 18.738281 1011.042969 18.738281 C 1015.835938 18.738281 1015.835938 11.304688 1011.042969 11.304688 Z M 991.402344 38.652344 C 986.609375 38.652344 986.609375 46.089844 991.402344 46.089844 C 996.195312 46.089844 996.195312 38.652344 991.402344 38.652344 Z M 1015.25 336.699219 C 1010.457031 336.699219 1010.457031 344.136719 1015.25 344.136719 C 1020.042969 344.136719 1020.046875 336.699219 1015.25 336.699219 Z M 1402.964844 302.542969 C 1398.171875 302.542969 1398.171875 309.980469 1402.964844 309.980469 C 1407.757812 309.980469 1407.757812 302.542969 1402.964844 302.542969 Z M 1402.964844 302.542969 " fill-opacity="1" fill-rule="nonzero"/><g clip-path="url(#609fa8edab)"><path fill="#f2f2f2" d="M 76.160156 888.664062 C 71.367188 888.664062 71.367188 881.230469 76.160156 881.230469 C 80.953125 881.230469 80.949219 888.664062 76.160156 888.664062 Z M 106.007812 854.300781 C 105.664062 854.09375 105.289062 853.988281 104.886719 853.988281 C 104.480469 853.988281 104.105469 854.09375 103.761719 854.300781 L 103.050781 854.773438 C 102.6875 854.988281 102.402344 855.273438 102.1875 855.636719 C 101.96875 856.011719 101.859375 856.414062 101.859375 856.847656 C 101.871094 857.503906 102.101562 858.070312 102.554688 858.546875 C 103.039062 858.984375 103.601562 859.214844 104.253906 859.242188 C 104.679688 859.242188 105.078125 859.136719 105.449219 858.921875 C 105.820312 858.710938 106.113281 858.421875 106.328125 858.054688 L 106.800781 857.339844 C 107.007812 856.996094 107.113281 856.621094 107.113281 856.214844 C 107.113281 855.8125 107.007812 855.4375 106.800781 855.09375 C 106.605469 854.761719 106.34375 854.496094 106.011719 854.300781 Z M 81.078125 839.785156 C 76.285156 839.785156 76.289062 847.21875 81.078125 847.21875 C 85.871094 847.21875 85.875 839.785156 81.078125 839.785156 Z M 99.347656 901.589844 C 94.550781 901.589844 94.554688 909.023438 99.347656 909.023438 C 104.136719 909.023438 104.144531 901.59375 99.347656 901.59375 Z M 232.117188 866.949219 C 227.320312 866.949219 227.320312 874.386719 232.117188 874.386719 C 236.910156 874.386719 236.910156 866.949219 232.117188 866.949219 Z M 221.578125 852.195312 C 216.78125 852.195312 216.785156 859.628906 221.578125 859.628906 C 226.371094 859.628906 226.371094 852.195312 221.578125 852.195312 Z M 256.703125 838.148438 C 251.910156 838.148438 251.910156 845.582031 256.703125 845.582031 C 261.496094 845.582031 261.496094 838.148438 256.703125 838.148438 Z M 292.015625 713.832031 C 287.222656 713.832031 287.226562 721.265625 292.015625 721.265625 C 296.808594 721.265625 296.8125 713.832031 292.015625 713.832031 Z M 294.125 739.816406 C 289.332031 739.816406 289.332031 747.253906 294.125 747.253906 C 298.917969 747.253906 298.917969 739.816406 294.125 739.816406 Z M 402.03125 725.683594 C 401.832031 725.570312 401.621094 725.503906 401.390625 725.480469 C 401.3125 725.394531 401.222656 725.316406 401.128906 725.25 C 400.839844 725.082031 400.527344 725.007812 400.195312 725.03125 C 399.863281 725.050781 399.566406 725.164062 399.300781 725.367188 C 399.035156 725.570312 398.851562 725.828125 398.746094 726.144531 C 398.636719 726.460938 398.628906 726.78125 398.71875 727.101562 L 398.738281 727.101562 C 398.835938 727.460938 399.011719 727.773438 399.273438 728.039062 C 399.53125 728.304688 399.839844 728.492188 400.195312 728.597656 C 400.679688 728.753906 401.164062 728.75 401.648438 728.578125 C 402.050781 728.449219 402.363281 728.207031 402.59375 727.851562 C 402.699219 727.671875 402.765625 727.476562 402.796875 727.269531 C 402.824219 727.058594 402.8125 726.855469 402.757812 726.652344 C 402.707031 726.449219 402.617188 726.261719 402.488281 726.09375 C 402.363281 725.925781 402.207031 725.789062 402.027344 725.683594 Z M 320.511719 820.402344 C 315.71875 820.402344 315.71875 827.835938 320.511719 827.835938 C 325.304688 827.835938 325.300781 820.402344 320.511719 820.402344 Z M 410.039062 784.480469 C 414.824219 784.480469 414.832031 777.042969 410.039062 777.042969 C 405.246094 777.042969 405.25 784.480469 410.039062 784.480469 Z M 250.527344 1386.667969 C 245.734375 1386.667969 245.730469 1394.101562 250.527344 1394.101562 C 255.320312 1394.101562 255.320312 1386.667969 250.527344 1386.667969 Z M 247.90625 1358.488281 C 243.113281 1358.488281 243.109375 1365.925781 247.90625 1365.925781 C 252.699219 1365.925781 252.695312 1358.488281 247.90625 1358.488281 Z M 263.636719 1362.421875 C 258.84375 1362.421875 258.84375 1369.855469 263.636719 1369.855469 C 268.429688 1369.855469 268.429688 1362.421875 263.636719 1362.421875 Z M 388.179688 1399.117188 C 383.386719 1399.117188 383.386719 1406.554688 388.179688 1406.554688 C 392.972656 1406.554688 392.972656 1399.117188 388.179688 1399.117188 Z M 382.9375 1366.351562 C 378.144531 1366.351562 378.144531 1373.789062 382.9375 1373.789062 C 387.730469 1373.789062 387.726562 1366.351562 382.933594 1366.351562 Z M 414.402344 1402.394531 C 409.609375 1402.394531 409.609375 1409.832031 414.402344 1409.832031 C 419.195312 1409.832031 419.191406 1402.394531 414.394531 1402.394531 Z M 384.664062 997.492188 C 389.453125 997.492188 389.460938 990.054688 384.664062 990.054688 C 379.871094 990.054688 379.863281 997.492188 384.660156 997.492188 Z M 371.109375 936.640625 C 366.316406 936.640625 366.316406 944.074219 371.109375 944.074219 C 375.902344 944.074219 375.894531 936.640625 371.101562 936.640625 Z M 409.382812 943.019531 C 404.585938 943.019531 404.589844 950.453125 409.382812 950.453125 C 414.171875 950.453125 414.167969 943.019531 409.375 943.019531 Z M 127.929688 799.832031 C 128.128906 799.488281 128.257812 799.117188 128.3125 798.722656 C 128.367188 798.328125 128.34375 797.9375 128.242188 797.550781 C 128.140625 797.164062 127.96875 796.8125 127.730469 796.496094 C 127.488281 796.175781 127.195312 795.917969 126.851562 795.714844 L 126.132812 795.414062 C 125.738281 795.285156 125.335938 795.269531 124.933594 795.359375 C 124.828125 795.371094 124.726562 795.390625 124.625 795.414062 L 124.605469 795.414062 L 123.972656 795.5 L 123.40625 795.738281 C 123.132812 795.882812 122.910156 796.089844 122.742188 796.351562 C 122.59375 796.496094 122.492188 796.671875 122.4375 796.871094 C 122.328125 797.058594 122.273438 797.257812 122.273438 797.46875 C 122.214844 797.679688 122.214844 797.890625 122.273438 798.101562 C 122.28125 798.261719 122.3125 798.421875 122.359375 798.574219 L 122.4375 799.128906 C 122.527344 799.515625 122.703125 799.855469 122.972656 800.144531 C 123.1875 800.476562 123.46875 800.734375 123.820312 800.921875 C 124.15625 801.140625 124.527344 801.257812 124.933594 801.277344 C 125.53125 801.347656 126.101562 801.253906 126.640625 800.992188 C 127.183594 800.730469 127.613281 800.34375 127.929688 799.832031 Z M 102.246094 781.921875 C 102.285156 781.921875 102.324219 781.921875 102.367188 781.921875 C 102.945312 781.929688 103.535156 781.972656 104.113281 781.941406 C 104.726562 781.925781 105.300781 781.769531 105.839844 781.480469 C 106.019531 781.382812 106.183594 781.257812 106.332031 781.117188 C 106.484375 780.976562 106.613281 780.816406 106.722656 780.644531 C 106.832031 780.46875 106.917969 780.28125 106.980469 780.085938 C 107.042969 779.890625 107.082031 779.6875 107.09375 779.484375 C 107.105469 779.277344 107.09375 779.074219 107.054688 778.871094 C 107.015625 778.667969 106.953125 778.472656 106.867188 778.289062 C 106.777344 778.101562 106.667969 777.929688 106.539062 777.769531 C 106.40625 777.609375 106.257812 777.46875 106.09375 777.347656 C 105.527344 776.941406 104.898438 776.726562 104.203125 776.695312 C 103.589844 776.667969 102.976562 776.675781 102.367188 776.710938 C 102.019531 776.703125 101.6875 776.761719 101.363281 776.886719 C 101.042969 777.011719 100.753906 777.191406 100.503906 777.429688 C 100.253906 777.671875 100.058594 777.949219 99.921875 778.261719 C 99.78125 778.578125 99.707031 778.910156 99.699219 779.253906 C 99.691406 779.601562 99.75 779.933594 99.875 780.257812 C 100 780.578125 100.179688 780.867188 100.417969 781.117188 C 100.660156 781.367188 100.9375 781.558594 101.253906 781.699219 C 101.566406 781.839844 101.898438 781.914062 102.246094 781.921875 Z M 162.976562 797.921875 C 158.179688 797.921875 158.179688 805.355469 162.976562 805.355469 C 167.769531 805.355469 167.773438 797.921875 162.976562 797.921875 Z M 130.695312 837.898438 L 131.410156 838.777344 C 131.664062 839.03125 131.96875 839.195312 132.324219 839.265625 C 132.679688 839.335938 133.023438 839.304688 133.355469 839.164062 C 133.691406 839.027344 133.957031 838.808594 134.15625 838.507812 C 134.359375 838.207031 134.457031 837.875 134.457031 837.515625 C 134.464844 837.019531 134.289062 836.597656 133.933594 836.253906 L 133.054688 835.539062 C 132.722656 835.230469 132.328125 835.070312 131.875 835.046875 C 131.65625 835.046875 131.441406 835.089844 131.238281 835.175781 C 131.03125 835.261719 130.851562 835.382812 130.695312 835.539062 C 130.539062 835.695312 130.417969 835.875 130.332031 836.078125 C 130.246094 836.285156 130.207031 836.496094 130.207031 836.71875 L 130.265625 837.164062 C 130.34375 837.445312 130.488281 837.691406 130.695312 837.898438 Z M 231.554688 724.835938 C 236.339844 724.835938 236.347656 717.402344 231.554688 717.402344 C 226.757812 717.402344 226.761719 724.835938 231.554688 724.835938 Z M 458.023438 791.542969 C 453.230469 791.542969 453.226562 798.980469 458.023438 798.980469 C 462.816406 798.980469 462.808594 791.542969 458.023438 791.542969 Z M 422.136719 757.449219 C 422.414062 757.457031 422.679688 757.414062 422.9375 757.316406 C 423.199219 757.21875 423.425781 757.074219 423.628906 756.882812 C 423.828125 756.695312 423.984375 756.472656 424.09375 756.21875 C 424.203125 755.964844 424.261719 755.699219 424.261719 755.425781 C 424.265625 755.148438 424.214844 754.882812 424.113281 754.625 C 424.007812 754.371094 423.859375 754.144531 423.664062 753.949219 C 423.46875 753.753906 423.242188 753.605469 422.984375 753.5 C 422.730469 753.398438 422.464844 753.347656 422.1875 753.347656 C 421.910156 753.351562 421.648438 753.410156 421.394531 753.519531 C 421.140625 753.628906 420.917969 753.785156 420.726562 753.984375 C 420.535156 754.1875 420.394531 754.414062 420.296875 754.671875 C 420.195312 754.933594 420.152344 755.199219 420.164062 755.476562 C 420.171875 755.734375 420.230469 755.980469 420.332031 756.21875 C 420.4375 756.457031 420.578125 756.667969 420.761719 756.847656 C 420.945312 757.03125 421.15625 757.175781 421.394531 757.28125 C 421.628906 757.382812 421.878906 757.4375 422.136719 757.449219 Z M 144.710938 1021.394531 L 144.261719 1021.230469 C 136.902344 1018.5 136.851562 1032.839844 144.261719 1030.09375 L 144.710938 1029.925781 C 145.164062 1029.785156 145.585938 1029.578125 145.972656 1029.300781 C 146.363281 1029.023438 146.695312 1028.691406 146.980469 1028.308594 C 147.261719 1027.925781 147.476562 1027.507812 147.625 1027.054688 C 147.773438 1026.601562 147.847656 1026.136719 147.847656 1025.660156 C 147.847656 1025.183594 147.773438 1024.71875 147.625 1024.269531 C 147.476562 1023.816406 147.261719 1023.398438 146.980469 1023.011719 C 146.695312 1022.628906 146.363281 1022.300781 145.972656 1022.023438 C 145.585938 1021.746094 145.164062 1021.539062 144.710938 1021.394531 Z M 128.679688 990.054688 C 123.886719 990.054688 123.886719 997.492188 128.679688 997.492188 C 133.472656 997.492188 133.472656 990.054688 128.679688 990.054688 Z M 134.546875 1299.433594 C 134.332031 1298.710938 133.898438 1298.148438 133.257812 1297.753906 C 132.574219 1297.371094 131.851562 1297.277344 131.09375 1297.476562 C 130.507812 1297.632812 129.96875 1297.894531 129.484375 1298.257812 C 129.070312 1298.566406 128.730469 1298.941406 128.460938 1299.386719 C 128.371094 1299.527344 128.285156 1299.675781 128.195312 1299.820312 C 127.71875 1300.652344 127.605469 1301.535156 127.851562 1302.464844 C 127.917969 1302.695312 128.007812 1302.917969 128.125 1303.132812 C 128.238281 1303.347656 128.375 1303.546875 128.53125 1303.730469 C 128.6875 1303.914062 128.863281 1304.082031 129.054688 1304.230469 C 129.246094 1304.378906 129.449219 1304.503906 129.667969 1304.609375 C 129.886719 1304.714844 130.113281 1304.792969 130.347656 1304.851562 C 130.585938 1304.90625 130.824219 1304.9375 131.066406 1304.945312 C 131.308594 1304.953125 131.546875 1304.933594 131.785156 1304.890625 C 132.023438 1304.84375 132.253906 1304.777344 132.480469 1304.683594 C 132.910156 1304.542969 133.277344 1304.308594 133.582031 1303.976562 C 134.007812 1303.550781 134.300781 1303.046875 134.464844 1302.464844 L 134.464844 1302.453125 C 134.703125 1301.949219 134.820312 1301.417969 134.824219 1300.859375 C 134.804688 1300.371094 134.714844 1299.894531 134.546875 1299.433594 Z M 210.828125 1226.832031 C 206.035156 1226.832031 206.035156 1234.269531 210.828125 1234.269531 C 215.621094 1234.269531 215.621094 1226.832031 210.828125 1226.832031 Z M 237.933594 1258.722656 C 233.140625 1258.722656 233.140625 1266.160156 237.933594 1266.160156 C 242.726562 1266.160156 242.726562 1258.722656 237.933594 1258.722656 Z M 245.90625 1222.847656 C 241.113281 1222.847656 241.113281 1230.285156 245.90625 1230.285156 C 250.699219 1230.285156 250.699219 1222.847656 245.90625 1222.847656 Z M 101.574219 1359.828125 C 96.78125 1359.828125 96.78125 1367.265625 101.574219 1367.265625 C 106.367188 1367.265625 106.371094 1359.828125 101.574219 1359.828125 Z M 28.210938 1182.199219 C 27.925781 1182.1875 27.652344 1182.234375 27.386719 1182.335938 C 27.121094 1182.4375 26.882812 1182.585938 26.679688 1182.78125 C 26.472656 1182.976562 26.3125 1183.203125 26.199219 1183.464844 C 26.085938 1183.726562 26.027344 1183.996094 26.023438 1184.28125 C 26.019531 1184.566406 26.074219 1184.839844 26.179688 1185.101562 C 26.289062 1185.367188 26.441406 1185.597656 26.640625 1185.796875 C 26.84375 1186 27.074219 1186.152344 27.339844 1186.261719 C 27.601562 1186.367188 27.875 1186.417969 28.160156 1186.414062 C 28.441406 1186.414062 28.714844 1186.355469 28.976562 1186.242188 C 29.238281 1186.125 29.464844 1185.96875 29.660156 1185.761719 C 29.855469 1185.554688 30.003906 1185.320312 30.105469 1185.054688 C 30.207031 1184.789062 30.253906 1184.515625 30.242188 1184.230469 C 30.230469 1183.964844 30.175781 1183.707031 30.066406 1183.464844 C 29.960938 1183.21875 29.8125 1183.003906 29.625 1182.816406 C 29.4375 1182.628906 29.21875 1182.480469 28.976562 1182.375 C 28.730469 1182.265625 28.476562 1182.210938 28.210938 1182.199219 Z M 421.339844 1131.964844 C 416.546875 1131.964844 416.546875 1139.398438 421.339844 1139.398438 C 426.132812 1139.398438 426.132812 1131.964844 421.339844 1131.964844 Z M 421.339844 1104.058594 C 416.546875 1104.058594 416.546875 1111.496094 421.339844 1111.496094 C 426.132812 1111.496094 426.132812 1104.058594 421.339844 1104.058594 Z M 313.605469 1026.117188 C 308.808594 1026.117188 308.8125 1033.550781 313.605469 1033.550781 C 318.398438 1033.550781 318.398438 1026.117188 313.605469 1026.117188 Z M 310.273438 868.425781 C 305.480469 868.425781 305.480469 875.859375 310.273438 875.859375 C 315.066406 875.859375 315.066406 868.425781 310.273438 868.425781 Z M 43.234375 1136.382812 C 38.441406 1136.382812 38.441406 1143.820312 43.234375 1143.820312 C 48.027344 1143.820312 48.027344 1136.382812 43.234375 1136.382812 Z M 5.683594 1069.386719 C 0.886719 1069.386719 0.890625 1076.820312 5.683594 1076.820312 C 10.476562 1076.820312 10.476562 1069.386719 5.683594 1069.386719 Z M 33.824219 725.132812 C 29.03125 725.132812 29.027344 732.570312 33.824219 732.570312 C 38.617188 732.570312 38.613281 725.132812 33.824219 725.132812 Z M 14.179688 752.484375 C 9.386719 752.484375 9.390625 759.917969 14.179688 759.917969 C 18.972656 759.917969 18.976562 752.484375 14.179688 752.484375 Z M 38.03125 1050.53125 C 33.238281 1050.53125 33.238281 1057.964844 38.03125 1057.964844 C 42.824219 1057.964844 42.824219 1050.53125 38.03125 1050.53125 Z M 425.746094 1016.375 C 420.953125 1016.375 420.953125 1023.808594 425.746094 1023.808594 C 430.539062 1023.808594 430.539062 1016.375 425.746094 1016.375 Z M 425.746094 1016.375 " fill-opacity="1" fill-rule="nonzero"/></g><g clip-path="url(#f7407975b0)"><path fill="#f2f2f2" d="M 564.359375 888.664062 C 559.566406 888.664062 559.566406 881.230469 564.359375 881.230469 C 569.152344 881.230469 569.148438 888.664062 564.359375 888.664062 Z M 594.210938 854.300781 C 593.863281 854.09375 593.488281 853.988281 593.085938 853.988281 C 592.679688 853.988281 592.304688 854.09375 591.960938 854.300781 L 591.25 854.773438 C 590.886719 854.988281 590.601562 855.273438 590.386719 855.636719 C 590.167969 856.011719 590.058594 856.414062 590.058594 856.847656 C 590.070312 857.503906 590.300781 858.070312 590.757812 858.546875 C 591.238281 858.984375 591.804688 859.214844 592.453125 859.242188 C 592.878906 859.242188 593.277344 859.136719 593.648438 858.921875 C 594.019531 858.710938 594.3125 858.421875 594.527344 858.054688 L 595 857.339844 C 595.207031 856.996094 595.3125 856.621094 595.3125 856.214844 C 595.3125 855.8125 595.207031 855.4375 595 855.09375 C 594.804688 854.761719 594.542969 854.496094 594.210938 854.300781 Z M 569.28125 839.785156 C 564.484375 839.785156 564.488281 847.21875 569.28125 847.21875 C 574.070312 847.21875 574.074219 839.785156 569.28125 839.785156 Z M 587.546875 901.589844 C 582.75 901.589844 582.753906 909.023438 587.546875 909.023438 C 592.335938 909.023438 592.34375 901.59375 587.546875 901.59375 Z M 720.316406 866.949219 C 715.519531 866.949219 715.519531 874.386719 720.316406 874.386719 C 725.109375 874.386719 725.109375 866.949219 720.316406 866.949219 Z M 709.777344 852.195312 C 704.984375 852.195312 704.984375 859.628906 709.777344 859.628906 C 714.570312 859.628906 714.570312 852.195312 709.777344 852.195312 Z M 744.902344 838.148438 C 740.109375 838.148438 740.109375 845.582031 744.902344 845.582031 C 749.699219 845.582031 749.699219 838.148438 744.902344 838.148438 Z M 780.21875 713.832031 C 775.421875 713.832031 775.425781 721.265625 780.21875 721.265625 C 785.007812 721.265625 785.011719 713.832031 780.21875 713.832031 Z M 782.324219 739.816406 C 777.53125 739.816406 777.53125 747.253906 782.324219 747.253906 C 787.117188 747.253906 787.117188 739.816406 782.324219 739.816406 Z M 890.230469 725.683594 C 890.03125 725.570312 889.820312 725.503906 889.589844 725.480469 C 889.511719 725.394531 889.421875 725.316406 889.328125 725.25 C 889.039062 725.082031 888.730469 725.007812 888.394531 725.03125 C 888.0625 725.050781 887.765625 725.164062 887.5 725.367188 C 887.234375 725.570312 887.050781 725.828125 886.945312 726.144531 C 886.839844 726.460938 886.828125 726.78125 886.917969 727.101562 L 886.9375 727.101562 C 887.035156 727.460938 887.210938 727.773438 887.472656 728.039062 C 887.730469 728.304688 888.039062 728.492188 888.394531 728.597656 C 888.878906 728.753906 889.363281 728.75 889.847656 728.578125 C 890.25 728.449219 890.5625 728.207031 890.792969 727.851562 C 890.898438 727.671875 890.964844 727.476562 890.996094 727.269531 C 891.023438 727.058594 891.011719 726.855469 890.960938 726.652344 C 890.90625 726.449219 890.816406 726.261719 890.6875 726.09375 C 890.5625 725.925781 890.40625 725.789062 890.226562 725.683594 Z M 808.710938 820.402344 C 803.917969 820.402344 803.921875 827.835938 808.710938 827.835938 C 813.503906 827.835938 813.503906 820.402344 808.710938 820.402344 Z M 898.238281 784.480469 C 903.023438 784.480469 903.03125 777.042969 898.238281 777.042969 C 893.445312 777.042969 893.449219 784.480469 898.238281 784.480469 Z M 738.726562 1386.667969 C 733.933594 1386.667969 733.933594 1394.101562 738.726562 1394.101562 C 743.519531 1394.101562 743.519531 1386.667969 738.726562 1386.667969 Z M 736.105469 1358.488281 C 731.3125 1358.488281 731.308594 1365.925781 736.105469 1365.925781 C 740.898438 1365.925781 740.894531 1358.488281 736.105469 1358.488281 Z M 751.835938 1362.421875 C 747.042969 1362.421875 747.046875 1369.855469 751.835938 1369.855469 C 756.628906 1369.855469 756.628906 1362.421875 751.835938 1362.421875 Z M 876.378906 1399.117188 C 871.585938 1399.117188 871.585938 1406.554688 876.378906 1406.554688 C 881.171875 1406.554688 881.171875 1399.117188 876.378906 1399.117188 Z M 871.136719 1366.351562 C 866.34375 1366.351562 866.34375 1373.789062 871.136719 1373.789062 C 875.929688 1373.789062 875.925781 1366.351562 871.132812 1366.351562 Z M 902.601562 1402.394531 C 897.808594 1402.394531 897.808594 1409.832031 902.601562 1409.832031 C 907.398438 1409.832031 907.390625 1402.394531 902.597656 1402.394531 Z M 872.867188 997.492188 C 877.652344 997.492188 877.660156 990.054688 872.867188 990.054688 C 868.070312 990.054688 868.066406 997.492188 872.859375 997.492188 Z M 859.308594 936.640625 C 854.515625 936.640625 854.515625 944.074219 859.308594 944.074219 C 864.105469 944.074219 864.09375 936.640625 859.304688 936.640625 Z M 897.582031 943.019531 C 892.785156 943.019531 892.789062 950.453125 897.582031 950.453125 C 902.375 950.453125 902.367188 943.019531 897.574219 943.019531 Z M 616.128906 799.832031 C 616.328125 799.488281 616.457031 799.117188 616.511719 798.722656 C 616.566406 798.328125 616.542969 797.9375 616.441406 797.550781 C 616.339844 797.164062 616.171875 796.8125 615.929688 796.496094 C 615.6875 796.175781 615.394531 795.917969 615.050781 795.714844 L 614.332031 795.414062 C 613.9375 795.285156 613.539062 795.269531 613.132812 795.359375 C 613.027344 795.371094 612.925781 795.390625 612.824219 795.414062 L 612.804688 795.414062 L 612.171875 795.5 L 611.605469 795.738281 C 611.332031 795.882812 611.109375 796.089844 610.941406 796.351562 C 610.792969 796.496094 610.691406 796.671875 610.636719 796.871094 C 610.527344 797.058594 610.472656 797.257812 610.472656 797.46875 C 610.417969 797.679688 610.417969 797.890625 610.472656 798.101562 C 610.480469 798.261719 610.511719 798.421875 610.558594 798.574219 L 610.636719 799.128906 C 610.726562 799.515625 610.902344 799.855469 611.171875 800.144531 C 611.386719 800.476562 611.667969 800.734375 612.019531 800.921875 C 612.355469 801.140625 612.730469 801.257812 613.132812 801.277344 C 613.730469 801.347656 614.300781 801.253906 614.839844 800.992188 C 615.382812 800.730469 615.8125 800.34375 616.128906 799.832031 Z M 590.445312 781.921875 C 590.484375 781.921875 590.523438 781.921875 590.566406 781.921875 C 591.144531 781.929688 591.734375 781.972656 592.3125 781.941406 C 592.925781 781.925781 593.5 781.769531 594.039062 781.480469 C 594.21875 781.382812 594.382812 781.257812 594.53125 781.117188 C 594.683594 780.976562 594.8125 780.816406 594.921875 780.644531 C 595.03125 780.46875 595.117188 780.28125 595.179688 780.085938 C 595.242188 779.890625 595.28125 779.6875 595.292969 779.484375 C 595.308594 779.277344 595.292969 779.074219 595.253906 778.871094 C 595.214844 778.667969 595.152344 778.472656 595.066406 778.289062 C 594.976562 778.101562 594.871094 777.929688 594.738281 777.769531 C 594.605469 777.609375 594.457031 777.46875 594.292969 777.347656 C 593.726562 776.941406 593.097656 776.726562 592.40625 776.695312 C 591.792969 776.667969 591.179688 776.675781 590.566406 776.710938 C 590.21875 776.703125 589.886719 776.761719 589.5625 776.886719 C 589.242188 777.011719 588.953125 777.191406 588.703125 777.429688 C 588.453125 777.671875 588.261719 777.949219 588.121094 778.261719 C 587.980469 778.578125 587.90625 778.910156 587.898438 779.253906 C 587.890625 779.601562 587.949219 779.933594 588.074219 780.257812 C 588.199219 780.578125 588.378906 780.867188 588.621094 781.117188 C 588.859375 781.367188 589.136719 781.558594 589.453125 781.699219 C 589.769531 781.839844 590.097656 781.914062 590.445312 781.921875 Z M 651.175781 797.921875 C 646.382812 797.921875 646.382812 805.355469 651.175781 805.355469 C 655.96875 805.355469 655.972656 797.921875 651.175781 797.921875 Z M 618.894531 837.898438 L 619.609375 838.777344 C 619.863281 839.03125 620.167969 839.195312 620.523438 839.265625 C 620.878906 839.335938 621.222656 839.304688 621.554688 839.164062 C 621.890625 839.027344 622.15625 838.808594 622.355469 838.507812 C 622.558594 838.207031 622.660156 837.875 622.660156 837.515625 C 622.664062 837.019531 622.488281 836.597656 622.136719 836.253906 L 621.253906 835.539062 C 620.921875 835.230469 620.527344 835.070312 620.074219 835.046875 C 619.855469 835.046875 619.640625 835.089844 619.4375 835.175781 C 619.230469 835.261719 619.050781 835.382812 618.894531 835.539062 C 618.738281 835.695312 618.617188 835.875 618.53125 836.078125 C 618.449219 836.285156 618.40625 836.496094 618.40625 836.71875 L 618.464844 837.164062 C 618.542969 837.445312 618.6875 837.691406 618.894531 837.898438 Z M 719.753906 724.835938 C 724.539062 724.835938 724.546875 717.402344 719.753906 717.402344 C 714.957031 717.402344 714.960938 724.835938 719.753906 724.835938 Z M 946.222656 791.542969 C 941.429688 791.542969 941.429688 798.980469 946.222656 798.980469 C 951.015625 798.980469 951.007812 791.542969 946.222656 791.542969 Z M 910.335938 757.449219 C 910.613281 757.457031 910.878906 757.414062 911.140625 757.316406 C 911.398438 757.21875 911.625 757.074219 911.828125 756.882812 C 912.027344 756.695312 912.183594 756.472656 912.292969 756.21875 C 912.402344 755.964844 912.460938 755.699219 912.464844 755.425781 C 912.464844 755.148438 912.417969 754.882812 912.3125 754.625 C 912.207031 754.371094 912.058594 754.144531 911.863281 753.949219 C 911.667969 753.753906 911.441406 753.605469 911.1875 753.5 C 910.929688 753.398438 910.664062 753.347656 910.386719 753.347656 C 910.109375 753.351562 909.847656 753.410156 909.59375 753.519531 C 909.339844 753.628906 909.117188 753.785156 908.925781 753.984375 C 908.738281 754.1875 908.59375 754.414062 908.496094 754.671875 C 908.398438 754.933594 908.351562 755.199219 908.363281 755.476562 C 908.371094 755.734375 908.429688 755.980469 908.53125 756.21875 C 908.636719 756.457031 908.777344 756.667969 908.960938 756.847656 C 909.144531 757.03125 909.355469 757.175781 909.59375 757.28125 C 909.832031 757.382812 910.078125 757.4375 910.335938 757.449219 Z M 632.910156 1021.394531 L 632.460938 1021.230469 C 625.101562 1018.5 625.050781 1032.839844 632.460938 1030.09375 L 632.910156 1029.925781 C 633.363281 1029.785156 633.785156 1029.578125 634.171875 1029.300781 C 634.5625 1029.023438 634.894531 1028.691406 635.179688 1028.308594 C 635.460938 1027.925781 635.675781 1027.507812 635.824219 1027.054688 C 635.972656 1026.601562 636.046875 1026.136719 636.046875 1025.660156 C 636.046875 1025.183594 635.972656 1024.71875 635.824219 1024.269531 C 635.675781 1023.816406 635.460938 1023.398438 635.179688 1023.011719 C 634.894531 1022.628906 634.5625 1022.300781 634.171875 1022.023438 C 633.785156 1021.746094 633.363281 1021.539062 632.910156 1021.394531 Z M 616.878906 990.054688 C 612.085938 990.054688 612.085938 997.492188 616.878906 997.492188 C 621.675781 997.492188 621.671875 990.054688 616.878906 990.054688 Z M 622.746094 1299.433594 C 622.53125 1298.710938 622.101562 1298.148438 621.457031 1297.753906 C 620.773438 1297.371094 620.050781 1297.277344 619.292969 1297.476562 C 618.707031 1297.632812 618.171875 1297.894531 617.683594 1298.257812 C 617.269531 1298.566406 616.929688 1298.941406 616.660156 1299.386719 C 616.570312 1299.527344 616.484375 1299.675781 616.394531 1299.820312 C 615.917969 1300.652344 615.804688 1301.535156 616.050781 1302.464844 C 616.117188 1302.695312 616.207031 1302.917969 616.324219 1303.132812 C 616.4375 1303.347656 616.574219 1303.546875 616.730469 1303.730469 C 616.886719 1303.914062 617.0625 1304.082031 617.253906 1304.230469 C 617.445312 1304.378906 617.648438 1304.503906 617.867188 1304.609375 C 618.085938 1304.714844 618.3125 1304.792969 618.546875 1304.851562 C 618.785156 1304.90625 619.023438 1304.9375 619.265625 1304.945312 C 619.507812 1304.953125 619.746094 1304.933594 619.984375 1304.890625 C 620.222656 1304.84375 620.453125 1304.777344 620.679688 1304.683594 C 621.109375 1304.542969 621.476562 1304.308594 621.78125 1303.976562 C 622.207031 1303.550781 622.503906 1303.046875 622.664062 1302.464844 L 622.664062 1302.453125 C 622.902344 1301.949219 623.023438 1301.417969 623.023438 1300.859375 C 623.007812 1300.371094 622.914062 1299.894531 622.746094 1299.433594 Z M 699.027344 1226.832031 C 694.234375 1226.832031 694.234375 1234.269531 699.027344 1234.269531 C 703.820312 1234.269531 703.820312 1226.832031 699.027344 1226.832031 Z M 726.132812 1258.722656 C 721.339844 1258.722656 721.339844 1266.160156 726.132812 1266.160156 C 730.925781 1266.160156 730.925781 1258.722656 726.132812 1258.722656 Z M 734.105469 1222.847656 C 729.3125 1222.847656 729.3125 1230.285156 734.105469 1230.285156 C 738.898438 1230.285156 738.898438 1222.847656 734.105469 1222.847656 Z M 589.773438 1359.828125 C 584.980469 1359.828125 584.980469 1367.265625 589.773438 1367.265625 C 594.566406 1367.265625 594.574219 1359.828125 589.773438 1359.828125 Z M 516.410156 1182.199219 C 516.125 1182.1875 515.851562 1182.234375 515.585938 1182.335938 C 515.320312 1182.4375 515.085938 1182.585938 514.878906 1182.78125 C 514.671875 1182.976562 514.511719 1183.203125 514.398438 1183.464844 C 514.285156 1183.726562 514.226562 1183.996094 514.222656 1184.28125 C 514.21875 1184.566406 514.273438 1184.839844 514.378906 1185.101562 C 514.488281 1185.367188 514.640625 1185.597656 514.839844 1185.796875 C 515.042969 1186 515.273438 1186.152344 515.539062 1186.261719 C 515.800781 1186.367188 516.074219 1186.417969 516.359375 1186.414062 C 516.644531 1186.414062 516.914062 1186.355469 517.175781 1186.242188 C 517.4375 1186.125 517.664062 1185.96875 517.859375 1185.761719 C 518.054688 1185.554688 518.203125 1185.320312 518.304688 1185.054688 C 518.40625 1184.789062 518.453125 1184.515625 518.441406 1184.230469 C 518.429688 1183.964844 518.375 1183.707031 518.265625 1183.464844 C 518.160156 1183.21875 518.011719 1183.003906 517.824219 1182.816406 C 517.636719 1182.628906 517.421875 1182.480469 517.175781 1182.375 C 516.929688 1182.265625 516.675781 1182.210938 516.410156 1182.199219 Z M 909.539062 1131.964844 C 904.746094 1131.964844 904.746094 1139.398438 909.539062 1139.398438 C 914.332031 1139.398438 914.332031 1131.964844 909.539062 1131.964844 Z M 909.539062 1104.058594 C 904.746094 1104.058594 904.746094 1111.496094 909.539062 1111.496094 C 914.332031 1111.496094 914.332031 1104.058594 909.539062 1104.058594 Z M 801.804688 1026.117188 C 797.011719 1026.117188 797.011719 1033.550781 801.804688 1033.550781 C 806.597656 1033.550781 806.597656 1026.117188 801.804688 1026.117188 Z M 798.472656 868.425781 C 793.679688 868.425781 793.679688 875.859375 798.472656 875.859375 C 803.265625 875.859375 803.265625 868.425781 798.472656 868.425781 Z M 531.433594 1136.382812 C 526.640625 1136.382812 526.640625 1143.820312 531.433594 1143.820312 C 536.226562 1143.820312 536.226562 1136.382812 531.433594 1136.382812 Z M 493.882812 1069.386719 C 489.089844 1069.386719 489.089844 1076.820312 493.882812 1076.820312 C 498.675781 1076.820312 498.675781 1069.386719 493.882812 1069.386719 Z M 522.023438 725.132812 C 517.230469 725.132812 517.230469 732.570312 522.023438 732.570312 C 526.816406 732.570312 526.816406 725.132812 522.023438 725.132812 Z M 502.378906 752.484375 C 497.585938 752.484375 497.589844 759.917969 502.378906 759.917969 C 507.171875 759.917969 507.175781 752.484375 502.378906 752.484375 Z M 526.230469 1050.53125 C 521.4375 1050.53125 521.4375 1057.964844 526.230469 1057.964844 C 531.023438 1057.964844 531.023438 1050.53125 526.230469 1050.53125 Z M 913.945312 1016.375 C 909.152344 1016.375 909.152344 1023.808594 913.945312 1023.808594 C 918.738281 1023.808594 918.738281 1016.375 913.945312 1016.375 Z M 913.945312 1016.375 " fill-opacity="1" fill-rule="nonzero"/></g><g clip-path="url(#d516b9811e)"><path fill="#f2f2f2" d="M 1066.859375 888.664062 C 1062.066406 888.664062 1062.066406 881.230469 1066.859375 881.230469 C 1071.652344 881.230469 1071.648438 888.664062 1066.859375 888.664062 Z M 1096.707031 854.300781 C 1096.363281 854.09375 1095.988281 853.988281 1095.585938 853.988281 C 1095.179688 853.988281 1094.804688 854.09375 1094.460938 854.300781 L 1093.75 854.773438 C 1093.386719 854.988281 1093.101562 855.273438 1092.886719 855.636719 C 1092.667969 856.011719 1092.558594 856.414062 1092.558594 856.847656 C 1092.570312 857.503906 1092.800781 858.070312 1093.253906 858.546875 C 1093.738281 858.984375 1094.300781 859.214844 1094.953125 859.242188 C 1095.378906 859.242188 1095.777344 859.136719 1096.148438 858.921875 C 1096.519531 858.710938 1096.8125 858.421875 1097.027344 858.054688 L 1097.5 857.339844 C 1097.707031 856.996094 1097.8125 856.621094 1097.8125 856.214844 C 1097.8125 855.8125 1097.707031 855.4375 1097.5 855.09375 C 1097.304688 854.761719 1097.042969 854.496094 1096.710938 854.300781 Z M 1071.777344 839.785156 C 1066.984375 839.785156 1066.988281 847.21875 1071.777344 847.21875 C 1076.570312 847.21875 1076.574219 839.785156 1071.777344 839.785156 Z M 1090.046875 901.589844 C 1085.25 901.589844 1085.253906 909.023438 1090.046875 909.023438 C 1094.835938 909.023438 1094.84375 901.59375 1090.046875 901.59375 Z M 1222.816406 866.949219 C 1218.019531 866.949219 1218.019531 874.386719 1222.816406 874.386719 C 1227.609375 874.386719 1227.609375 866.949219 1222.816406 866.949219 Z M 1212.277344 852.195312 C 1207.480469 852.195312 1207.484375 859.628906 1212.277344 859.628906 C 1217.070312 859.628906 1217.070312 852.195312 1212.277344 852.195312 Z M 1247.402344 838.148438 C 1242.609375 838.148438 1242.609375 845.582031 1247.402344 845.582031 C 1252.195312 845.582031 1252.195312 838.148438 1247.402344 838.148438 Z M 1282.71875 713.832031 C 1277.921875 713.832031 1277.925781 721.265625 1282.71875 721.265625 C 1287.507812 721.265625 1287.511719 713.832031 1282.71875 713.832031 Z M 1284.824219 739.816406 C 1280.03125 739.816406 1280.03125 747.253906 1284.824219 747.253906 C 1289.617188 747.253906 1289.617188 739.816406 1284.824219 739.816406 Z M 1392.730469 725.683594 C 1392.53125 725.570312 1392.320312 725.503906 1392.089844 725.480469 C 1392.011719 725.394531 1391.921875 725.316406 1391.828125 725.25 C 1391.539062 725.082031 1391.226562 725.007812 1390.894531 725.03125 C 1390.5625 725.050781 1390.265625 725.164062 1390 725.367188 C 1389.734375 725.570312 1389.550781 725.828125 1389.445312 726.144531 C 1389.339844 726.460938 1389.328125 726.78125 1389.417969 727.101562 L 1389.4375 727.101562 C 1389.535156 727.460938 1389.710938 727.773438 1389.972656 728.039062 C 1390.230469 728.304688 1390.539062 728.492188 1390.894531 728.597656 C 1391.378906 728.753906 1391.863281 728.75 1392.347656 728.578125 C 1392.75 728.449219 1393.0625 728.207031 1393.292969 727.851562 C 1393.398438 727.671875 1393.464844 727.476562 1393.496094 727.269531 C 1393.523438 727.058594 1393.511719 726.855469 1393.457031 726.652344 C 1393.40625 726.449219 1393.316406 726.261719 1393.1875 726.09375 C 1393.0625 725.925781 1392.90625 725.789062 1392.726562 725.683594 Z M 1311.210938 820.402344 C 1306.417969 820.402344 1306.417969 827.835938 1311.210938 827.835938 C 1316.003906 827.835938 1316 820.402344 1311.210938 820.402344 Z M 1400.738281 784.480469 C 1405.523438 784.480469 1405.53125 777.042969 1400.738281 777.042969 C 1395.945312 777.042969 1395.949219 784.480469 1400.738281 784.480469 Z M 1241.226562 1386.667969 C 1236.433594 1386.667969 1236.433594 1394.101562 1241.226562 1394.101562 C 1246.019531 1394.101562 1246.019531 1386.667969 1241.226562 1386.667969 Z M 1238.605469 1358.488281 C 1233.8125 1358.488281 1233.808594 1365.925781 1238.605469 1365.925781 C 1243.398438 1365.925781 1243.394531 1358.488281 1238.605469 1358.488281 Z M 1254.335938 1362.421875 C 1249.542969 1362.421875 1249.542969 1369.855469 1254.335938 1369.855469 C 1259.128906 1369.855469 1259.128906 1362.421875 1254.335938 1362.421875 Z M 1378.878906 1399.117188 C 1374.085938 1399.117188 1374.085938 1406.554688 1378.878906 1406.554688 C 1383.671875 1406.554688 1383.671875 1399.117188 1378.878906 1399.117188 Z M 1373.636719 1366.351562 C 1368.84375 1366.351562 1368.84375 1373.789062 1373.636719 1373.789062 C 1378.429688 1373.789062 1378.425781 1366.351562 1373.632812 1366.351562 Z M 1405.101562 1402.394531 C 1400.308594 1402.394531 1400.308594 1409.832031 1405.101562 1409.832031 C 1409.894531 1409.832031 1409.890625 1402.394531 1405.09375 1402.394531 Z M 1375.363281 997.492188 C 1380.152344 997.492188 1380.160156 990.054688 1375.363281 990.054688 C 1370.570312 990.054688 1370.5625 997.492188 1375.359375 997.492188 Z M 1361.808594 936.640625 C 1357.015625 936.640625 1357.015625 944.074219 1361.808594 944.074219 C 1366.601562 944.074219 1366.59375 936.640625 1361.800781 936.640625 Z M 1400.082031 943.019531 C 1395.285156 943.019531 1395.289062 950.453125 1400.082031 950.453125 C 1404.871094 950.453125 1404.867188 943.019531 1400.074219 943.019531 Z M 1118.628906 799.832031 C 1118.828125 799.488281 1118.957031 799.117188 1119.011719 798.722656 C 1119.066406 798.328125 1119.042969 797.9375 1118.941406 797.550781 C 1118.839844 797.164062 1118.667969 796.8125 1118.429688 796.496094 C 1118.1875 796.175781 1117.894531 795.917969 1117.550781 795.714844 L 1116.832031 795.414062 C 1116.4375 795.285156 1116.035156 795.269531 1115.632812 795.359375 C 1115.527344 795.371094 1115.425781 795.390625 1115.324219 795.414062 L 1115.304688 795.414062 L 1114.671875 795.5 L 1114.105469 795.738281 C 1113.832031 795.882812 1113.609375 796.089844 1113.441406 796.351562 C 1113.292969 796.496094 1113.191406 796.671875 1113.136719 796.871094 C 1113.027344 797.058594 1112.972656 797.257812 1112.972656 797.46875 C 1112.914062 797.679688 1112.914062 797.890625 1112.972656 798.101562 C 1112.980469 798.261719 1113.011719 798.421875 1113.058594 798.574219 L 1113.136719 799.128906 C 1113.226562 799.515625 1113.402344 799.855469 1113.671875 800.144531 C 1113.886719 800.476562 1114.167969 800.734375 1114.519531 800.921875 C 1114.855469 801.140625 1115.226562 801.257812 1115.632812 801.277344 C 1116.230469 801.347656 1116.800781 801.253906 1117.339844 800.992188 C 1117.882812 800.730469 1118.3125 800.34375 1118.628906 799.832031 Z M 1092.945312 781.921875 C 1092.984375 781.921875 1093.023438 781.921875 1093.066406 781.921875 C 1093.644531 781.929688 1094.234375 781.972656 1094.8125 781.941406 C 1095.425781 781.925781 1096 781.769531 1096.539062 781.480469 C 1096.71875 781.382812 1096.882812 781.257812 1097.03125 781.117188 C 1097.183594 780.976562 1097.3125 780.816406 1097.421875 780.644531 C 1097.53125 780.46875 1097.617188 780.28125 1097.679688 780.085938 C 1097.742188 779.890625 1097.78125 779.6875 1097.792969 779.484375 C 1097.804688 779.277344 1097.792969 779.074219 1097.753906 778.871094 C 1097.714844 778.667969 1097.652344 778.472656 1097.566406 778.289062 C 1097.476562 778.101562 1097.367188 777.929688 1097.238281 777.769531 C 1097.105469 777.609375 1096.957031 777.46875 1096.792969 777.347656 C 1096.226562 776.941406 1095.597656 776.726562 1094.902344 776.695312 C 1094.289062 776.667969 1093.679688 776.675781 1093.066406 776.710938 C 1092.71875 776.703125 1092.386719 776.761719 1092.0625 776.886719 C 1091.742188 777.011719 1091.453125 777.191406 1091.203125 777.429688 C 1090.953125 777.671875 1090.761719 777.949219 1090.621094 778.261719 C 1090.480469 778.578125 1090.40625 778.910156 1090.398438 779.253906 C 1090.390625 779.601562 1090.449219 779.933594 1090.574219 780.257812 C 1090.699219 780.578125 1090.878906 780.867188 1091.117188 781.117188 C 1091.359375 781.367188 1091.636719 781.558594 1091.953125 781.699219 C 1092.265625 781.839844 1092.597656 781.914062 1092.945312 781.921875 Z M 1153.675781 797.921875 C 1148.878906 797.921875 1148.878906 805.355469 1153.675781 805.355469 C 1158.46875 805.355469 1158.472656 797.921875 1153.675781 797.921875 Z M 1121.394531 837.898438 L 1122.109375 838.777344 C 1122.363281 839.03125 1122.667969 839.195312 1123.023438 839.265625 C 1123.378906 839.335938 1123.722656 839.304688 1124.054688 839.164062 C 1124.390625 839.027344 1124.65625 838.808594 1124.855469 838.507812 C 1125.058594 838.207031 1125.15625 837.875 1125.15625 837.515625 C 1125.164062 837.019531 1124.988281 836.597656 1124.632812 836.253906 L 1123.753906 835.539062 C 1123.421875 835.230469 1123.027344 835.070312 1122.574219 835.046875 C 1122.355469 835.046875 1122.140625 835.089844 1121.9375 835.175781 C 1121.730469 835.261719 1121.550781 835.382812 1121.394531 835.539062 C 1121.238281 835.695312 1121.117188 835.875 1121.03125 836.078125 C 1120.945312 836.285156 1120.90625 836.496094 1120.90625 836.71875 L 1120.964844 837.164062 C 1121.042969 837.445312 1121.1875 837.691406 1121.394531 837.898438 Z M 1222.253906 724.835938 C 1227.039062 724.835938 1227.046875 717.402344 1222.253906 717.402344 C 1217.457031 717.402344 1217.460938 724.835938 1222.253906 724.835938 Z M 1448.722656 791.542969 C 1443.929688 791.542969 1443.925781 798.980469 1448.722656 798.980469 C 1453.515625 798.980469 1453.507812 791.542969 1448.722656 791.542969 Z M 1412.835938 757.449219 C 1413.113281 757.457031 1413.378906 757.414062 1413.636719 757.316406 C 1413.898438 757.21875 1414.125 757.074219 1414.328125 756.882812 C 1414.527344 756.695312 1414.683594 756.472656 1414.792969 756.21875 C 1414.902344 755.964844 1414.960938 755.699219 1414.960938 755.425781 C 1414.964844 755.148438 1414.914062 754.882812 1414.8125 754.625 C 1414.707031 754.371094 1414.558594 754.144531 1414.363281 753.949219 C 1414.167969 753.753906 1413.941406 753.605469 1413.683594 753.5 C 1413.429688 753.398438 1413.164062 753.347656 1412.886719 753.347656 C 1412.609375 753.351562 1412.347656 753.410156 1412.09375 753.519531 C 1411.839844 753.628906 1411.617188 753.785156 1411.425781 753.984375 C 1411.238281 754.1875 1411.09375 754.414062 1410.996094 754.671875 C 1410.894531 754.933594 1410.851562 755.199219 1410.863281 755.476562 C 1410.871094 755.734375 1410.929688 755.980469 1411.03125 756.21875 C 1411.136719 756.457031 1411.277344 756.667969 1411.460938 756.847656 C 1411.644531 757.03125 1411.855469 757.175781 1412.09375 757.28125 C 1412.328125 757.382812 1412.578125 757.4375 1412.835938 757.449219 Z M 1135.410156 1021.394531 L 1134.960938 1021.230469 C 1127.601562 1018.5 1127.550781 1032.839844 1134.960938 1030.09375 L 1135.410156 1029.925781 C 1135.863281 1029.785156 1136.285156 1029.578125 1136.671875 1029.300781 C 1137.0625 1029.023438 1137.394531 1028.691406 1137.679688 1028.308594 C 1137.960938 1027.925781 1138.175781 1027.507812 1138.324219 1027.054688 C 1138.472656 1026.601562 1138.546875 1026.136719 1138.546875 1025.660156 C 1138.546875 1025.183594 1138.472656 1024.71875 1138.324219 1024.269531 C 1138.175781 1023.816406 1137.960938 1023.398438 1137.679688 1023.011719 C 1137.394531 1022.628906 1137.0625 1022.300781 1136.671875 1022.023438 C 1136.285156 1021.746094 1135.863281 1021.539062 1135.410156 1021.394531 Z M 1119.378906 990.054688 C 1114.585938 990.054688 1114.585938 997.492188 1119.378906 997.492188 C 1124.171875 997.492188 1124.171875 990.054688 1119.378906 990.054688 Z M 1125.246094 1299.433594 C 1125.03125 1298.710938 1124.597656 1298.148438 1123.957031 1297.753906 C 1123.273438 1297.371094 1122.550781 1297.277344 1121.792969 1297.476562 C 1121.207031 1297.632812 1120.667969 1297.894531 1120.183594 1298.257812 C 1119.769531 1298.566406 1119.429688 1298.941406 1119.160156 1299.386719 C 1119.070312 1299.527344 1118.984375 1299.675781 1118.894531 1299.820312 C 1118.417969 1300.652344 1118.304688 1301.535156 1118.550781 1302.464844 C 1118.617188 1302.695312 1118.707031 1302.917969 1118.824219 1303.132812 C 1118.9375 1303.347656 1119.074219 1303.546875 1119.230469 1303.730469 C 1119.386719 1303.914062 1119.5625 1304.082031 1119.753906 1304.230469 C 1119.945312 1304.378906 1120.148438 1304.503906 1120.367188 1304.609375 C 1120.585938 1304.714844 1120.8125 1304.792969 1121.046875 1304.851562 C 1121.285156 1304.90625 1121.523438 1304.9375 1121.765625 1304.945312 C 1122.007812 1304.953125 1122.246094 1304.933594 1122.484375 1304.890625 C 1122.722656 1304.84375 1122.953125 1304.777344 1123.179688 1304.683594 C 1123.609375 1304.542969 1123.976562 1304.308594 1124.28125 1303.976562 C 1124.707031 1303.550781 1125 1303.046875 1125.164062 1302.464844 L 1125.164062 1302.453125 C 1125.402344 1301.949219 1125.519531 1301.417969 1125.523438 1300.859375 C 1125.503906 1300.371094 1125.414062 1299.894531 1125.246094 1299.433594 Z M 1201.527344 1226.832031 C 1196.734375 1226.832031 1196.734375 1234.269531 1201.527344 1234.269531 C 1206.320312 1234.269531 1206.320312 1226.832031 1201.527344 1226.832031 Z M 1228.632812 1258.722656 C 1223.839844 1258.722656 1223.839844 1266.160156 1228.632812 1266.160156 C 1233.425781 1266.160156 1233.425781 1258.722656 1228.632812 1258.722656 Z M 1236.605469 1222.847656 C 1231.8125 1222.847656 1231.8125 1230.285156 1236.605469 1230.285156 C 1241.398438 1230.285156 1241.398438 1222.847656 1236.605469 1222.847656 Z M 1092.273438 1359.828125 C 1087.480469 1359.828125 1087.480469 1367.265625 1092.273438 1367.265625 C 1097.066406 1367.265625 1097.070312 1359.828125 1092.273438 1359.828125 Z M 1018.910156 1182.199219 C 1018.625 1182.1875 1018.351562 1182.234375 1018.085938 1182.335938 C 1017.820312 1182.4375 1017.582031 1182.585938 1017.378906 1182.78125 C 1017.171875 1182.976562 1017.011719 1183.203125 1016.898438 1183.464844 C 1016.785156 1183.726562 1016.726562 1183.996094 1016.722656 1184.28125 C 1016.71875 1184.566406 1016.773438 1184.839844 1016.878906 1185.101562 C 1016.988281 1185.367188 1017.140625 1185.597656 1017.339844 1185.796875 C 1017.542969 1186 1017.773438 1186.152344 1018.039062 1186.261719 C 1018.300781 1186.367188 1018.574219 1186.417969 1018.859375 1186.414062 C 1019.144531 1186.414062 1019.414062 1186.355469 1019.675781 1186.242188 C 1019.9375 1186.125 1020.164062 1185.96875 1020.359375 1185.761719 C 1020.554688 1185.554688 1020.703125 1185.320312 1020.804688 1185.054688 C 1020.90625 1184.789062 1020.953125 1184.515625 1020.941406 1184.230469 C 1020.929688 1183.964844 1020.875 1183.707031 1020.765625 1183.464844 C 1020.660156 1183.21875 1020.511719 1183.003906 1020.324219 1182.816406 C 1020.136719 1182.628906 1019.917969 1182.480469 1019.675781 1182.375 C 1019.429688 1182.265625 1019.175781 1182.210938 1018.910156 1182.199219 Z M 1412.039062 1131.964844 C 1407.246094 1131.964844 1407.246094 1139.398438 1412.039062 1139.398438 C 1416.832031 1139.398438 1416.832031 1131.964844 1412.039062 1131.964844 Z M 1412.039062 1104.058594 C 1407.246094 1104.058594 1407.246094 1111.496094 1412.039062 1111.496094 C 1416.832031 1111.496094 1416.832031 1104.058594 1412.039062 1104.058594 Z M 1304.304688 1026.117188 C 1299.507812 1026.117188 1299.511719 1033.550781 1304.304688 1033.550781 C 1309.097656 1033.550781 1309.097656 1026.117188 1304.304688 1026.117188 Z M 1300.972656 868.425781 C 1296.179688 868.425781 1296.179688 875.859375 1300.972656 875.859375 C 1305.765625 875.859375 1305.765625 868.425781 1300.972656 868.425781 Z M 1033.933594 1136.382812 C 1029.140625 1136.382812 1029.140625 1143.820312 1033.933594 1143.820312 C 1038.726562 1143.820312 1038.726562 1136.382812 1033.933594 1136.382812 Z M 996.382812 1069.386719 C 991.585938 1069.386719 991.589844 1076.820312 996.382812 1076.820312 C 1001.175781 1076.820312 1001.175781 1069.386719 996.382812 1069.386719 Z M 1024.523438 725.132812 C 1019.730469 725.132812 1019.726562 732.570312 1024.523438 732.570312 C 1029.316406 732.570312 1029.3125 725.132812 1024.523438 725.132812 Z M 1004.878906 752.484375 C 1000.085938 752.484375 1000.089844 759.917969 1004.878906 759.917969 C 1009.671875 759.917969 1009.675781 752.484375 1004.878906 752.484375 Z M 1028.730469 1050.53125 C 1023.9375 1050.53125 1023.9375 1057.964844 1028.730469 1057.964844 C 1033.523438 1057.964844 1033.523438 1050.53125 1028.730469 1050.53125 Z M 1416.445312 1016.375 C 1411.652344 1016.375 1411.652344 1023.808594 1416.445312 1023.808594 C 1421.238281 1023.808594 1421.238281 1016.375 1416.445312 1016.375 Z M 1416.445312 1016.375 " fill-opacity="1" fill-rule="nonzero"/></g></svg>