<svg xmlns="http://www.w3.org/2000/svg" xmlns:xlink="http://www.w3.org/1999/xlink" width="1920" zoomAndPan="magnify" viewBox="0 0 1440 809.999993" height="1080" preserveAspectRatio="xMidYMid meet" version="1.0"><defs><clipPath id="a735e54989"><path d="M 728 786.113281 L 1034 786.113281 L 1034 810 L 728 810 Z M 728 786.113281 " clip-rule="nonzero"/></clipPath><clipPath id="69b3c30c08"><path d="M 223 158 L 289 158 L 289 227 L 223 227 Z M 223 158 " clip-rule="nonzero"/></clipPath><clipPath id="8a83d9215e"><path d="M 26.417969 10.261719 L 262.472656 -235.132812 L 495.976562 -10.515625 L 259.917969 234.878906 Z M 26.417969 10.261719 " clip-rule="nonzero"/></clipPath><clipPath id="8e7e9aeb12"><path d="M 26.417969 10.261719 L 262.472656 -235.132812 L 495.976562 -10.515625 L 259.917969 234.878906 Z M 26.417969 10.261719 " clip-rule="nonzero"/></clipPath><clipPath id="46aaa4ab73"><path d="M 247 0 L 267 0 L 267 177 L 247 177 Z M 247 0 " clip-rule="nonzero"/></clipPath><clipPath id="f65550379c"><path d="M 26.417969 10.261719 L 262.472656 -235.132812 L 495.976562 -10.515625 L 259.917969 234.878906 Z M 26.417969 10.261719 " clip-rule="nonzero"/></clipPath><clipPath id="b095ee4db5"><path d="M 26.417969 10.261719 L 262.472656 -235.132812 L 495.976562 -10.515625 L 259.917969 234.878906 Z M 26.417969 10.261719 " clip-rule="nonzero"/></clipPath><clipPath id="84295d45c7"><path d="M 0 786.113281 L 295.960938 786.113281 L 295.960938 810 L 0 810 Z M 0 786.113281 " clip-rule="nonzero"/></clipPath><clipPath id="36f463675b"><path d="M 409 319 L 475 319 L 475 388 L 409 388 Z M 409 319 " clip-rule="nonzero"/></clipPath><clipPath id="b2d176b19c"><path d="M 212.265625 171.640625 L 448.320312 -73.75 L 681.824219 150.867188 L 445.765625 396.257812 Z M 212.265625 171.640625 " clip-rule="nonzero"/></clipPath><clipPath id="40082707f1"><path d="M 212.265625 171.640625 L 448.320312 -73.75 L 681.824219 150.867188 L 445.765625 396.257812 Z M 212.265625 171.640625 " clip-rule="nonzero"/></clipPath><clipPath id="7e96d4a98e"><path d="M 433 0 L 453 0 L 453 338 L 433 338 Z M 433 0 " clip-rule="nonzero"/></clipPath><clipPath id="5c5400cef4"><path d="M 212.265625 171.640625 L 448.320312 -73.75 L 681.824219 150.867188 L 445.765625 396.257812 Z M 212.265625 171.640625 " clip-rule="nonzero"/></clipPath><clipPath id="3fffd5d9e7"><path d="M 212.265625 171.640625 L 448.320312 -73.75 L 681.824219 150.867188 L 445.765625 396.257812 Z M 212.265625 171.640625 " clip-rule="nonzero"/></clipPath><clipPath id="0a9a0281b5"><path d="M 826 563 L 892 563 L 892 632 L 826 632 Z M 826 563 " clip-rule="nonzero"/></clipPath><clipPath id="2bab61357e"><path d="M 629.175781 415.261719 L 865.230469 169.867188 L 1098.734375 394.484375 L 862.675781 639.878906 Z M 629.175781 415.261719 " clip-rule="nonzero"/></clipPath><clipPath id="890f74b0e9"><path d="M 629.175781 415.261719 L 865.230469 169.867188 L 1098.734375 394.484375 L 862.675781 639.878906 Z M 629.175781 415.261719 " clip-rule="nonzero"/></clipPath><clipPath id="ac48b35774"><path d="M 850 170 L 870 170 L 870 582 L 850 582 Z M 850 170 " clip-rule="nonzero"/></clipPath><clipPath id="cdeda1202a"><path d="M 629.175781 415.261719 L 865.230469 169.867188 L 1098.734375 394.484375 L 862.675781 639.878906 Z M 629.175781 415.261719 " clip-rule="nonzero"/></clipPath><clipPath id="99f6758b46"><path d="M 629.175781 415.261719 L 865.230469 169.867188 L 1098.734375 394.484375 L 862.675781 639.878906 Z M 629.175781 415.261719 " clip-rule="nonzero"/></clipPath><clipPath id="2c9d6597af"><path d="M 644 643 L 710 643 L 710 712 L 644 712 Z M 644 643 " clip-rule="nonzero"/></clipPath><clipPath id="30f968db4c"><path d="M 446.925781 495.363281 L 682.980469 249.972656 L 916.484375 474.589844 L 680.429688 719.980469 Z M 446.925781 495.363281 " clip-rule="nonzero"/></clipPath><clipPath id="b1b90f5eb8"><path d="M 446.925781 495.363281 L 682.980469 249.972656 L 916.484375 474.589844 L 680.429688 719.980469 Z M 446.925781 495.363281 " clip-rule="nonzero"/></clipPath><clipPath id="2cc6533a22"><path d="M 668 250 L 688 250 L 688 662 L 668 662 Z M 668 250 " clip-rule="nonzero"/></clipPath><clipPath id="2aa6e281d0"><path d="M 446.925781 495.363281 L 682.980469 249.972656 L 916.484375 474.589844 L 680.429688 719.980469 Z M 446.925781 495.363281 " clip-rule="nonzero"/></clipPath><clipPath id="22cc94c5ec"><path d="M 446.925781 495.363281 L 682.980469 249.972656 L 916.484375 474.589844 L 680.429688 719.980469 Z M 446.925781 495.363281 " clip-rule="nonzero"/></clipPath><clipPath id="459bddedb2"><path d="M 668 158 L 734 158 L 734 227 L 668 227 Z M 668 158 " clip-rule="nonzero"/></clipPath><clipPath id="8416dd21b1"><path d="M 471.105469 10.261719 L 707.160156 -235.132812 L 940.664062 -10.515625 L 704.609375 234.878906 Z M 471.105469 10.261719 " clip-rule="nonzero"/></clipPath><clipPath id="6c1a4992dc"><path d="M 471.105469 10.261719 L 707.160156 -235.132812 L 940.664062 -10.515625 L 704.609375 234.878906 Z M 471.105469 10.261719 " clip-rule="nonzero"/></clipPath><clipPath id="82579ee254"><path d="M 692 0 L 712 0 L 712 177 L 692 177 Z M 692 0 " clip-rule="nonzero"/></clipPath><clipPath id="c48e116682"><path d="M 471.105469 10.261719 L 707.160156 -235.132812 L 940.664062 -10.515625 L 704.609375 234.878906 Z M 471.105469 10.261719 " clip-rule="nonzero"/></clipPath><clipPath id="03009d01a7"><path d="M 471.105469 10.261719 L 707.160156 -235.132812 L 940.664062 -10.515625 L 704.609375 234.878906 Z M 471.105469 10.261719 " clip-rule="nonzero"/></clipPath><clipPath id="5da3ed4b0b"><path d="M 265 652 L 332 652 L 332 721 L 265 721 Z M 265 652 " clip-rule="nonzero"/></clipPath><clipPath id="329dad3a0f"><path d="M 68.914062 504.378906 L 304.96875 258.988281 L 538.472656 483.605469 L 302.414062 728.996094 Z M 68.914062 504.378906 " clip-rule="nonzero"/></clipPath><clipPath id="f741f5c284"><path d="M 68.914062 504.378906 L 304.96875 258.988281 L 538.472656 483.605469 L 302.414062 728.996094 Z M 68.914062 504.378906 " clip-rule="nonzero"/></clipPath><clipPath id="db232f6437"><path d="M 290 259 L 310 259 L 310 671 L 290 671 Z M 290 259 " clip-rule="nonzero"/></clipPath><clipPath id="1470d5b65a"><path d="M 68.914062 504.378906 L 304.96875 258.988281 L 538.472656 483.605469 L 302.414062 728.996094 Z M 68.914062 504.378906 " clip-rule="nonzero"/></clipPath><clipPath id="222616a096"><path d="M 68.914062 504.378906 L 304.96875 258.988281 L 538.472656 483.605469 L 302.414062 728.996094 Z M 68.914062 504.378906 " clip-rule="nonzero"/></clipPath><clipPath id="1ecc2cf3c6"><path d="M 4 287 L 71 287 L 71 356 L 4 356 Z M 4 287 " clip-rule="nonzero"/></clipPath><clipPath id="377fbb0548"><path d="M -192.089844 139.449219 L 43.964844 -105.945312 L 277.464844 118.671875 L 41.410156 364.066406 Z M -192.089844 139.449219 " clip-rule="nonzero"/></clipPath><clipPath id="effb4ab3be"><path d="M -192.089844 139.449219 L 43.964844 -105.945312 L 277.464844 118.671875 L 41.410156 364.066406 Z M -192.089844 139.449219 " clip-rule="nonzero"/></clipPath><clipPath id="80d346baf2"><path d="M 29 0 L 49 0 L 49 306 L 29 306 Z M 29 0 " clip-rule="nonzero"/></clipPath><clipPath id="57f18ebf93"><path d="M -192.089844 139.449219 L 43.964844 -105.945312 L 277.464844 118.671875 L 41.410156 364.066406 Z M -192.089844 139.449219 " clip-rule="nonzero"/></clipPath><clipPath id="4fca5cb38f"><path d="M -192.089844 139.449219 L 43.964844 -105.945312 L 277.464844 118.671875 L 41.410156 364.066406 Z M -192.089844 139.449219 " clip-rule="nonzero"/></clipPath><clipPath id="8580c204a6"><path d="M 996 304 L 1062 304 L 1062 374 L 996 374 Z M 996 304 " clip-rule="nonzero"/></clipPath><clipPath id="358f4dc5b6"><path d="M 799.253906 156.9375 L 1035.308594 -88.457031 L 1268.8125 136.160156 L 1032.753906 381.554688 Z M 799.253906 156.9375 " clip-rule="nonzero"/></clipPath><clipPath id="b4852088cc"><path d="M 799.253906 156.9375 L 1035.308594 -88.457031 L 1268.8125 136.160156 L 1032.753906 381.554688 Z M 799.253906 156.9375 " clip-rule="nonzero"/></clipPath><clipPath id="e0ce9a4723"><path d="M 1020 0 L 1040 0 L 1040 324 L 1020 324 Z M 1020 0 " clip-rule="nonzero"/></clipPath><clipPath id="c8dd7706a6"><path d="M 799.253906 156.9375 L 1035.308594 -88.457031 L 1268.8125 136.160156 L 1032.753906 381.554688 Z M 799.253906 156.9375 " clip-rule="nonzero"/></clipPath><clipPath id="ef89632f49"><path d="M 799.253906 156.9375 L 1035.308594 -88.457031 L 1268.8125 136.160156 L 1032.753906 381.554688 Z M 799.253906 156.9375 " clip-rule="nonzero"/></clipPath><clipPath id="09d0c2ed50"><path d="M 1184 145 L 1250 145 L 1250 214 L 1184 214 Z M 1184 145 " clip-rule="nonzero"/></clipPath><clipPath id="facfeb6e5a"><path d="M 987.5 -2.207031 L 1223.554688 -247.597656 L 1457.054688 -22.980469 L 1221 222.410156 Z M 987.5 -2.207031 " clip-rule="nonzero"/></clipPath><clipPath id="7fad0e442b"><path d="M 987.5 -2.207031 L 1223.554688 -247.597656 L 1457.054688 -22.980469 L 1221 222.410156 Z M 987.5 -2.207031 " clip-rule="nonzero"/></clipPath><clipPath id="862314c476"><path d="M 1208 0 L 1228 0 L 1228 164 L 1208 164 Z M 1208 0 " clip-rule="nonzero"/></clipPath><clipPath id="d59723d9b6"><path d="M 987.5 -2.207031 L 1223.554688 -247.597656 L 1457.054688 -22.980469 L 1221 222.410156 Z M 987.5 -2.207031 " clip-rule="nonzero"/></clipPath><clipPath id="6692a7ca89"><path d="M 987.5 -2.207031 L 1223.554688 -247.597656 L 1457.054688 -22.980469 L 1221 222.410156 Z M 987.5 -2.207031 " clip-rule="nonzero"/></clipPath><clipPath id="113e75f20d"><path d="M 1321 587 L 1387 587 L 1387 656 L 1321 656 Z M 1321 587 " clip-rule="nonzero"/></clipPath><clipPath id="312aafe296"><path d="M 1124.339844 439.496094 L 1360.394531 194.101562 L 1593.894531 418.71875 L 1357.839844 664.113281 Z M 1124.339844 439.496094 " clip-rule="nonzero"/></clipPath><clipPath id="35daf37f36"><path d="M 1124.339844 439.496094 L 1360.394531 194.101562 L 1593.894531 418.71875 L 1357.839844 664.113281 Z M 1124.339844 439.496094 " clip-rule="nonzero"/></clipPath><clipPath id="1e5d8869d3"><path d="M 1345 194 L 1365 194 L 1365 606 L 1345 606 Z M 1345 194 " clip-rule="nonzero"/></clipPath><clipPath id="5601b03744"><path d="M 1124.339844 439.496094 L 1360.394531 194.101562 L 1593.894531 418.71875 L 1357.839844 664.113281 Z M 1124.339844 439.496094 " clip-rule="nonzero"/></clipPath><clipPath id="0b6eb895c0"><path d="M 1124.339844 439.496094 L 1360.394531 194.101562 L 1593.894531 418.71875 L 1357.839844 664.113281 Z M 1124.339844 439.496094 " clip-rule="nonzero"/></clipPath><clipPath id="709f597a7c"><path d="M 474 722 L 540 722 L 540 791 L 474 791 Z M 474 722 " clip-rule="nonzero"/></clipPath><clipPath id="16046db0dc"><path d="M 277.230469 574.164062 L 513.285156 328.773438 L 746.785156 553.390625 L 510.730469 798.78125 Z M 277.230469 574.164062 " clip-rule="nonzero"/></clipPath><clipPath id="a891909302"><path d="M 277.230469 574.164062 L 513.285156 328.773438 L 746.785156 553.390625 L 510.730469 798.78125 Z M 277.230469 574.164062 " clip-rule="nonzero"/></clipPath><clipPath id="0aa71fab53"><path d="M 498 329 L 518 329 L 518 741 L 498 741 Z M 498 329 " clip-rule="nonzero"/></clipPath><clipPath id="9361c9f40c"><path d="M 277.230469 574.164062 L 513.285156 328.773438 L 746.785156 553.390625 L 510.730469 798.78125 Z M 277.230469 574.164062 " clip-rule="nonzero"/></clipPath><clipPath id="9f93e6f320"><path d="M 277.230469 574.164062 L 513.285156 328.773438 L 746.785156 553.390625 L 510.730469 798.78125 Z M 277.230469 574.164062 " clip-rule="nonzero"/></clipPath><clipPath id="04f15c1f79"><path d="M 105 722 L 171 722 L 171 791 L 105 791 Z M 105 722 " clip-rule="nonzero"/></clipPath><clipPath id="1318d14b02"><path d="M -91.644531 574.164062 L 144.410156 328.773438 L 377.910156 553.390625 L 141.855469 798.78125 Z M -91.644531 574.164062 " clip-rule="nonzero"/></clipPath><clipPath id="0975650807"><path d="M -91.644531 574.164062 L 144.410156 328.773438 L 377.910156 553.390625 L 141.855469 798.78125 Z M -91.644531 574.164062 " clip-rule="nonzero"/></clipPath><clipPath id="4100849ffb"><path d="M 129 329 L 149 329 L 149 741 L 129 741 Z M 129 329 " clip-rule="nonzero"/></clipPath><clipPath id="bd56fc5efa"><path d="M -91.644531 574.164062 L 144.410156 328.773438 L 377.910156 553.390625 L 141.855469 798.78125 Z M -91.644531 574.164062 " clip-rule="nonzero"/></clipPath><clipPath id="bd247c3c81"><path d="M -91.644531 574.164062 L 144.410156 328.773438 L 377.910156 553.390625 L 141.855469 798.78125 Z M -91.644531 574.164062 " clip-rule="nonzero"/></clipPath><clipPath id="c59f5849ae"><path d="M 1102 677 L 1168 677 L 1168 746 L 1102 746 Z M 1102 677 " clip-rule="nonzero"/></clipPath><clipPath id="dcd5f5d78d"><path d="M 905.082031 529.640625 L 1141.136719 284.246094 L 1374.640625 508.863281 L 1138.582031 754.257812 Z M 905.082031 529.640625 " clip-rule="nonzero"/></clipPath><clipPath id="fce802c558"><path d="M 905.082031 529.640625 L 1141.136719 284.246094 L 1374.640625 508.863281 L 1138.582031 754.257812 Z M 905.082031 529.640625 " clip-rule="nonzero"/></clipPath><clipPath id="f41267202c"><path d="M 1126 285 L 1146 285 L 1146 696 L 1126 696 Z M 1126 285 " clip-rule="nonzero"/></clipPath><clipPath id="caac570a42"><path d="M 905.082031 529.640625 L 1141.136719 284.246094 L 1374.640625 508.863281 L 1138.582031 754.257812 Z M 905.082031 529.640625 " clip-rule="nonzero"/></clipPath><clipPath id="b6090d5668"><path d="M 905.082031 529.640625 L 1141.136719 284.246094 L 1374.640625 508.863281 L 1138.582031 754.257812 Z M 905.082031 529.640625 " clip-rule="nonzero"/></clipPath></defs><g clip-path="url(#a735e54989)"><path fill="#ffffff" d="M 740.675781 1074.570312 L 734.714844 1067.128906 L 728.757812 1059.6875 C 830.453125 968.765625 932.148438 877.839844 1033.84375 786.917969 C 936.121094 882.804688 838.398438 978.6875 740.675781 1074.570312 " fill-opacity="1" fill-rule="nonzero"/></g><g clip-path="url(#69b3c30c08)"><g clip-path="url(#8a83d9215e)"><g clip-path="url(#8e7e9aeb12)"><path fill="#ffffff" d="M 254.027344 226.269531 L 254.066406 226.242188 L 263.964844 203.503906 L 288.027344 204.195312 C 288.234375 204.195312 288.386719 204.097656 288.488281 203.902344 C 288.5625 203.703125 288.527344 203.527344 288.386719 203.371094 L 271.433594 186.308594 L 280.636719 160.628906 C 280.507812 160.308594 280.277344 160.207031 279.945312 160.324219 L 257.363281 173.550781 L 236.183594 158.40625 C 235.992188 158.292969 235.8125 158.285156 235.640625 158.390625 C 235.46875 158.511719 235.394531 158.679688 235.425781 158.886719 L 240.015625 183.867188 L 223.644531 199.234375 C 223.523438 199.335938 223.480469 199.492188 223.507812 199.699219 C 223.546875 199.894531 223.6875 200.019531 223.929688 200.070312 L 245.71875 202.136719 L 253.3125 226.003906 C 253.457031 226.324219 253.699219 226.410156 254.027344 226.269531 Z M 254.027344 226.269531 " fill-opacity="1" fill-rule="nonzero"/></g></g></g><g clip-path="url(#46aaa4ab73)"><g clip-path="url(#f65550379c)"><g clip-path="url(#b095ee4db5)"><path fill="#ffffff" d="M 266.832031 176.425781 L 257.335938 175.5625 L 247.84375 174.695312 C 252.820312 38.371094 257.792969 -97.949219 262.769531 -234.273438 C 264.125 -97.375 265.476562 39.527344 266.832031 176.425781 " fill-opacity="1" fill-rule="nonzero"/></g></g></g><g clip-path="url(#84295d45c7)"><path fill="#ffffff" d="M 2.378906 1074.570312 L -3.582031 1067.128906 L -9.539062 1059.6875 C 92.15625 968.765625 193.851562 877.839844 295.546875 786.917969 C 197.824219 882.804688 100.101562 978.6875 2.378906 1074.570312 " fill-opacity="1" fill-rule="nonzero"/></g><g clip-path="url(#36f463675b)"><g clip-path="url(#b2d176b19c)"><g clip-path="url(#40082707f1)"><path fill="#ffffff" d="M 439.875 387.648438 L 439.914062 387.621094 L 449.8125 364.882812 L 473.878906 365.574219 C 474.082031 365.574219 474.234375 365.476562 474.335938 365.28125 C 474.410156 365.085938 474.375 364.90625 474.234375 364.75 L 457.28125 347.6875 L 466.484375 322.007812 C 466.355469 321.691406 466.125 321.589844 465.792969 321.703125 L 443.210938 334.929688 L 422.03125 319.789062 C 421.839844 319.671875 421.660156 319.667969 421.488281 319.773438 C 421.316406 319.894531 421.242188 320.058594 421.273438 320.269531 L 425.863281 345.25 L 409.492188 360.617188 C 409.375 360.71875 409.328125 360.871094 409.355469 361.078125 C 409.394531 361.273438 409.535156 361.398438 409.78125 361.449219 L 431.566406 363.515625 L 439.160156 387.382812 C 439.308594 387.703125 439.546875 387.792969 439.875 387.648438 Z M 439.875 387.648438 " fill-opacity="1" fill-rule="nonzero"/></g></g></g><g clip-path="url(#7e96d4a98e)"><g clip-path="url(#5c5400cef4)"><g clip-path="url(#3fffd5d9e7)"><path fill="#ffffff" d="M 452.679688 337.808594 L 443.1875 336.941406 L 433.691406 336.074219 C 438.667969 199.753906 443.640625 63.429688 448.617188 -72.894531 C 449.972656 64.007812 451.324219 200.90625 452.679688 337.808594 " fill-opacity="1" fill-rule="nonzero"/></g></g></g><g clip-path="url(#0a9a0281b5)"><g clip-path="url(#2bab61357e)"><g clip-path="url(#890f74b0e9)"><path fill="#ffffff" d="M 856.785156 631.269531 L 856.824219 631.242188 L 866.722656 608.503906 L 890.785156 609.195312 C 890.992188 609.195312 891.144531 609.097656 891.246094 608.902344 C 891.320312 608.703125 891.285156 608.527344 891.144531 608.371094 L 874.1875 591.308594 L 883.390625 565.628906 C 883.265625 565.308594 883.035156 565.207031 882.703125 565.324219 L 860.121094 578.550781 L 838.9375 563.40625 C 838.75 563.292969 838.570312 563.285156 838.398438 563.390625 C 838.226562 563.511719 838.152344 563.679688 838.183594 563.886719 L 842.773438 588.867188 L 826.402344 604.234375 C 826.28125 604.335938 826.234375 604.492188 826.261719 604.699219 C 826.304688 604.894531 826.445312 605.019531 826.6875 605.070312 L 848.476562 607.136719 L 856.070312 631.003906 C 856.214844 631.324219 856.453125 631.410156 856.785156 631.269531 Z M 856.785156 631.269531 " fill-opacity="1" fill-rule="nonzero"/></g></g></g><g clip-path="url(#ac48b35774)"><g clip-path="url(#cdeda1202a)"><g clip-path="url(#99f6758b46)"><path fill="#ffffff" d="M 869.589844 581.425781 L 860.09375 580.5625 L 850.601562 579.695312 C 855.574219 443.371094 860.550781 307.050781 865.527344 170.726562 C 866.882812 307.625 868.234375 444.527344 869.589844 581.425781 " fill-opacity="1" fill-rule="nonzero"/></g></g></g><g clip-path="url(#2c9d6597af)"><g clip-path="url(#30f968db4c)"><g clip-path="url(#b1b90f5eb8)"><path fill="#ffffff" d="M 674.535156 711.371094 L 674.574219 711.34375 L 684.472656 688.609375 L 708.539062 689.296875 C 708.742188 689.296875 708.894531 689.203125 708.996094 689.007812 C 709.070312 688.808594 709.035156 688.628906 708.894531 688.472656 L 691.941406 671.410156 L 701.144531 645.730469 C 701.015625 645.414062 700.785156 645.3125 700.453125 645.429688 L 677.871094 658.652344 L 656.691406 643.511719 C 656.5 643.394531 656.320312 643.390625 656.148438 643.496094 C 655.976562 643.617188 655.902344 643.78125 655.933594 643.992188 L 660.523438 668.972656 L 644.152344 684.339844 C 644.035156 684.441406 643.988281 684.59375 644.015625 684.804688 C 644.054688 684.996094 644.195312 685.121094 644.441406 685.171875 L 666.226562 687.238281 L 673.820312 711.109375 C 673.96875 711.425781 674.207031 711.515625 674.535156 711.371094 Z M 674.535156 711.371094 " fill-opacity="1" fill-rule="nonzero"/></g></g></g><g clip-path="url(#2cc6533a22)"><g clip-path="url(#2aa6e281d0)"><g clip-path="url(#22cc94c5ec)"><path fill="#ffffff" d="M 687.339844 661.53125 L 677.847656 660.664062 L 668.351562 659.800781 C 673.328125 523.476562 678.300781 387.152344 683.277344 250.828125 C 684.632812 387.730469 685.984375 524.632812 687.339844 661.53125 " fill-opacity="1" fill-rule="nonzero"/></g></g></g><g clip-path="url(#459bddedb2)"><g clip-path="url(#8416dd21b1)"><g clip-path="url(#6c1a4992dc)"><path fill="#ffffff" d="M 698.714844 226.269531 L 698.753906 226.242188 L 708.652344 203.503906 L 732.71875 204.195312 C 732.921875 204.195312 733.074219 204.097656 733.175781 203.902344 C 733.25 203.703125 733.21875 203.527344 733.074219 203.371094 L 716.121094 186.308594 L 725.324219 160.628906 C 725.195312 160.308594 724.964844 160.207031 724.632812 160.324219 L 702.050781 173.550781 L 680.871094 158.40625 C 680.679688 158.292969 680.5 158.285156 680.328125 158.390625 C 680.15625 158.511719 680.082031 158.679688 680.113281 158.886719 L 684.703125 183.867188 L 668.335938 199.234375 C 668.214844 199.335938 668.167969 199.492188 668.195312 199.699219 C 668.234375 199.894531 668.375 200.019531 668.621094 200.070312 L 690.40625 202.136719 L 698 226.003906 C 698.148438 226.324219 698.386719 226.410156 698.714844 226.269531 Z M 698.714844 226.269531 " fill-opacity="1" fill-rule="nonzero"/></g></g></g><g clip-path="url(#82579ee254)"><g clip-path="url(#c48e116682)"><g clip-path="url(#03009d01a7)"><path fill="#ffffff" d="M 711.519531 176.425781 L 702.027344 175.5625 L 692.53125 174.695312 C 697.507812 38.371094 702.480469 -97.949219 707.457031 -234.273438 C 708.8125 -97.375 710.167969 39.527344 711.519531 176.425781 " fill-opacity="1" fill-rule="nonzero"/></g></g></g><g clip-path="url(#5da3ed4b0b)"><g clip-path="url(#329dad3a0f)"><g clip-path="url(#f741f5c284)"><path fill="#ffffff" d="M 296.523438 720.386719 L 296.5625 720.359375 L 306.460938 697.621094 L 330.523438 698.3125 C 330.730469 698.3125 330.882812 698.214844 330.984375 698.019531 C 331.058594 697.824219 331.023438 697.644531 330.882812 697.488281 L 313.929688 680.425781 L 323.132812 654.746094 C 323.003906 654.425781 322.773438 654.328125 322.441406 654.441406 L 299.859375 667.667969 L 278.679688 652.527344 C 278.488281 652.410156 278.308594 652.40625 278.136719 652.511719 C 277.964844 652.632812 277.890625 652.796875 277.921875 653.007812 L 282.511719 677.988281 L 266.140625 693.355469 C 266.019531 693.457031 265.976562 693.609375 266.003906 693.816406 C 266.042969 694.011719 266.183594 694.136719 266.425781 694.1875 L 288.214844 696.253906 L 295.808594 720.121094 C 295.953125 720.441406 296.195312 720.53125 296.523438 720.386719 Z M 296.523438 720.386719 " fill-opacity="1" fill-rule="nonzero"/></g></g></g><g clip-path="url(#db232f6437)"><g clip-path="url(#1470d5b65a)"><g clip-path="url(#222616a096)"><path fill="#ffffff" d="M 309.328125 670.546875 L 299.832031 669.679688 L 290.339844 668.8125 C 295.316406 532.492188 300.289062 396.167969 305.265625 259.84375 C 306.621094 396.746094 307.972656 533.644531 309.328125 670.546875 " fill-opacity="1" fill-rule="nonzero"/></g></g></g><g clip-path="url(#1ecc2cf3c6)"><g clip-path="url(#377fbb0548)"><g clip-path="url(#effb4ab3be)"><path fill="#ffffff" d="M 35.519531 355.453125 L 35.558594 355.425781 L 45.457031 332.691406 L 69.519531 333.378906 C 69.726562 333.378906 69.878906 333.285156 69.976562 333.089844 C 70.054688 332.890625 70.019531 332.710938 69.875 332.554688 L 52.921875 315.492188 L 62.125 289.8125 C 62 289.496094 61.769531 289.394531 61.433594 289.511719 L 38.851562 302.738281 L 17.671875 287.59375 C 17.484375 287.476562 17.300781 287.472656 17.132812 287.578125 C 16.957031 287.699219 16.886719 287.863281 16.914062 288.074219 L 21.507812 313.054688 L 5.136719 328.421875 C 5.015625 328.523438 4.96875 328.679688 4.996094 328.886719 C 5.039062 329.082031 5.179688 329.203125 5.421875 329.257812 L 27.210938 331.320312 L 34.800781 355.191406 C 34.949219 355.511719 35.1875 355.597656 35.519531 355.453125 Z M 35.519531 355.453125 " fill-opacity="1" fill-rule="nonzero"/></g></g></g><g clip-path="url(#80d346baf2)"><g clip-path="url(#57f18ebf93)"><g clip-path="url(#4fca5cb38f)"><path fill="#ffffff" d="M 48.324219 305.613281 L 38.828125 304.746094 L 29.332031 303.882812 C 34.308594 167.558594 39.285156 31.234375 44.261719 -105.085938 C 45.613281 31.8125 46.96875 168.714844 48.324219 305.613281 " fill-opacity="1" fill-rule="nonzero"/></g></g></g><g clip-path="url(#8580c204a6)"><g clip-path="url(#358f4dc5b6)"><g clip-path="url(#b4852088cc)"><path fill="#ffffff" d="M 1026.863281 372.945312 L 1026.902344 372.917969 L 1036.800781 350.179688 L 1060.863281 350.871094 C 1061.070312 350.871094 1061.222656 350.773438 1061.324219 350.578125 C 1061.398438 350.378906 1061.363281 350.203125 1061.222656 350.046875 L 1044.269531 332.984375 L 1053.472656 307.304688 C 1053.34375 306.984375 1053.113281 306.882812 1052.78125 307 L 1030.199219 320.226562 L 1009.019531 305.082031 C 1008.828125 304.96875 1008.648438 304.960938 1008.476562 305.066406 C 1008.304688 305.1875 1008.230469 305.355469 1008.261719 305.5625 L 1012.851562 330.542969 L 996.480469 345.910156 C 996.359375 346.011719 996.316406 346.167969 996.34375 346.375 C 996.382812 346.570312 996.523438 346.695312 996.765625 346.746094 L 1018.554688 348.8125 L 1026.148438 372.679688 C 1026.292969 373 1026.535156 373.085938 1026.863281 372.945312 Z M 1026.863281 372.945312 " fill-opacity="1" fill-rule="nonzero"/></g></g></g><g clip-path="url(#e0ce9a4723)"><g clip-path="url(#c8dd7706a6)"><g clip-path="url(#ef89632f49)"><path fill="#ffffff" d="M 1039.667969 323.101562 L 1030.171875 322.238281 L 1020.679688 321.371094 C 1025.65625 185.046875 1030.628906 48.726562 1035.605469 -87.597656 C 1036.960938 49.300781 1038.3125 186.203125 1039.667969 323.101562 " fill-opacity="1" fill-rule="nonzero"/></g></g></g><g clip-path="url(#09d0c2ed50)"><g clip-path="url(#facfeb6e5a)"><g clip-path="url(#7fad0e442b)"><path fill="#ffffff" d="M 1215.109375 213.800781 L 1215.148438 213.773438 L 1225.046875 191.035156 L 1249.109375 191.726562 C 1249.316406 191.726562 1249.46875 191.628906 1249.566406 191.433594 C 1249.644531 191.238281 1249.609375 191.058594 1249.46875 190.902344 L 1232.511719 173.839844 L 1241.714844 148.160156 C 1241.589844 147.839844 1241.359375 147.742188 1241.027344 147.855469 L 1218.441406 161.082031 L 1197.261719 145.941406 C 1197.074219 145.824219 1196.890625 145.820312 1196.722656 145.925781 C 1196.546875 146.046875 1196.476562 146.210938 1196.503906 146.421875 L 1201.097656 171.402344 L 1184.726562 186.769531 C 1184.605469 186.871094 1184.558594 187.023438 1184.585938 187.230469 C 1184.628906 187.425781 1184.769531 187.550781 1185.011719 187.601562 L 1206.800781 189.667969 L 1214.390625 213.535156 C 1214.539062 213.855469 1214.777344 213.945312 1215.109375 213.800781 Z M 1215.109375 213.800781 " fill-opacity="1" fill-rule="nonzero"/></g></g></g><g clip-path="url(#862314c476)"><g clip-path="url(#d59723d9b6)"><g clip-path="url(#6692a7ca89)"><path fill="#ffffff" d="M 1227.914062 163.960938 L 1208.921875 162.226562 C 1213.898438 25.90625 1218.875 -110.417969 1223.851562 -246.742188 C 1225.203125 -109.839844 1226.558594 27.058594 1227.914062 163.960938 " fill-opacity="1" fill-rule="nonzero"/></g></g></g><g clip-path="url(#113e75f20d)"><g clip-path="url(#312aafe296)"><g clip-path="url(#35daf37f36)"><path fill="#ffffff" d="M 1351.949219 655.503906 L 1351.988281 655.476562 L 1361.886719 632.738281 L 1385.949219 633.429688 C 1386.15625 633.429688 1386.308594 633.332031 1386.40625 633.136719 C 1386.484375 632.9375 1386.449219 632.761719 1386.308594 632.605469 L 1369.351562 615.542969 L 1378.554688 589.863281 C 1378.429688 589.542969 1378.199219 589.441406 1377.867188 589.558594 L 1355.28125 602.785156 L 1334.101562 587.640625 C 1333.914062 587.527344 1333.730469 587.523438 1333.5625 587.628906 C 1333.386719 587.75 1333.316406 587.914062 1333.34375 588.125 L 1337.9375 613.101562 L 1321.566406 628.46875 C 1321.445312 628.570312 1321.398438 628.726562 1321.425781 628.933594 C 1321.46875 629.128906 1321.609375 629.253906 1321.851562 629.304688 L 1343.640625 631.371094 L 1351.230469 655.238281 C 1351.378906 655.558594 1351.617188 655.648438 1351.949219 655.503906 Z M 1351.949219 655.503906 " fill-opacity="1" fill-rule="nonzero"/></g></g></g><g clip-path="url(#1e5d8869d3)"><g clip-path="url(#5601b03744)"><g clip-path="url(#0b6eb895c0)"><path fill="#ffffff" d="M 1364.753906 605.664062 L 1345.761719 603.929688 C 1350.738281 467.605469 1355.714844 331.285156 1360.691406 194.960938 C 1362.042969 331.863281 1363.398438 468.761719 1364.753906 605.664062 " fill-opacity="1" fill-rule="nonzero"/></g></g></g><g clip-path="url(#709f597a7c)"><g clip-path="url(#16046db0dc)"><g clip-path="url(#a891909302)"><path fill="#ffffff" d="M 504.839844 790.171875 L 504.878906 790.144531 L 514.777344 767.40625 L 538.839844 768.097656 C 539.046875 768.097656 539.199219 768 539.296875 767.804688 C 539.375 767.609375 539.339844 767.429688 539.199219 767.273438 L 522.242188 750.210938 L 531.445312 724.53125 C 531.320312 724.210938 531.089844 724.113281 530.753906 724.226562 L 508.171875 737.453125 L 486.992188 722.3125 C 486.804688 722.195312 486.621094 722.191406 486.453125 722.296875 C 486.277344 722.417969 486.207031 722.582031 486.234375 722.792969 L 490.828125 747.773438 L 474.457031 763.140625 C 474.335938 763.242188 474.289062 763.394531 474.316406 763.601562 C 474.359375 763.796875 474.5 763.921875 474.742188 763.972656 L 496.53125 766.039062 L 504.121094 789.90625 C 504.269531 790.226562 504.507812 790.316406 504.839844 790.171875 Z M 504.839844 790.171875 " fill-opacity="1" fill-rule="nonzero"/></g></g></g><g clip-path="url(#0aa71fab53)"><g clip-path="url(#9361c9f40c)"><g clip-path="url(#9f93e6f320)"><path fill="#ffffff" d="M 517.644531 740.332031 L 498.652344 738.597656 C 503.628906 602.277344 508.605469 465.953125 513.582031 329.628906 C 514.933594 466.53125 516.289062 603.429688 517.644531 740.332031 " fill-opacity="1" fill-rule="nonzero"/></g></g></g><g clip-path="url(#04f15c1f79)"><g clip-path="url(#1318d14b02)"><g clip-path="url(#0975650807)"><path fill="#ffffff" d="M 135.964844 790.171875 L 136.003906 790.144531 L 145.902344 767.40625 L 169.964844 768.097656 C 170.171875 768.097656 170.324219 768 170.421875 767.804688 C 170.5 767.609375 170.464844 767.429688 170.324219 767.273438 L 153.367188 750.210938 L 162.570312 724.53125 C 162.445312 724.210938 162.214844 724.113281 161.878906 724.226562 L 139.296875 737.453125 L 118.117188 722.3125 C 117.929688 722.195312 117.746094 722.191406 117.578125 722.296875 C 117.402344 722.417969 117.332031 722.582031 117.359375 722.792969 L 121.953125 747.773438 L 105.582031 763.140625 C 105.460938 763.242188 105.414062 763.394531 105.441406 763.601562 C 105.484375 763.796875 105.625 763.921875 105.867188 763.972656 L 127.65625 766.039062 L 135.246094 789.90625 C 135.394531 790.226562 135.632812 790.316406 135.964844 790.171875 Z M 135.964844 790.171875 " fill-opacity="1" fill-rule="nonzero"/></g></g></g><g clip-path="url(#4100849ffb)"><g clip-path="url(#bd56fc5efa)"><g clip-path="url(#bd247c3c81)"><path fill="#ffffff" d="M 148.769531 740.332031 L 129.777344 738.597656 C 134.753906 602.277344 139.730469 465.953125 144.707031 329.628906 C 146.058594 466.53125 147.414062 603.429688 148.769531 740.332031 " fill-opacity="1" fill-rule="nonzero"/></g></g></g><g clip-path="url(#c59f5849ae)"><g clip-path="url(#dcd5f5d78d)"><g clip-path="url(#fce802c558)"><path fill="#ffffff" d="M 1132.691406 745.648438 L 1132.730469 745.621094 L 1142.628906 722.882812 L 1166.691406 723.574219 C 1166.898438 723.574219 1167.050781 723.476562 1167.152344 723.28125 C 1167.226562 723.082031 1167.191406 722.90625 1167.050781 722.746094 L 1150.097656 705.683594 L 1159.300781 680.003906 C 1159.171875 679.6875 1158.941406 679.585938 1158.609375 679.703125 L 1136.027344 692.929688 L 1114.847656 677.785156 C 1114.65625 677.671875 1114.476562 677.664062 1114.304688 677.769531 C 1114.132812 677.890625 1114.058594 678.058594 1114.089844 678.265625 L 1118.679688 703.246094 L 1102.308594 718.613281 C 1102.1875 718.714844 1102.144531 718.871094 1102.171875 719.078125 C 1102.210938 719.273438 1102.351562 719.394531 1102.59375 719.449219 L 1124.382812 721.511719 L 1131.976562 745.382812 C 1132.121094 745.703125 1132.363281 745.789062 1132.691406 745.648438 Z M 1132.691406 745.648438 " fill-opacity="1" fill-rule="nonzero"/></g></g></g><g clip-path="url(#f41267202c)"><g clip-path="url(#caac570a42)"><g clip-path="url(#b6090d5668)"><path fill="#ffffff" d="M 1145.496094 695.804688 L 1136 694.941406 L 1126.507812 694.074219 C 1131.484375 557.75 1136.457031 421.425781 1141.433594 285.105469 C 1142.789062 422.003906 1144.140625 558.90625 1145.496094 695.804688 " fill-opacity="1" fill-rule="nonzero"/></g></g></g></svg>